<?xml version="1.0" encoding="UTF-8"?>
<svg width="482px" height="313px" viewBox="0 0 482 313" version="1.1" xmlns="http://www.w3.org/2000/svg" xmlns:xlink="http://www.w3.org/1999/xlink">
    <!-- Generator: Sketch 48.1 (47250) - http://www.bohemiancoding.com/sketch -->
    <title>Page 1</title>
    <desc>Created with Sketch.</desc>
    <defs>
        <polygon id="path-1" points="0.3070831 0.4939 481.894183 0.4939 481.894183 313 0.3070831 313"></polygon>
        <polygon id="path-3" points="0.3070794 0.279298524 240.8942 0.279298524 240.8942 190 0.3070794 190"></polygon>
        <polygon id="path-5" points="0.3070831 0.4939 481.894183 0.4939 481.894183 313 0.3070831 313"></polygon>
    </defs>
    <g id="Page-1" stroke="none" stroke-width="1" fill="none" fill-rule="evenodd">
        <g transform="translate(0.000000, -1.000000)">
            <g id="Group-16" transform="translate(0.000000, 0.706100)">
                <mask id="mask-2" fill="white">
                    <use xlink:href="#path-1"></use>
                </mask>
                <g id="Clip-2"></g>
                <polygon id="Fill-1" fill="#FFFFFF" mask="url(#mask-2)" points="0.3070831 313.493851 482.307083 313.493851 482.307083 0.4938507 0.3070831 0.4938507"></polygon>
                <path d="M0.3070831,289.639317 L482.307076,289.639317 M0.3070831,277.580642 L482.307076,277.580642 M0.3070831,265.521968 L482.307076,265.521968 M0.3070831,241.404618 L482.307076,241.404618 M0.3070831,229.345943 L482.307076,229.345943 M0.3070831,217.287268 L482.307076,217.287268 M0.3070831,193.169918 L482.307076,193.169918 M0.3070831,181.111243 L482.307076,181.111243 M0.3070831,169.052568 L482.307076,169.052568 M0.3070831,144.935219 L482.307076,144.935219 M0.3070831,132.876544 L482.307076,132.876544 M0.3070831,120.817869 L482.307076,120.817869 M0.3070831,96.7005192 L482.307076,96.7005192 M0.3070831,84.6418443 L482.307076,84.6418443 M0.3070831,72.5831694 L482.307076,72.5831694 M0.3070831,48.4658197 L482.307076,48.4658197 M0.3070831,36.4071448 L482.307076,36.4071448 M0.3070831,24.3484699 L482.307076,24.3484699 M12.3570829,313.493887 L12.3570829,0.4939 M24.4070827,313.493887 L24.4070827,0.4939 M36.4570825,313.493887 L36.4570825,0.4939 M60.5570822,313.493887 L60.5570822,0.4939 M72.607082,313.493887 L72.607082,0.4939 M84.6570818,313.493887 L84.6570818,0.4939 M108.757081,313.493887 L108.757081,0.4939 M120.807081,313.493887 L120.807081,0.4939 M132.857081,313.493887 L132.857081,0.4939 M156.957081,313.493887 L156.957081,0.4939 M169.007081,313.493887 L169.007081,0.4939 M181.05708,313.493887 L181.05708,0.4939 M205.15708,313.493887 L205.15708,0.4939 M217.20708,313.493887 L217.20708,0.4939 M229.25708,313.493887 L229.25708,0.4939 M253.357079,313.493887 L253.357079,0.4939 M265.407079,313.493887 L265.407079,0.4939 M277.457079,313.493887 L277.457079,0.4939 M301.557078,313.493887 L301.557078,0.4939 M313.607078,313.493887 L313.607078,0.4939 M325.657078,313.493887 L325.657078,0.4939 M349.757078,313.493887 L349.757078,0.4939 M361.807078,313.493887 L361.807078,0.4939 M373.857077,313.493887 L373.857077,0.4939 M397.957077,313.493887 L397.957077,0.4939 M410.007077,313.493887 L410.007077,0.4939 M422.057077,313.493887 L422.057077,0.4939 M446.157076,313.493887 L446.157076,0.4939 M458.207076,313.493887 L458.207076,0.4939 M470.257076,313.493887 L470.257076,0.4939" id="Stroke-3" stroke="#929292" stroke-width="0.2" mask="url(#mask-2)"></path>
                <path d="M0.3070831,301.697992 L482.307076,301.697992 M0.3070831,253.463293 L482.307076,253.463293 M0.3070831,205.228593 L482.307076,205.228593 M0.3070831,156.993894 L482.307076,156.993894 M0.3070831,108.759194 L482.307076,108.759194 M0.3070831,60.5244946 L482.307076,60.5244946 M0.3070831,12.289795 L482.307076,12.289795 M0.3070831,313.493887 L0.3070831,0.4939 M48.5070824,313.493887 L48.5070824,0.4939 M96.7070816,313.493887 L96.7070816,0.4939 M144.907081,313.493887 L144.907081,0.4939 M193.10708,313.493887 L193.10708,0.4939 M241.307079,313.493887 L241.307079,0.4939 M289.507079,313.493887 L289.507079,0.4939 M337.707078,313.493887 L337.707078,0.4939 M385.907077,313.493887 L385.907077,0.4939 M434.107076,313.493887 L434.107076,0.4939 M482.307076,313.493887 L482.307076,0.4939" id="Stroke-4" stroke="#000000" stroke-width="0.3" mask="url(#mask-2)"></path>
                <polygon id="Fill-5" fill="#000000" mask="url(#mask-2)" points="482.3071 156.9939 476.4717 154.0741 478.2223 156.9939 476.4717 159.9136"></polygon>
                <path d="M0.3070831,156.993894 L482.307083,156.993894" id="Stroke-6" stroke="#000000" stroke-width="1.5" mask="url(#mask-2)"></path>
                <text id="-5" mask="url(#mask-2)" font-family="Helvetica" font-size="7.0074624" font-weight="normal" fill="#000000">
                    <tspan x="-3.1941275" y="166.149036">-5</tspan>
                </text>
                <text id="-4" mask="url(#mask-2)" font-family="Helvetica" font-size="7.0074624" font-weight="normal" fill="#000000">
                    <tspan x="45.0058694" y="166.149036">-4</tspan>
                </text>
                <text id="-3" mask="url(#mask-2)" font-family="Helvetica" font-size="7.0074624" font-weight="normal" fill="#000000">
                    <tspan x="93.2058694" y="166.149036">-3</tspan>
                </text>
                <text id="-2" mask="url(#mask-2)" font-family="Helvetica" font-size="7.0074624" font-weight="normal" fill="#000000">
                    <tspan x="141.405889" y="166.149036">-2</tspan>
                </text>
                <text id="-1" mask="url(#mask-2)" font-family="Helvetica" font-size="7.0074624" font-weight="normal" fill="#000000">
                    <tspan x="189.605889" y="166.149036">-1</tspan>
                </text>
                <text id="0" mask="url(#mask-2)" font-family="Helvetica" font-size="7.0074624" font-weight="normal" fill="#000000">
                    <tspan x="231.44346" y="166.149036">0</tspan>
                </text>
                <text id="1" mask="url(#mask-2)" font-family="Helvetica" font-size="7.0074624" font-weight="normal" fill="#000000">
                    <tspan x="287.17296" y="166.149036">1</tspan>
                </text>
                <text id="2" mask="url(#mask-2)" font-family="Helvetica" font-size="7.0074624" font-weight="normal" fill="#000000">
                    <tspan x="335.37296" y="166.149036">2</tspan>
                </text>
                <text id="3" mask="url(#mask-2)" font-family="Helvetica" font-size="7.0074624" font-weight="normal" fill="#000000">
                    <tspan x="383.57296" y="166.149036">3</tspan>
                </text>
                <text id="4" mask="url(#mask-2)" font-family="Helvetica" font-size="7.0074624" font-weight="normal" fill="#000000">
                    <tspan x="431.77296" y="166.149036">4</tspan>
                </text>
                <text id="5" mask="url(#mask-2)" font-family="Helvetica" font-size="7.0074624" font-weight="normal" fill="#000000">
                    <tspan x="479.97296" y="166.149036">5</tspan>
                </text>
                <path d="M12.3570829,158.161804 L12.3570829,155.825983 M24.4070827,158.161804 L24.4070827,155.825983 M36.4570825,158.161804 L36.4570825,155.825983 M60.5570822,158.161804 L60.5570822,155.825983 M72.607082,158.161804 L72.607082,155.825983 M84.6570818,158.161804 L84.6570818,155.825983 M108.757081,158.161804 L108.757081,155.825983 M120.807081,158.161804 L120.807081,155.825983 M132.857081,158.161804 L132.857081,155.825983 M156.957081,158.161804 L156.957081,155.825983 M169.007081,158.161804 L169.007081,155.825983 M181.05708,158.161804 L181.05708,155.825983 M205.15708,158.161804 L205.15708,155.825983 M217.20708,158.161804 L217.20708,155.825983 M229.25708,158.161804 L229.25708,155.825983 M253.357079,158.161804 L253.357079,155.825983 M265.407079,158.161804 L265.407079,155.825983 M277.457079,158.161804 L277.457079,155.825983 M301.557078,158.161804 L301.557078,155.825983 M313.607078,158.161804 L313.607078,155.825983 M325.657078,158.161804 L325.657078,155.825983 M349.757078,158.161804 L349.757078,155.825983 M361.807078,158.161804 L361.807078,155.825983 M373.857077,158.161804 L373.857077,155.825983 M397.957077,158.161804 L397.957077,155.825983 M410.007077,158.161804 L410.007077,155.825983 M422.057077,158.161804 L422.057077,155.825983 M446.157076,158.161804 L446.157076,155.825983 M458.207076,158.161804 L458.207076,155.825983 M470.257076,158.161804 L470.257076,155.825983" id="Stroke-7" stroke="#000000" stroke-width="1.5" mask="url(#mask-2)"></path>
                <path d="M48.5070824,159.329714 L48.5070824,154.658073 M96.7070816,159.329714 L96.7070816,154.658073 M144.907081,159.329714 L144.907081,154.658073 M193.10708,159.329714 L193.10708,154.658073 M241.307079,159.329714 L241.307079,154.658073 M289.507079,159.329714 L289.507079,154.658073 M337.707078,159.329714 L337.707078,154.658073 M385.907077,159.329714 L385.907077,154.658073 M434.107076,159.329714 L434.107076,154.658073" id="Stroke-8" stroke="#000000" stroke-width="1.5" mask="url(#mask-2)"></path>
                <path d="M324.4142,175.8181 C324.4142,175.6846 324.4552,175.5897 324.5373,175.5332 C324.6193,175.4767 324.7031,175.4485 324.7885,175.4485 C324.8296,175.4485 324.8706,175.4545 324.9117,175.4665 C324.9527,175.4784 324.9971,175.4981 325.045,175.5255 L325.2245,175.623 C325.2484,175.6367 325.2715,175.6461 325.2937,175.6512 C325.3159,175.6564 325.3407,175.6589 325.3681,175.6589 C325.4536,175.6589 325.5194,175.6376 325.5656,175.5948 C325.6117,175.552 325.7306,175.4023 325.922,175.1457 C326.0485,174.978 326.3357,174.5692 326.7837,173.919 C326.7837,173.8951 326.7443,173.7112 326.6657,173.3673 C326.587,173.0234 326.5152,172.7317 326.4503,172.4923 C326.3853,172.2493 326.3272,172.0893 326.2759,172.0124 C326.2246,171.9354 326.1289,171.8969 325.9887,171.8969 C325.9408,171.8969 325.8468,171.914 325.7066,171.9482 C325.6177,171.9687 325.522,171.9927 325.4194,172.0201 L325.3733,171.8609 L325.9425,171.6659 C326.0895,171.6146 326.2254,171.5735 326.3503,171.5427 C326.4751,171.512 326.5819,171.4966 326.6708,171.4966 C326.8144,171.4966 326.9221,171.5393 326.9939,171.6248 C327.1033,171.7617 327.1956,172.032 327.2708,172.4358 L327.3786,173.0209 C327.6863,172.5487 327.9256,172.2168 328.0966,172.0252 C328.2504,171.8507 328.3958,171.7207 328.5325,171.6351 C328.6693,171.5496 328.7992,171.5068 328.9223,171.5068 C329.0386,171.5068 329.1326,171.5239 329.2044,171.5582 C329.3343,171.6197 329.3993,171.736 329.3993,171.9071 C329.3993,172.0235 329.3668,172.1141 329.3018,172.1791 C329.2369,172.2442 329.1531,172.2767 329.0505,172.2767 C329.0129,172.2767 328.977,172.2724 328.9429,172.2639 C328.9087,172.2553 328.8727,172.2424 328.8351,172.2253 L328.7018,172.1689 C328.6642,172.1518 328.6283,172.1373 328.5941,172.1252 C328.5599,172.1133 328.5343,172.1073 328.5172,172.1073 C328.3633,172.1073 328.1496,172.3066 327.876,172.7052 C327.6025,173.1038 327.4658,173.334 327.4658,173.3955 C327.4658,173.4468 327.4974,173.6137 327.5606,173.896 C327.6239,174.1783 327.6932,174.4768 327.7684,174.7916 C327.8367,175.0892 327.8949,175.2945 327.9427,175.4075 C328.0214,175.5922 328.1103,175.6846 328.2094,175.6846 C328.3017,175.6846 328.3958,175.6333 328.4915,175.5306 C328.5872,175.428 328.7309,175.2432 328.9223,174.9763 L329.0659,175.0636 C328.9189,175.3305 328.7667,175.558 328.6095,175.7462 C328.312,176.102 328.0282,176.28 327.7581,176.28 C327.5871,176.28 327.4521,176.1979 327.3529,176.0336 C327.2948,175.9378 327.2384,175.7804 327.1837,175.5614 L326.8657,174.2937 L325.8143,175.6743 C325.6092,175.9138 325.451,176.0746 325.3399,176.1568 C325.2288,176.2389 325.0912,176.28 324.927,176.28 C324.7082,176.28 324.5595,176.2115 324.4809,176.0746 C324.4364,176.0028 324.4142,175.9173 324.4142,175.8181 Z" id="Fill-9" fill="#000000" mask="url(#mask-2)"></path>
                <polygon id="Fill-10" fill="#000000" mask="url(#mask-2)" points="241.3071 0.4939 238.3894 6.3334 241.3071 4.5815 244.2248 6.3334"></polygon>
                <path d="M241.307079,313.493887 L241.307079,0.4939" id="Stroke-11" stroke="#000000" stroke-width="1.5" mask="url(#mask-2)"></path>
                <text id="-3" mask="url(#mask-2)" font-family="Helvetica" font-size="7.0074624" font-weight="normal" fill="#000000">
                    <tspan x="230.276389" y="304.260156">-3</tspan>
                </text>
                <text id="-2" mask="url(#mask-2)" font-family="Helvetica" font-size="7.0074624" font-weight="normal" fill="#000000">
                    <tspan x="230.276389" y="256.025456">-2</tspan>
                </text>
                <text id="-1" mask="url(#mask-2)" font-family="Helvetica" font-size="7.0074624" font-weight="normal" fill="#000000">
                    <tspan x="230.276389" y="207.790736">-1</tspan>
                </text>
                <text id="1" mask="url(#mask-2)" font-family="Helvetica" font-size="7.0074624" font-weight="normal" fill="#000000">
                    <tspan x="231.44346" y="111.321336">1</tspan>
                </text>
                <text id="2" mask="url(#mask-2)" font-family="Helvetica" font-size="7.0074624" font-weight="normal" fill="#000000">
                    <tspan x="231.44346" y="63.086636">2</tspan>
                </text>
                <text id="3" mask="url(#mask-2)" font-family="Helvetica" font-size="7.0074624" font-weight="normal" fill="#000000">
                    <tspan x="231.44346" y="14.851936">3</tspan>
                </text>
                <path d="M240.140009,289.639317 L242.47415,289.639317 M240.140009,277.580642 L242.47415,277.580642 M240.140009,265.521968 L242.47415,265.521968 M240.140009,241.404618 L242.47415,241.404618 M240.140009,229.345943 L242.47415,229.345943 M240.140009,217.287268 L242.47415,217.287268 M240.140009,193.169918 L242.47415,193.169918 M240.140009,181.111243 L242.47415,181.111243 M240.140009,169.052568 L242.47415,169.052568 M240.140009,144.935219 L242.47415,144.935219 M240.140009,132.876544 L242.47415,132.876544 M240.140009,120.817869 L242.47415,120.817869 M240.140009,96.7005192 L242.47415,96.7005192 M240.140009,84.6418443 L242.47415,84.6418443 M240.140009,72.5831694 L242.47415,72.5831694 M240.140009,48.4658197 L242.47415,48.4658197 M240.140009,36.4071448 L242.47415,36.4071448 M240.140009,24.3484699 L242.47415,24.3484699" id="Stroke-12" stroke="#000000" stroke-width="1.5" mask="url(#mask-2)"></path>
                <path d="M238.972939,301.697992 L243.64122,301.697992 M238.972939,253.463293 L243.64122,253.463293 M238.972939,205.228593 L243.64122,205.228593 M238.972939,156.993894 L243.64122,156.993894 M238.972939,108.759194 L243.64122,108.759194 M238.972939,60.5244946 L243.64122,60.5244946 M238.972939,12.289795 L243.64122,12.289795" id="Stroke-13" stroke="#000000" stroke-width="1.5" mask="url(#mask-2)"></path>
                <path d="M219.1327,91.4001 C219.1327,91.2906 219.1669,91.1965 219.2353,91.1178 C219.3037,91.0391 219.4029,90.9998 219.5328,90.9998 C219.6183,90.9998 219.6935,91.016 219.7585,91.0485 C219.8234,91.081 219.8918,91.1281 219.9636,91.1897 L220.0354,91.241 C220.0559,91.2581 220.079,91.2709 220.1046,91.2795 C220.1303,91.288 220.1585,91.2923 220.1892,91.2923 C220.3568,91.2923 220.6261,91.0707 220.997,90.6276 C221.368,90.1846 221.5535,89.8621 221.5535,89.6602 C221.5535,89.4686 221.4894,89.0922 221.3612,88.5311 C221.233,87.9699 221.109,87.4704 220.9893,87.0324 C220.8218,86.4165 220.6688,85.9991 220.5303,85.7801 C220.3918,85.5611 220.1875,85.4516 219.9174,85.4516 C219.8969,85.4516 219.8619,85.4542 219.8123,85.4593 C219.7627,85.4645 219.6781,85.4739 219.5584,85.4875 L219.5584,85.3182 L220.9586,85.0513 L221.0663,85.041 C221.1518,85.0308 221.3159,85.4157 221.5586,86.1958 C221.7774,86.8973 221.9142,87.4071 221.969,87.7253 L222.1741,88.9468 C222.5331,88.3446 222.7964,87.8827 222.9639,87.561 C223.2921,86.928 223.4563,86.4849 223.4563,86.2317 C223.4563,86.1736 223.446,86.1163 223.4255,86.0598 C223.405,86.0033 223.3571,85.9546 223.2819,85.9135 L223.1947,85.8673 C223.14,85.84 223.0759,85.7886 223.0024,85.7134 C222.9289,85.6381 222.8921,85.5372 222.8921,85.4106 C222.8921,85.3045 222.9263,85.2155 222.9947,85.1436 C223.0631,85.0718 223.1656,85.0359 223.3024,85.0359 C223.4734,85.0359 223.6118,85.0864 223.7178,85.1873 C223.8238,85.2882 223.8768,85.4602 223.8768,85.7031 C223.8768,86.0692 223.6768,86.6577 223.2768,87.4687 C222.969,88.088 222.6254,88.6884 222.2459,89.2701 C221.7706,89.9955 221.362,90.5549 221.0201,90.9485 C220.4765,91.5677 220.0251,91.8774 219.6662,91.8774 C219.5259,91.8774 219.402,91.8346 219.2943,91.7491 C219.1866,91.6636 219.1327,91.5472 219.1327,91.4001 Z" id="Fill-14" fill="#000000" mask="url(#mask-2)"></path>
                <polygon id="Stroke-15" stroke="#000000" mask="url(#mask-2)" points="0.01531555 0.2019224 482.598843 0.2019224 482.598843 313.785865 0.01531555 313.785865"></polygon>
            </g>
            <g id="Group-19" transform="translate(241.000000, 123.706100)">
                <mask id="mask-4" fill="white">
                    <use xlink:href="#path-3"></use>
                </mask>
                <g id="Clip-18"></g>
                <polyline id="Stroke-17" stroke="#000000" mask="url(#mask-4)" points="0.3070794 610.122926 0.365899738 174.520377 0.42477843 160.000272 0.483598768 151.506585 0.542419106 145.480226 0.601297797 140.805782 0.660118135 136.986481 0.718938474 133.757326 0.777758812 130.960122 0.836637503 128.492794 0.895457841 126.285677 0.954278179 124.289134 1.01315687 122.466377 1.07197721 120.789666 1.13079755 119.237221 1.18967624 117.79199 1.24849658 116.440017 1.30731691 115.170032 1.36613725 113.97269 1.42501594 112.840109 1.48383628 111.765573 1.54265662 110.743534 1.60153531 109.76903 1.66035565 108.837855 1.71917599 107.946331 1.77805468 107.091187 1.83687502 106.269562 1.89569536 105.479003 1.95451569 104.717175 2.01339439 103.982034 2.07221472 103.271886 2.13103506 102.584979 2.18991375 101.919913 2.24873409 101.275343 2.30755443 100.649985 2.36643312 100.04273 2.42525346 99.4525853 2.4840738 98.8786158 2.54289414 98.3200042 2.60177283 97.7758748 2.66059317 97.2455266 2.7194135 96.7282591 2.77829219 96.2234299 2.83711253 95.7305133 2.89593287 95.2489254 2.95481156 94.7781991 3.0136319 94.3177505 3.07245224 93.867229 3.13127258 93.4262261 3.19015127 92.9942744 3.24897161 92.5710821 3.30779194 92.1562403 3.36667064 91.7494571 3.42549097 91.3504405 3.48431131 90.9588985 3.54319 90.5745392 3.60201034 90.1970706 3.66083068 89.826259 3.71965102 89.4619878 3.77852971 89.1038481 3.83735005 88.7517815 3.89617039 88.4055544 3.95504908 88.0649334 4.01386942 87.7297431 4.07268975 87.3998084 4.13156845 87.0750709 4.19038878 86.7552386 4.24920912 86.4401948 4.30802946 86.129881 4.36690815 85.8240637 4.42572849 85.522626 4.48454883 85.2255096 4.54342752 84.9324809 4.60224786 84.6435398 4.6610682 84.3585697 4.71994689 84.0773369 4.77876722 83.7998998 4.83758756 83.5260832 4.8964079 83.2557703 4.95528659 82.9889028 5.01410693 82.7254222 5.07292727 82.4651534 5.13180596 82.2081547 5.1906263 81.954251 5.24944664 81.7033254 5.30832533 81.4554364 5.36714567 81.2104088 5.425966 80.9682426 5.48478634 80.728821 5.60248537 80.2580947 5.7201844 79.797646 5.83782508 79.3471246 5.95552411 78.9061216 6.07316478 78.47417 6.19086381 78.0509776 6.30856284 77.6361358 6.42620352 77.229411 6.54390255 76.8303361 6.66154322 76.4387941 6.77924225 76.0544348 6.89694128 75.6769661 7.01458196 75.306213 7.13228099 74.9418833 7.24992167 74.583802 7.3676207 74.231677 7.48531973 73.88545 7.6029604 73.5448289 7.72065943 73.2096386 7.83830011 72.8797623 7.95599914 72.5549665 8.07369817 72.2351342 8.19133884 71.9201488 8.30903787 71.6097766 8.4267369 71.3039592 8.54437758 71.0025216 8.66207661 70.7054052 8.77971728 70.4124348 8.89741631 70.1234938 9.01511534 69.8384653 9.13275602 69.5572908 9.25045505 69.2797953 9.36809573 69.0059787 9.48579476 68.7356659 9.60349379 68.4687983 9.72113446 68.2053178 9.83883349 67.9451073 9.95647417 67.6880502 10.0741732 67.4341465 10.1918722 67.1832794 10.3095129 66.935332 10.4272119 66.6903628 10.5448526 66.4481382 10.6625516 66.2087749 10.7802507 65.9720395 10.8978913 65.7379902 11.0155904 65.5065104 11.133231 65.2776 11.2509301 65.0510837 11.3686291 64.8270785 11.4862698 64.6054091 11.6039688 64.3860172 11.7216095 64.168961 11.8393085 63.9541239 11.9570076 63.7414474 12.0746482 63.5308732 12.1923473 63.3224596 12.3099879 63.1160898 12.427687 62.9117055 12.545386 62.7093066 12.6630267 62.5088348 12.7807257 62.31029 12.8983664 62.1135555 13.0160654 61.9186897 13.1337644 61.7256341 13.2514051 61.5343303 13.3691041 61.3447785 13.4867448 61.1568617 13.6044438 60.9706968 13.7221429 60.7861085 13.8397836 60.6031554 13.9574826 60.4217789 14.0751233 60.2419791 14.1928223 60.0636976 14.3105213 59.8869343 14.428162 59.711631 14.545861 59.5377875 14.6635017 59.3653455 14.7812007 59.1943635 14.8988998 59.0247245 15.0165404 58.856487 15.1342395 58.6895342 15.2518801 58.5239245 15.3695792 58.3596579 15.4872782 58.1966176 15.6049189 58.034862 15.7226179 57.8743327 15.8402586 57.7150298 15.9579576 57.5569531 16.0756566 57.4000443 16.1932973 57.2443035 16.3109963 57.0896721 16.428637 56.9362087 16.5463361 56.7838548 16.6640351 56.6326104 16.7816758 56.4824755 16.8993748 56.3333334 17.0170155 56.1853007 17.1347145 56.0383192 17.2524135 55.8923304 17.3700542 55.7473343 17.4877532 55.6033894 17.6053939 55.4603787 17.7230929 55.3183608 17.840792 55.1772772 17.9584326 55.0371864 18.0761317 54.8979715 18.1937723 54.7597493 18.3114714 54.6223446 18.4291704 54.4858743 18.5468111 54.3502799 18.6645101 54.2155614 18.7821508 54.0817189 18.8998498 53.9487523 19.0175488 53.8165448 19.1351895 53.6852133 19.2528886 53.5546993 19.3705292 53.4250029 19.4882283 53.2960656 19.6059273 53.1679458 19.723568 53.0406436 19.841267 52.9140421 19.9589077 52.7882581 20.0766067 52.6631749 20.1943057 52.5388509 20.3119464 52.4152859 20.4296454 52.2924218 20.5472861 52.1702583 20.6649851 52.0487957 20.7826842 51.9280921 20.9003248 51.8080309 21.0180239 51.6886705 21.1356646 51.5699524 21.2533636 51.4519351 21.3710626 51.3346185 21.4887033 51.2178858 21.6064023 51.1018539 21.724043 50.986406 21.841742 50.8716588 21.9594411 50.7574955 22.0770817 50.6439162 22.1947808 50.5310377 22.3124214 50.4186847 22.4301205 50.3069741 22.5478195 50.1958474 22.6654602 50.0853047 22.7831592 49.9753459 22.9008582 49.8659711 23.0184989 49.7571219 23.1361979 49.6488566 23.2538386 49.5411752 23.3715376 49.4340195 23.4892367 49.3273892 23.6068773 49.221343 23.7245764 49.1158223 23.8422171 49.0108271 23.9599161 48.9062991 24.0776151 48.8023551 24.1952558 48.6989367 24.3129548 48.5959854 24.4305955 48.4935596 24.5482945 48.391601 24.6659936 48.290168 24.7836342 48.1892022 24.9013333 48.0887035 25.0189739 47.9887303 25.136673 47.8892244 25.254372 47.7901856 25.3720127 47.6916139 25.4897117 47.5935095 25.6073524 47.4958138 25.7250514 47.3986436 25.8427504 47.3018822 25.9603911 47.2055296 26.0780901 47.1096442 26.1957308 47.0142259 26.3134298 46.9192164 26.4311289 46.824674 26.5487696 46.7305405 26.6664686 46.6367573 26.7841093 46.5434996 26.9018083 46.4505923 27.0195073 46.3580938 27.137148 46.2660041 27.254847 46.1743231 27.3724877 46.0830509 27.4901867 45.9921875 27.6078858 45.9016745 27.7255264 45.8115702 27.8432255 45.7218747 27.9608661 45.6325295 28.0785652 45.5435931 28.1962642 45.4550071 28.3139049 45.3668299 28.4316039 45.279003 28.5492446 45.1915265 28.6669436 45.1044004 28.7846426 45.0176831 28.9022833 44.9313161 29.0199823 44.8452411 29.137623 44.7595749 29.2553221 44.674259 29.3730211 44.5892935 29.4906618 44.50462 29.6083608 44.4203553 29.7260015 44.3363825 29.8437005 44.2527602 29.9613995 44.1694298 30.0790402 44.0865081 30.1967392 44.0038785 30.3143799 43.9215408 30.4320789 43.8395535 30.549778 43.7579165 30.6674186 43.6765132 30.7851177 43.5955186 30.9027583 43.5147576 31.0204574 43.4343469 31.1381564 43.3542283 31.2557971 43.27446 31.3734961 43.1949253 31.4911368 43.115741 31.6088358 43.0368486 31.7265348 42.9582483 31.8441755 42.8799399 31.9618746 42.8019235 32.0795152 42.724199 32.1972143 42.6467666 32.3149133 42.5695677 32.432554 42.4927192 32.550253 42.4161043 32.6678937 42.3398397 32.7855927 42.2637504 32.9032917 42.1880114 33.0209324 42.112506 33.1386314 42.0372925 33.2562721 41.9623711 33.3739711 41.8876832 33.4916702 41.8132873 33.6093108 41.739125 33.7270099 41.6651963 33.8446506 41.5915595 33.9623496 41.5182147 34.0800486 41.4451036 34.1976893 41.3722259 34.3153883 41.2996403 34.433029 41.2272883 34.550728 41.1551698 34.6684271 41.0832849 34.7860677 41.011692 34.9037668 40.9402743 35.0214074 40.8691485 35.1391065 40.7982564 35.2568055 40.7275978 35.3744462 40.6572312 35.4921452 40.5870398 35.6097859 40.517082 35.7274849 40.4473577 35.8451839 40.3779254 35.9628246 40.3086683 36.0805236 40.2396448 36.1981643 40.1708549 36.3158634 40.1022402 36.4335624 40.0339174 36.5512031 39.9657698 36.6689021 39.8979143 36.7865428 39.8302338 36.9042418 39.7627286 37.0219408 39.6955154 37.1395815 39.6284773 37.2572805 39.5616145 37.3749212 39.4950436 37.4926202 39.4286479 37.6103193 39.3624273 37.7279599 39.2964988 37.845659 39.230687 37.9632996 39.1651089 38.0809987 39.0997643 38.1986977 39.0345949 38.3163384 38.9696591 38.4340374 38.9048984 38.5517364 38.8403714 38.6693771 38.7760195 38.7870761 38.7118428 38.9047168 38.6478998 39.0224159 38.5841318 39.1401149 38.5205391 39.2577556 38.4571216 39.3754546 38.3939376 39.4930953 38.3309289 39.6107943 38.2681537 39.7284933 38.2054953 39.846134 38.1430705 39.963833 38.0808209 40.0814737 38.0187464 40.1991727 37.9568472 40.3168718 37.8951815 40.4345124 37.8336326 40.5522115 37.7723173 40.6698521 37.7111188 40.7875512 37.6501539 40.9052502 37.5893642 41.0228909 37.5286912 41.1405899 37.4682519 41.2582306 37.4079877 41.3759296 37.3478987 41.4936286 37.2879265 41.6112693 37.2281879 41.7289684 37.168566 41.846609 37.1091194 41.9643081 37.0499063 42.0820071 36.9908101 42.1996478 36.931889 42.3173468 36.8730847 42.4349875 36.814514 42.5526865 36.7560601 42.6703855 36.6977814 42.7880262 36.6396778 42.9057252 36.5817495 43.0233659 36.5239379 43.1410649 36.4663599 43.258764 36.4088403 43.3764046 36.3515543 43.4941037 36.2943851 43.6117444 36.2373911 43.7294434 36.1805722 43.8471424 36.1238702 43.9647831 36.0672849 44.0824821 36.0109333 44.2001228 35.9546984 44.3178218 35.8985803 44.4355209 35.8426374 44.5531615 35.7868696 44.6708606 35.7312187 44.7885012 35.675743 44.9062003 35.620384 45.0238993 35.5652003 45.14154 35.5101333 45.259239 35.4552415 45.3768797 35.4004665 45.4945787 35.3458667 45.6122777 35.2913837 45.7299184 35.2370174 45.8476174 35.1828264 45.9652581 35.1287521 46.0829571 35.0748531 46.2006562 35.0210708 46.3182969 34.9674053 46.4359959 34.913915 46.5536366 34.8605415 46.6713356 34.8072848 46.7890346 34.7542033 46.9066753 34.7012385 47.0243743 34.6483906 47.142015 34.5957178 47.259714 34.5431619 47.3774131 34.4907227 47.4950537 34.4384003 47.6127528 34.3862531 47.7303934 34.3341643 47.8480925 34.2822507 47.9657915 34.2304539 48.0834322 34.1788322 48.2011312 34.127269 48.3187719 34.0758809 48.4364709 34.0246096 48.5541699 33.9734552 48.6718106 33.9224175 48.7895096 33.8714966 48.9071503 33.8207509 49.0248494 33.7700636 49.1425484 33.7195514 49.2601891 33.6690977 49.3778881 33.6188192 49.4955288 33.5686574 49.6132278 33.5186125 49.7309268 33.4686259 49.8485675 33.4188145 49.9662665 33.3691199 50.0839072 33.3195421 50.2016062 33.2700811 50.3193053 33.2207369 50.4369459 33.1715095 50.554645 33.1223989 50.6722856 33.073405 50.7899847 33.024528 50.9076837 32.9757093 51.0253244 32.9270658 51.1430234 32.8785392 51.2606641 32.8300709 51.3783631 32.7817778 51.4960621 32.7335431 51.6137028 32.6854252 51.7314019 32.6374825 51.8490425 32.5895981 51.9667416 32.5418306 52.0844406 32.4941215 52.2020813 32.4465875 52.3197803 32.3991703 52.437421 32.3518116 52.55512 32.3045696 52.672819 32.2574444 52.7904597 32.210436 52.9081587 32.163486 53.0258578 32.1167112 53.1434984 32.0699948 53.2611975 32.0233952 53.3788381 31.9768539 53.4965372 31.9304879 53.6142362 31.8841803 53.7318769 31.8379894 53.8495759 31.7919153 53.9672166 31.7458997 54.0849156 31.7000592 54.2026147 31.6542187 54.3202553 31.6085534 54.4379544 31.5629465 54.555595 31.5174564 54.6732941 31.4720831 54.7909931 31.4267681 54.9086338 31.38157 55.0263328 31.3364887 55.1439735 31.2915241 55.2616725 31.246618 55.3793715 31.2017702 55.4970122 31.1570976 55.6147112 31.1124251 55.7323519 31.0679277 55.8500509 31.0234887 55.96775 30.9791665 56.0853907 30.9349027 56.2030897 30.8907557 56.3207304 30.8467254 56.4384294 30.8027536 56.5561284 30.7588986 56.6737691 30.7151019 56.7914681 30.6714221 56.9091088 30.6278006 57.0268078 30.584296 57.1445069 30.5409081 57.2621475 30.4975786 57.3798466 30.4543659 57.4974872 30.4112117 57.6151863 30.3681158 57.7328853 30.3251951 57.850526 30.2822743 57.968225 30.2394704 58.0858657 30.1967833 58.2035647 30.1541546 58.3212637 30.1116426 58.4389044 30.0691891 58.5566034 30.0267939 58.6742441 29.9845156 58.7919432 29.942354 58.9096422 29.9002509 59.0272829 29.8582061 59.1449819 29.8162781 59.2626226 29.7744085 59.3803216 29.7326557 59.4980206 29.6909613 59.6156613 29.6493837 59.7333603 29.6078645 59.851001 29.5664037 59.9687 29.5250596 60.0863991 29.483774 60.2040397 29.4425468 60.3217388 29.4014363 60.4393794 29.3604427 60.5570785 29.319449 60.6747775 29.2785722 60.7924182 29.2378121 60.9101172 29.1971104 61.0277579 29.1564671 61.1454569 29.1158822 61.2631559 29.0754141 61.3807966 29.0350044 61.4984957 28.9947115 61.6161363 28.9544186 61.7338354 28.9142425 61.8515344 28.8741832 61.9691751 28.8341822 62.0868741 28.7942397 62.2045148 28.7543556 62.3222138 28.7145882 62.4399128 28.6748793 62.5575535 28.6352287 62.6752525 28.5956365 62.7928932 28.5561612 62.9105922 28.5167442 63.0282913 28.477444 63.1459319 28.4381438 63.263631 28.3989604 63.3812717 28.3598354 63.4989707 28.3208272 63.6166697 28.281819 63.7343104 28.2429276 63.8520094 28.2040946 63.9696501 28.16532 64.0873491 28.1266621 64.2050482 28.0880627 64.3226888 28.0495216 64.4403879 28.011039 64.5580285 27.9726147 64.6757276 27.9343073 64.7934266 27.8960582 64.9110673 27.8578675 65.0287663 27.8197353 65.146407 27.7816614 65.264106 27.7437043 65.381805 27.7057472 65.4994457 27.6679069 65.6171447 27.630125 65.7347854 27.5924599 65.8524844 27.5547948 65.9701835 27.5171881 66.0878242 27.4796982 66.2055232 27.4422666 66.3231639 27.4048935 66.4408629 27.3675788 66.5585619 27.3303224 66.6762026 27.2931829 66.7939016 27.2560433 66.9115423 27.2190206 67.0292413 27.1820562 67.1469404 27.1451502 67.264581 27.1083027 67.3822801 27.0715135 67.4999207 27.0347827 67.6176198 26.9981103 67.7353188 26.9615547 67.8529595 26.9249991 67.9706585 26.8885603 68.0882992 26.8521215 68.2059982 26.8157995 68.3236972 26.7795359 68.4413379 26.7433307 68.5590369 26.7071838 68.676736 26.6710954 68.7943767 26.6350654 68.9120757 26.5990937 69.0297164 26.5631805 69.1474154 26.527384 69.2651144 26.4915876 69.3827551 26.4558495 69.5004541 26.4202282 69.6180948 26.384607 69.7357938 26.3491025 69.8534929 26.313598 69.9711335 26.2782103 70.0888326 26.2428226 70.2064732 26.2075518 70.3241723 26.1722809 70.4418713 26.1371268 70.559512 26.102031 70.677211 26.0669353 70.7948517 26.0319564 70.9125507 25.9969775 71.0302497 25.9621154 71.1478904 25.9273117 71.2655894 25.8925079 71.3832301 25.857821 71.5009292 25.823134 71.6186282 25.7885639 71.7362689 25.7539938 71.8539679 25.7195404 71.9716086 25.685087 72.0893076 25.6507505 72.2070066 25.6164139 72.3246473 25.5821941 72.4423463 25.5479744 72.559987 25.513813 72.677686 25.47971 72.7953851 25.4457238 72.9130257 25.4117376 73.0307248 25.3778098 73.1483654 25.3439404 73.2660645 25.3101294 73.3837635 25.2763768 73.5014042 25.2426242 73.6191032 25.2089884 73.7367439 25.1754109 73.8544429 25.1418335 73.9721419 25.1083729 74.0897826 25.0749122 74.2074817 25.0415684 74.3251223 25.0082246 74.4428214 24.9749391 74.5605204 24.9417121 74.6781611 24.9085434 74.7958601 24.8754332 74.9135008 24.8423813 75.0311998 24.8093294 75.1488988 24.7763944 75.2665395 24.7434593 75.3842385 24.7105826 75.5018792 24.6778227 75.6195782 24.6450628 75.7372773 24.6123613 75.8549179 24.5796598 75.972617 24.5470751 76.0902577 24.5145488 76.2079567 24.4820225 76.3256557 24.4495546 76.4432964 24.4171451 76.5609954 24.384794 76.6786361 24.3525013 76.7963351 24.3202669 76.9140342 24.2880326 77.0316748 24.2559151 77.1493739 24.2237975 77.2670145 24.1917384 77.3847136 24.1597377 77.5024126 24.1277953 77.6200533 24.095853 77.7377523 24.0640274 77.855393 24.0322018 77.973092 24.0004347 78.090791 23.9687259 78.2084317 23.9370755 78.3261307 23.9054252 78.4437714 23.8738332 78.5614705 23.842358 78.6791695 23.8108828 78.7968102 23.7794076 78.9145092 23.7480492 79.0321499 23.7166908 79.1498489 23.6854492 79.2675479 23.6542076 79.3851886 23.622966 79.5028876 23.5918412 79.6205283 23.5607164 79.7382273 23.52965 79.8559264 23.498642 79.973567 23.4676924 80.0912661 23.4368011 80.2089067 23.4059099 80.3266058 23.3750771 80.4443048 23.3443026 80.5619455 23.3135282 80.6796445 23.2828705 80.7972852 23.2522129 80.9149842 23.2216136 81.0326832 23.1910728 81.1503239 23.1605319 81.268023 23.1300495 81.3856636 23.0996254 81.5033627 23.0692597 81.6210617 23.038894 81.7387024 23.0086452 81.8564014 22.9783963 81.9740421 22.9481474 82.0917411 22.9180153 82.2094401 22.8878832 82.3270808 22.8578095 82.4447798 22.8277942 82.5624205 22.7977789 82.6801195 22.767822 82.7978186 22.7379235 82.9154592 22.7080834 83.0331583 22.6782433 83.1508573 22.6484616 83.268498 22.6187383 83.386197 22.5890734 83.5038377 22.5594084 83.6215367 22.5298019 83.7392357 22.5002538 83.8568764 22.4707056 83.9745755 22.4412159 84.0922161 22.4117846 84.2099152 22.3823532 84.3276142 22.3530387 84.4452549 22.3237241 84.5629539 22.2944096 84.6805946 22.2651534 84.7982936 22.236014 84.9159926 22.2068163 85.0336333 22.1777353 85.1513323 22.1486543 85.268973 22.1196318 85.386672 22.0906092 85.5043711 22.061645 85.6220117 22.0327392 85.7397108 22.0038919 85.8573515 21.9750445 85.9750505 21.9462555 86.0927495 21.9174665 86.2103902 21.8887943 86.3280892 21.8601221 86.4457299 21.8314499 86.5634289 21.8028361 86.681128 21.7742807 86.7987686 21.7457837 86.9164677 21.7172866 87.0341083 21.688848 87.1518074 21.6604678 87.2695064 21.6320876 87.3871471 21.6037657 87.5048461 21.5754439 87.6224868 21.5472389 87.7401858 21.5190338 87.8578848 21.4908288 87.9755255 21.4626822 88.0932245 21.4345939 88.2108652 21.4065057 88.3285642 21.3785342 88.4462633 21.3505044 88.563904 21.3225913 88.681603 21.2946783 88.7992437 21.2667652 88.9169427 21.2389689 89.0346417 21.2111727 89.1522824 21.1833764 89.2699814 21.1556385 89.3876221 21.1279591 89.5053211 21.100338 89.6230202 21.0727169 89.7406608 21.0450958 89.8583599 21.0175915 89.9760005 20.9900872 90.0936996 20.9625829 90.2113986 20.935137 90.3290393 20.9077495 90.4467383 20.880362 90.564379 20.8530329 90.682078 20.8257622 90.799777 20.7984915 90.9174177 20.7712792 91.0351167 20.7440669 91.1527574 20.716913 91.2704565 20.6898175 91.3881555 20.6627219 91.5057962 20.6356848 91.6234952 20.6087061 91.7411359 20.5817274 91.8588349 20.5547486 91.9765339 20.5278283 92.0941746 20.5009664 92.2118736 20.4741628 92.3295143 20.4473593 92.4472133 20.4205557 92.5649124 20.3938106 92.682553 20.3671238 92.8002521 20.3404371 92.9178927 20.3138087 93.0355918 20.2872388 93.1532908 20.2606688 93.2709315 20.2340988 93.3886305 20.2076457 93.5062712 20.1811341 93.6239702 20.1547393 93.7416692 20.1283445 93.8593099 20.1019498 93.977009 20.0756134 94.0946496 20.0493354 94.2123487 20.0230574 94.3300477 19.9968378 94.4476884 19.9706182 94.5653874 19.944457 94.6830281 19.9182959 94.8007271 19.8921931 94.9184261 19.8661487 95.0360668 19.8401043 95.1537658 19.8141182 95.2714065 19.7881322 95.3891055 19.7622046 95.5068046 19.736277 95.6244452 19.7104078 95.7421443 19.6845386 95.859785 19.6587278 95.977484 19.6329753 96.095183 19.6072229 96.2128237 19.5814705 96.3305227 19.5557765 96.4481634 19.5301408 96.5658624 19.5045052 96.6835615 19.478928 96.8012021 19.4533507 96.9189012 19.4278319 97.0365418 19.402313 97.1542409 19.3768526 97.2719399 19.3513921 97.3895806 19.3259901 97.5072796 19.3006464 97.6249203 19.2753028 97.7426193 19.2499591 97.8603183 19.2246739 97.977959 19.199447 98.095658 19.1742201 98.2132987 19.1489933 98.3309977 19.1238832 98.4486968 19.0987147 98.5663375 19.0736047 98.6840365 19.048553 98.8017355 19.0235013 98.9193762 18.998508 99.0370752 18.9735147 99.1547159 18.9485798 99.2724149 18.923645 99.390114 18.8987685 99.5077546 18.873892 99.6254537 18.8490155 99.7430943 18.8242558 99.8607934 18.7994377 99.9784924 18.7747364 100.096133 18.7499767 100.213832 18.7253338 100.331473 18.7006325 100.449172 18.676048 100.566871 18.651405 100.684512 18.6268205 100.802211 18.6022944 100.919851 18.5777683 101.03755 18.5533006 101.155249 18.5288329 101.27289 18.5044235 101.390589 18.4800142 101.50823 18.4556633 101.625929 18.4313123 101.743628 18.4069614 101.861268 18.3826689 101.978967 18.3584347 102.096608 18.3342006 102.214307 18.3100248 102.332006 18.2858491 102.449647 18.2616733 102.567346 18.237556 102.684987 18.2134386 102.802686 18.1893797 102.920385 18.1653791 103.038025 18.1413786 103.155724 18.117378 103.273365 18.0934359 103.391064 18.0694937 103.508763 18.0456099 103.626404 18.0217262 103.744103 17.9979008 103.861743 17.9740754 103.979442 17.95025 104.097141 17.9264831 104.214782 17.9027745 104.332481 17.8790659 104.450122 17.8553573 104.567821 17.8317071 104.68552 17.8080569 104.803161 17.7844652 104.92086 17.7608734 105.0385 17.73734 105.156199 17.7138066 105.273898 17.6903316 105.391539 17.6668566 105.509238 17.64344 105.626879 17.619965 105.744578 17.5966068 105.862277 17.5732486 105.979917 17.5498904 106.097617 17.5265905 106.215257 17.5032907 106.332956 17.4800493 106.450655 17.4568079 106.568296 17.4335665 106.685995 17.4103835 106.803636 17.3872588 106.921335 17.3640758 107.039034 17.3410096 107.156674 17.317885 107.274373 17.2948771 107.392014 17.2718109 107.509713 17.2488031 107.627412 17.2258536 107.745053 17.2028458 107.862752 17.1799547 107.980393 17.1570053 108.098092 17.1341726 108.215791 17.1112816 108.333431 17.088449 108.45113 17.0656747 108.568771 17.0429004 108.68647 17.0201262 108.804169 16.9974103 108.92181 16.9746945 109.039509 16.9519786 109.157149 16.9293212 109.274848 16.9067221 109.392547 16.8840646 109.510188 16.861524 109.627887 16.8389249 109.745528 16.8163842 109.863227 16.793902 109.980926 16.7714197 110.098567 16.7489374 110.216266 16.7265135 110.333906 16.7040896 110.451605 16.6816658 110.569304 16.6593003 110.686945 16.6369932 110.804644 16.6146861 110.922285 16.592379 111.039984 16.5700719 111.157683 16.5478232 111.275323 16.5256329 111.393022 16.5033842 111.510663 16.4812523 111.628362 16.459062 111.746061 16.4369301 111.863702 16.4148566 111.981401 16.3927247 112.099042 16.3707096 112.216741 16.3486361 112.33444 16.326621 112.45208 16.3046643 112.569779 16.2826492 112.68742 16.2607509 112.805119 16.2387941 112.922818 16.2168958 113.040459 16.1949975 113.158158 16.1731576 113.275857 16.1513177 113.393498 16.1295361 113.511197 16.1077546 113.628837 16.0859731 113.746536 16.0642499 113.864235 16.0425268 113.981876 16.0208037 114.099575 15.9991389 114.217216 15.9774742 114.334915 15.9558678 114.452614 15.9342615 114.570254 15.9126552 114.687953 15.8911072 114.805594 15.8695593 114.923293 15.8480697 115.040992 15.8265802 115.158633 15.8050906 115.276332 15.7836011 115.393973 15.7621699 115.511672 15.7407971 115.629371 15.7194244 115.747011 15.6980516 115.86471 15.6766789 115.982351 15.6553645 116.10005 15.6340501 116.217749 15.6127942 116.33539 15.5915382 116.453089 15.5702822 116.570729 15.5490847 116.688428 15.5278871 116.806127 15.5067479 116.923768 15.4855503 117.041467 15.4644695 117.159108 15.4433304 117.276807 15.4222496 117.394506 15.4011688 117.512147 15.3801464 117.629846 15.359124 117.747486 15.3381016 117.865185 15.3171376 117.982884 15.2961737 118.100525 15.2752681 118.218224 15.2543625 118.335865 15.2334569 118.453564 15.2125513 118.571263 15.1917041 118.688903 15.1708569 118.806603 15.1500681 118.924243 15.1292793 119.041942 15.1084905 119.159641 15.08776 119.277282 15.0670296 119.394981 15.0462992 119.512622 15.0256272 119.630321 15.0049552 119.74802 14.9842832 119.86566 14.9636696 119.983359 14.9430559 120.101 14.9225007 120.218699 14.9018871 120.336398 14.8813903 120.454039 14.8608351 120.571738 14.8403382 120.689379 14.8198414 120.807078 14.799403 120.924777 14.7789061 121.042417 14.7585261 121.160116 14.7380877 121.277757 14.7177076 121.395456 14.6973276 121.513155 14.677006 121.630796 14.6566843 121.748495 14.6363627 121.866135 14.616041 121.983834 14.5957778 122.101533 14.5755729 122.219174 14.5553097 122.336873 14.5351048 122.454514 14.5149 122.572213 14.4947535 122.689912 14.4746071 122.807553 14.4544606 122.925252 14.4343726 123.042892 14.4142261 123.160591 14.3941965 123.27829 14.3741084 123.395931 14.3540787 123.51363 14.3340491 123.631271 14.3140778 123.74897 14.2941065 123.866669 14.2741353 123.984309 14.254164 124.102008 14.2342511 124.219649 14.2143383 124.337348 14.1944838 124.455047 14.1746293 124.572688 14.1547748 124.690387 14.1349203 124.808028 14.1151243 124.925727 14.0953282 125.043426 14.0755905 125.161066 14.0557944 125.278765 14.0360567 125.396406 14.0163774 125.514105 13.9966981 125.631804 13.9770189 125.749445 13.9573396 125.867144 13.9377187 125.984784 13.9180394 126.102484 13.8984769 126.220183 13.878856 126.337823 13.8592935 126.455522 13.839731 126.573163 13.8202269 126.690862 13.8007228 126.808561 13.7812187 126.926202 13.7617146 127.043901 13.7422689 127.161541 13.7228232 127.27924 13.7034358 127.396939 13.6839901 127.51458 13.6646028 127.632279 13.6452739 127.74992 13.6258866 127.867619 13.6065577 127.985318 13.5872288 128.102959 13.5679582 128.220658 13.5486877 128.338298 13.5294172 128.455997 13.5101467 128.573696 13.4909346 128.691337 13.4717224 128.809036 13.4525103 128.926735 13.4333566 129.044376 13.4142028 129.162075 13.3950491 129.279715 13.3759538 129.397414 13.3568584 129.515113 13.3377631 129.632754 13.3186678 129.750453 13.2996308 129.868094 13.2805939 129.985793 13.2615569 130.103492 13.2425784 130.221133 13.2235999 130.338832 13.2046213 130.456472 13.1857012 130.574171 13.1667226 130.69187 13.1478025 130.809511 13.1289407 130.92721 13.110079 131.044851 13.0912172 131.16255 13.0723555 131.280249 13.0534937 131.397889 13.0346904 131.515589 13.015887 131.633229 12.997142 131.750928 12.9783387 131.868627 12.9595937 131.986268 12.9409071 132.103967 12.9221622 132.221608 12.9034756 132.339307 12.8847891 132.457006 12.8661609 132.574646 12.8474743 132.692345 12.8288461 132.809986 12.8102764 132.927685 12.7916482 133.045384 12.7730784 133.163025 12.7545086 133.280724 12.7359973 133.398365 12.7174275 133.516064 12.6989161 133.633763 12.6804047 133.751403 12.6619517 133.869102 12.6434988 133.986743 12.6250458 134.104442 12.6065928 134.222141 12.5881982 134.339782 12.5698036 134.457481 12.551409 134.575121 12.5330144 134.69282 12.5146782 134.810519 12.4963421 134.92816 12.4780059 135.045859 12.4597281 135.1635 12.4414503 135.281199 12.4231725 135.398898 12.4048947 135.516539 12.3866753 135.634238 12.3684559 135.751878 12.3502365 135.869577 12.3320755 135.987276 12.3138561 136.104917 12.295695 136.222616 12.2775924 136.340257 12.2594314 136.457956 12.2413288 136.575655 12.2232262 136.693295 12.2051236 136.810994 12.1870794 136.928635 12.1690352 137.046334 12.1509909 137.164033 12.1329467 137.281674 12.1149609 137.399373 12.0969751 137.517014 12.0789893 137.634713 12.0610618 137.752412 12.0431344 137.870052 12.025207 137.987751 12.0072796 138.105392 11.9893521 138.223091 11.9714831 138.34079 11.9536141 138.458431 11.9357451 138.57613 11.9179344 138.69377 11.9001238 138.81147 11.8823132 138.929169 11.8645025 139.046809 11.8467503 139.164508 11.8289981 139.282149 11.8112458 139.399848 11.7934936 139.517547 11.7757997 139.635188 11.7581059 139.752887 11.740412 139.870527 11.7227182 139.988226 11.7050828 140.105925 11.6874473 140.223566 11.6698119 140.341265 11.6522348 140.458906 11.6345994 140.576605 11.6170223 140.694304 11.5994453 140.811945 11.5819266 140.929644 11.5643496 141.047284 11.5468309 141.164983 11.5293706 141.282682 11.511852 141.400323 11.4943917 141.518022 11.4769315 141.635663 11.4594712 141.753362 11.4420109 141.871061 11.4246091 141.988701 11.4072072 142.1064 11.3898053 142.224041 11.3724035 142.34174 11.35506 142.459439 11.3377165 142.57708 11.3203731 142.694779 11.303088 142.81242 11.2857445 142.930119 11.2684595 143.047818 11.2511744 143.165458 11.2339477 143.283157 11.2166626 143.400856 11.199436 143.518497 11.1822093 143.636196 11.165041 143.753837 11.1478143 143.871536 11.130646 143.989235 11.1134777 144.106875 11.0963679 144.224575 11.0791996 144.342215 11.0620897 144.459914 11.0449798 144.577613 11.0278699 144.695254 11.0108184 144.812953 10.9937085 144.930594 10.976657 145.048293 10.9596639 145.165992 10.9426125 145.283632 10.9256194 145.401331 10.9086263 145.518972 10.8916332 145.636671 10.8746401 145.75437 10.8577054 145.872011 10.8407707 145.98971 10.823836 146.107351 10.8069013 146.22505 10.790025 146.342749 10.7731487 146.460389 10.7562723 146.578088 10.739396 146.695729 10.7225781 146.813428 10.7057018 146.931127 10.6888839 147.048768 10.6721244 147.166467 10.6553065 147.284107 10.638547 147.401806 10.6217875 147.519505 10.605028 147.637146 10.5882684 147.754845 10.5715673 147.872486 10.5548662 147.990185 10.5381651 148.107884 10.521464 148.225525 10.5047628 148.343224 10.4881201 148.460864 10.4714774 148.578563 10.4548347 148.696262 10.4382503 148.813903 10.4216076 148.931602 10.4050233 149.049243 10.388439 149.166942 10.371913 149.284641 10.3553287 149.402281 10.3388028 149.51998 10.3222768 149.637621 10.3057509 149.75532 10.289225 149.873019 10.2727574 149.99066 10.2562899 150.108359 10.2398224 150.226 10.2233548 150.343699 10.2069457 150.461398 10.1905366 150.579038 10.1741274 150.696737 10.1577183 150.814378 10.1413091 150.932077 10.1249584 151.049776 10.1086076 151.167417 10.0922569 151.285116 10.0759061 151.402756 10.0596138 151.520456 10.043263 151.638155 10.0269707 151.755795 10.0106783 151.873494 9.99444439 151.991135 9.97815204 152.108834 9.96191809 152.226533 9.94568414 152.344174 9.92945018 152.461873 9.91327462 152.579513 9.89709906 152.697212 9.88086511 152.814911 9.86474794 152.932552 9.84857239 153.050251 9.83239683 153.167892 9.81627966 153.285591 9.8001625 153.40329 9.78404534 153.520931 9.76798657 153.63863 9.7518694 153.75627 9.73581064 153.873969 9.71975187 153.991668 9.7036931 154.109309 9.68769273 154.227008 9.67163396 154.344649 9.65563359 154.462348 9.63963322 154.580047 9.62363284 154.697687 9.60769087 154.815386 9.59174889 154.933027 9.57580691 155.050726 9.55986494 155.168425 9.54392296 155.286066 9.52798098 155.403765 9.5120974 155.521406 9.49621382 155.639105 9.48033024 155.756804 9.46450505 155.874444 9.44862147 155.992143 9.43279628 156.109784 9.4169711 156.227483 9.40114591 156.345182 9.38532073 156.462823 9.36955394 156.580522 9.35378714 156.698162 9.33802035 156.815862 9.32225356 156.933561 9.30648677 157.051201 9.29077838 157.1689 9.27506998 157.286541 9.25936159 157.40424 9.24365319 157.521939 9.2279448 157.63958 9.2122948 157.757279 9.1966448 157.874919 9.1809948 157.992618 9.1653448 158.110317 9.1496948 158.227958 9.1341032 158.345657 9.11851159 158.463298 9.10291999 158.580997 9.08732839 158.698696 9.07173678 158.816337 9.05620358 158.934036 9.04061197 159.051735 9.02507876 159.169375 9.00960395 159.287074 8.99407074 159.404715 8.97859593 159.522414 8.96306272 159.640113 8.94758791 159.757754 8.9321131 159.875453 8.91669668 159.993093 8.90122186 160.110792 8.88580545 160.228491 8.87038903 160.346132 8.85497261 160.463831 8.83961459 160.581472 8.82419817 160.699171 8.80884015 160.81687 8.79348213 160.934511 8.77812411 161.05221 8.76276609 161.16985 8.74746646 161.287549 8.73210844 161.405248 8.71680881 161.522889 8.70150919 161.640588 8.68620956 161.758229 8.67096833 161.875928 8.6556687 161.993627 8.64042747 162.111267 8.62518624 162.228967 8.60994501 162.346607 8.59476218 162.464306 8.57952095 162.582005 8.56433811 162.699646 8.54915527 162.817345 8.53397244 162.934986 8.518848 163.052685 8.50366516 163.170384 8.48854073 163.288024 8.47341629 163.405723 8.45829185 163.523364 8.44316741 163.641063 8.42810136 163.758762 8.41297692 163.876403 8.39791088 163.994102 8.38284483 164.111743 8.36777879 164.229442 8.35277114 164.347141 8.3377051 164.464781 8.32269745 164.58248 8.3076898 164.700121 8.29268215 164.81782 8.2776745 164.935519 8.26272525 165.05316 8.247776 165.170859 8.23276835 165.288499 8.21781909 165.406198 8.20292824 165.523897 8.18797898 165.641538 8.17308813 165.759237 8.15813887 165.876878 8.14324802 165.994577 8.12841555 166.112276 8.1135247 166.229917 8.09863384 166.347616 8.08380138 166.465256 8.06896891 166.582955 8.05413645 166.700654 8.03930399 166.818295 8.02447153 166.935994 8.00969746 167.053635 7.99492339 167.171334 7.98014933 167.289033 7.96537526 167.406673 7.95060119 167.524372 7.93588552 167.642013 7.92111146 167.759712 7.90639579 167.877411 7.89168012 167.995052 7.87696444 168.112751 7.86230717 168.230392 7.8475915 168.348091 7.83293422 168.46579 7.81827695 168.58343 7.80361967 168.701129 7.7889624 168.81877 7.77430512 168.936469 7.75970624 169.054168 7.74510736 169.171809 7.73050848 169.289508 7.7159096 169.407148 7.70131072 169.524848 7.68671184 169.642547 7.67217136 169.760187 7.65763087 169.877886 7.64309039 169.995527 7.6285499 170.113226 7.61400942 170.230925 7.59952733 170.348566 7.58498684 170.466265 7.57050476 170.583905 7.55602267 170.701604 7.54154058 170.819303 7.52711688 170.936944 7.51263479 171.054643 7.4982111 171.172284 7.48378741 171.289983 7.46936371 171.407682 7.45494002 171.525323 7.44051633 171.643022 7.42615103 171.760662 7.41178573 171.878361 7.39742043 171.99606 7.38305514 172.113701 7.36868984 172.2314 7.35432454 172.349041 7.34001764 172.46674 7.32571074 172.584439 7.31134544 172.702079 7.29703854 172.819778 7.28279003 172.937419 7.26848313 173.055118 7.25423462 173.172817 7.23992772 173.290458 7.22567921 173.408157 7.2114307 173.525856 7.1971822 173.643497 7.18299208 173.761196 7.16874358 173.878836 7.15455347 173.996535 7.14036335 174.114234 7.12617324 174.231875 7.11198313 174.349574 7.09785142 174.467215 7.0836613 174.584914 7.06952959 174.702613 7.05539787 174.820253 7.04126616 174.937953 7.02713444 175.055593 7.01300273 175.173292 6.99892941 175.290991 6.98479769 175.408632 6.97072437 175.526331 6.95665105 175.643972 6.94257773 175.761671 6.9285628 175.87937 6.91448948 175.99701 6.90047456 176.114709 6.88645963 176.23235 6.87244471 176.350049 6.85842978 176.467748 6.84441486 176.585389 6.83045833 176.703088 6.81644341 176.820729 6.80248688 176.938428 6.78853035 177.056127 6.77457382 177.173767 6.76061729 177.291466 6.74671915 177.409107 6.73276263 177.526806 6.71886449 177.644505 6.70496636 177.762146 6.69106822 177.879845 6.67717009 177.997485 6.66327196 178.115184 6.64943222 178.232883 6.63559248 178.350524 6.62169435 178.468223 6.60785461 178.585864 6.59401487 178.703563 6.58023353 178.821262 6.56639379 178.938903 6.55261245 179.056602 6.5388311 179.174242 6.52504976 179.291941 6.51126842 179.40964 6.49748708 179.527281 6.48370573 179.64498 6.46998279 179.762621 6.45620144 179.88032 6.4424785 179.998019 6.42875555 180.115659 6.4150326 180.233358 6.40136805 180.350999 6.3876451 180.468698 6.37398055 180.586397 6.360316 180.704038 6.34659305 180.821737 6.3329869 180.939378 6.31932234 181.057077 6.30565779 181.174776 6.29205164 181.292416 6.27838708 181.410115 6.26478093 181.527756 6.25117477 181.645455 6.23756862 181.763154 6.22402086 181.880795 6.2104147 181.998494 6.19686694 182.116134 6.18326078 182.233834 6.16971302 182.351533 6.15616526 182.469173 6.1426759 182.586872 6.12912814 182.704513 6.11558037 182.822212 6.10209101 182.939911 6.08860164 183.057552 6.07511228 183.175251 6.06162291 183.292891 6.04813355 183.41059 6.03464418 183.528289 6.02121321 183.64593 6.00778224 183.763629 5.99429288 183.88127 5.98086191 183.998969 5.96748934 184.116668 5.95405837 184.234309 5.9406274 184.352008 5.92725482 184.469648 5.91382385 184.587347 5.90045128 184.705046 5.8870787 184.822687 5.87370613 184.940386 5.86039195 185.058027 5.84701938 185.175726 5.8337052 185.293425 5.82039102 185.411065 5.80701845 185.528764 5.79370427 185.646405 5.78044849 185.764104 5.76713431 185.881803 5.75382013 185.999444 5.74056434 186.117143 5.72730856 186.234784 5.71405278 186.352483 5.700797 186.470182 5.68754121 186.587822 5.67428543 186.705521 5.66108804 186.823162 5.64783226 186.940861 5.63463487 187.05856 5.62143748 187.176201 5.6082401 187.2939 5.59504271 187.41154 5.58184532 187.529239 5.56870633 187.646939 5.55550894 187.764579 5.54236995 187.882278 5.52923096 187.999919 5.51609197 188.117618 5.50295297 188.235317 5.48981398 188.352958 5.47673339 188.470657 5.46359439 188.588297 5.4505138 188.705996 5.4374332 188.823695 5.4243526 188.941336 5.41127201 189.059035 5.39824981 189.176734 5.38516921 189.294375 5.37214701 189.412074 5.35906641 189.529715 5.34604421 189.647414 5.33302201 189.765113 5.31999981 189.882753 5.30697761 190.000452 5.2940138 190.118093 5.2809916 190.235792 5.2680278 190.353491 5.25506399 190.471132 5.24210019 190.588831 5.22913638 190.706471 5.21617258 190.82417 5.20320877 190.941869 5.19030336 191.05951 5.17739795 191.177209 5.16443414 191.29485 5.15152873 191.412549 5.13862332 191.530248 5.12571791 191.647889 5.1128709 191.765588 5.09996549 191.883228 5.08711848 192.000927 5.07427146 192.118626 5.06136605 192.236267 5.04851904 192.353966 5.03567202 192.471607 5.0228834 192.589306 5.01003639 192.707005 4.99724777 192.824645 4.98440076 192.942344 4.97161214 193.059985 4.95882352 193.177684 4.9460349 193.295383 4.93324628 193.413024 4.92051606 193.530723 4.90772744 193.648364 4.89499722 193.766063 4.8822086 193.883762 4.86947837 194.001402 4.85674815 194.119101 4.84401793 194.236742 4.8313461 194.354441 4.81861588 194.47214 4.80594405 194.589781 4.79321382 194.70748 4.780542 194.82512 4.76787017 194.94282 4.75519834 195.060519 4.74252651 195.178159 4.72985468 195.295858 4.71724125 195.413499 4.70456942 195.531198 4.69195599 195.648897 4.67934256 195.766538 4.66672913 195.884237 4.6541157 196.001877 4.64150226 196.119576 4.62894723 196.237275 4.61633379 196.354916 4.60377876 196.472615 4.59122372 196.590256 4.57861029 196.707955 4.56605525 196.825654 4.55355861 196.943295 4.54100357 197.060994 4.52844854 197.178634 4.5159519 197.296333 4.50339686 197.414032 4.49090022 197.531673 4.47840358 197.649372 4.46590693 197.767013 4.45341029 197.884712 4.44091365 198.002411 4.42847541 198.120051 4.41597876 198.23775 4.40354052 198.355391 4.39110227 198.47309 4.37866403 198.590789 4.36622578 198.70843 4.35378754 198.826129 4.34134929 198.94377 4.32896944 199.061469 4.31653119 199.179168 4.30415134 199.296808 4.29177149 199.414507 4.27939164 199.532148 4.26701179 199.649847 4.25463194 199.767546 4.24225209 199.885187 4.22993064 200.002886 4.21755079 200.120526 4.20522933 200.238225 4.19290788 200.355925 4.18058642 200.473565 4.16826497 200.591264 4.15594351 200.708905 4.14362206 200.826604 4.1313006 200.944303 4.11903755 201.061944 4.10677449 201.179643 4.09445303 201.297283 4.08218997 201.414982 4.06992691 201.532681 4.05772225 201.650322 4.04545919 201.768021 4.03319613 201.885662 4.02099147 202.003361 4.00872841 202.12106 3.99652374 202.238701 3.98431908 202.3564 3.97211442 202.47404 3.95990975 202.591739 3.94770509 202.709438 3.93555882 202.827079 3.92335416 202.944778 3.91120789 203.062419 3.89906162 203.180118 3.88691535 203.297817 3.87476909 203.415457 3.86262282 203.533156 3.85047655 203.650855 3.83833028 203.768496 3.82624241 203.886195 3.81409614 204.003836 3.80200827 204.121535 3.78992039 204.239234 3.77783252 204.356875 3.76574465 204.474574 3.75365678 204.592214 3.7415689 204.709913 3.72953943 204.827612 3.71745155 204.945253 3.70542208 205.062952 3.6933926 205.180593 3.68136312 205.298292 3.66933365 205.415991 3.65730417 205.533631 3.64527469 205.65133 3.63324521 205.768971 3.62127413 205.88667 3.60924466 206.004369 3.59727357 206.12201 3.58530249 206.239709 3.57333141 206.35735 3.56136033 206.475049 3.54938925 206.592748 3.53741817 206.710388 3.52550548 206.828087 3.5135344 206.945728 3.50162171 207.063427 3.48970903 207.181126 3.47779634 207.298767 3.46588365 207.416466 3.45397097 207.534106 3.44205828 207.651806 3.4301456 207.769505 3.41829131 207.887145 3.40637862 208.004844 3.39452433 208.122485 3.38267004 208.240184 3.37081575 208.357883 3.35896146 208.475524 3.34710717 208.593223 3.33525288 208.710863 3.32345698 208.828562 3.31160269 208.946261 3.2998068 209.063902 3.2880109 209.181601 3.27615661 209.299242 3.26436071 209.416941 3.25262322 209.53464 3.24082732 209.652281 3.22903143 209.76998 3.21723553 209.88762 3.20549803 210.005319 3.19376053 210.123018 3.18196464 210.240659 3.17022714 210.358358 3.15848964 210.475999 3.14675214 210.593698 3.13501464 210.711397 3.12333553 210.829037 3.11159803 210.946736 3.09991893 211.064377 3.08818143 211.182076 3.07650233 211.299775 3.06482322 211.417416 3.05314412 211.535115 3.04146502 211.652756 3.02978591 211.770455 3.0181652 211.888154 3.0064861 212.005794 2.99486539 212.123493 2.98318629 212.241134 2.97156558 212.358833 2.95994487 212.476532 2.94832416 212.594173 2.93670345 212.711872 2.92508274 212.829512 2.91346204 212.947211 2.90189972 213.064911 2.89027901 213.182551 2.8787167 213.30025 2.86715439 213.417891 2.85559207 213.53559 2.84402976 213.653289 2.83246745 213.77093 2.82090514 213.888629 2.80934282 214.006269 2.79783891 214.123968 2.78627659 214.241667 2.77477268 214.359308 2.76326876 214.477007 2.75170644 214.594648 2.74020253 214.712347 2.72869861 214.830046 2.71725309 214.947687 2.70574917 215.065386 2.69424525 215.183026 2.68279973 215.300725 2.67129581 215.418424 2.65985029 215.536065 2.64840477 215.653764 2.63695925 215.771405 2.62551373 215.889104 2.6140682 216.006803 2.60262268 216.124443 2.59117716 216.242142 2.57979003 216.359783 2.56834451 216.477482 2.55695739 216.595181 2.54557026 216.712822 2.53418313 216.830521 2.52279601 216.948162 2.51140888 217.065861 2.50002175 217.18356 2.48863463 217.3012 2.4773059 217.418899 2.46591877 217.53654 2.45459004 217.654239 2.44326131 217.771938 2.43187418 217.889579 2.42054545 218.007278 2.40921672 218.124918 2.39794638 218.242617 2.38661765 218.360316 2.37528892 218.477957 2.36401859 218.595656 2.35268986 218.713297 2.34141952 218.830996 2.33014919 218.948695 2.31887885 219.066336 2.30760852 219.184035 2.29633818 219.301734 2.28506784 219.419374 2.27379751 219.537073 2.26252717 219.654714 2.25131523 219.772413 2.24010329 219.890112 2.22883296 220.007753 2.21762102 220.125452 2.20640908 220.243092 2.19519714 220.360792 2.1839852 220.478491 2.17277326 220.596131 2.16161972 220.71383 2.15040778 220.831471 2.13925423 220.94917 2.12804229 221.066869 2.11688875 221.18451 2.1057352 221.302209 2.09458166 221.419849 2.08342811 221.537548 2.07227457 221.655247 2.06112103 221.772888 2.05002588 221.890587 2.03887233 222.008228 2.02771879 222.125927 2.01662364 222.243626 2.00552849 222.361267 1.99443334 222.478966 1.98333819 222.596606 1.97224304 222.714305 1.9611479 222.832004 1.95005275 222.949645 1.9389576 223.067344 1.92792084 223.184985 1.9168257 223.302684 1.90578894 223.420383 1.89475219 223.538023 1.88371544 223.655722 1.87267868 223.773363 1.86164193 223.891062 1.85060518 224.008761 1.83956842 224.126402 1.82853167 224.244101 1.81755331 224.361742 1.80651656 224.479441 1.7955382 224.59714 1.78455984 224.71478 1.77358148 224.832479 1.76260313 224.95012 1.75162477 225.067819 1.74064641 225.185518 1.72966805 225.303159 1.7186897 225.420858 1.70776973 225.538498 1.69679138 225.656197 1.68587141 225.773897 1.67495145 225.891537 1.66397309 226.009236 1.65305313 226.126877 1.64213317 226.244576 1.6312716 226.362275 1.62035164 226.479916 1.60943168 226.597615 1.59851172 226.715255 1.58765015 226.832954 1.57678858 226.950653 1.56586862 227.068294 1.55500705 227.185993 1.54414549 227.303634 1.53328392 227.421333 1.52242235 227.539032 1.51156079 227.656673 1.50069922 227.774372 1.48989605 227.892012 1.47903448 228.009711 1.46823131 228.12741 1.45736974 228.245051 1.44656657 228.36275 1.4357634 228.480391 1.42496023 228.59809 1.41415706 228.715789 1.40335389 228.833429 1.39255072 228.951128 1.38180594 229.068769 1.37100277 229.186468 1.36025799 229.304167 1.34945482 229.421808 1.33871005 229.539507 1.32796527 229.657148 1.3172205 229.774847 1.30647572 229.892546 1.29573094 230.010186 1.28498617 230.127885 1.27424139 230.245526 1.26355501 230.363225 1.25281024 230.480924 1.24212386 230.598565 1.23137908 230.716264 1.2206927 230.833904 1.21000632 230.951603 1.19931994 231.069302 1.18863356 231.186943 1.17794718 231.304642 1.1672608 231.422283 1.15657442 231.539982 1.14594644 231.657681 1.13526006 231.775322 1.12463207 231.893021 1.11400409 232.010661 1.10331771 232.12836 1.09268972 232.246059 1.08206174 232.3637 1.07143375 232.481399 1.06080577 232.59904 1.05023618 232.716739 1.03960819 232.834438 1.02898021 232.952078 1.01841062 233.069778 1.00778264 233.187418 0.997213046 233.305117 0.986643457 233.422816 0.976073868 233.540457 0.965504279 233.658156 0.95493469 233.775855 0.944365101 233.893496 0.933795512 234.011195 0.923225923 234.128835 0.912714729 234.246534 0.90214514 234.364233 0.891633946 234.481874 0.881122753 234.599573 0.870553164 234.717214 0.86004197 234.834913 0.849530776 234.952612 0.839019583 235.070253 0.828508389 235.187952 0.818055591 235.305592 0.807544397 235.423291 0.797033204 235.54099 0.786580406 235.658631 0.776127608 235.77633 0.765616414 235.893971 0.755163616 236.01167 0.744710818 236.129369 0.73425802 236.247009 0.723805222 236.364708 0.713352424 236.482349 0.702899626 236.600048 0.692446828 236.717747 0.682052425 236.835388 0.671599627 236.953087 0.661205224 237.070728 0.650810822 237.188427 0.640358024 237.306126 0.629963621 237.423766 0.619569219 237.541465 0.609174816 237.659106 0.598780413 237.776805 0.588386011 237.894504 0.578050004 238.012145 0.567655601 238.129844 0.557319594 238.247484 0.546925192 238.365183 0.536589185 238.482883 0.526194782 238.600523 0.515858775 238.718222 0.505522768 238.835863 0.495186761 238.953562 0.484850754 239.071261 0.474514747 239.188902 0.464237135 239.306601 0.453901128 239.424241 0.443565121 239.54194 0.43328751 239.659639 0.422951503 239.77728 0.412673891 239.894979 0.40239628 240.01262 0.392118668 240.130319 0.381841057 240.248018 0.371563445 240.365659 0.361285834 240.483358 0.351008222 240.600998 0.340730611 240.718697 0.330511395 240.836396 0.320233783 240.954037 0.310014567 241.071736 0.299736956 241.189377 0.28951774 241.307076 0.279298524"></polyline>
            </g>
            <g id="Group-25" transform="translate(0.000000, 0.706100)">
                <mask id="mask-6" fill="white">
                    <use xlink:href="#path-5"></use>
                </mask>
                <g id="Clip-21"></g>
                <polygon id="Fill-20" fill="#FFFFFF" mask="url(#mask-6)" points="0.3070831 313.493851 0.8906182 313.493851 0.8906182 0.4938507 0.3070831 0.4938507"></polygon>
                <polygon id="Fill-22" fill="#FFFFFF" mask="url(#mask-6)" points="481.7235 313.493851 482.307035 313.493851 482.307035 0.4938507 481.7235 0.4938507"></polygon>
                <polygon id="Fill-23" fill="#FFFFFF" mask="url(#mask-6)" points="0.3070831 1.0778 482.307083 1.0778 482.307083 0.4938448 0.3070831 0.4938448"></polygon>
                <polygon id="Fill-24" fill="#FFFFFF" mask="url(#mask-6)" points="0.3070831 313.493851 482.307083 313.493851 482.307083 312.909896 0.3070831 312.909896"></polygon>
            </g>
        </g>
    </g>
</svg>