<?xml version="1.0" encoding="UTF-8"?>
<svg width="482px" height="313px" viewBox="0 0 482 313" version="1.1" xmlns="http://www.w3.org/2000/svg" xmlns:xlink="http://www.w3.org/1999/xlink">
    <!-- Generator: Sketch 48.1 (47250) - http://www.bohemiancoding.com/sketch -->
    <title>Page 1</title>
    <desc>Created with Sketch.</desc>
    <defs>
        <polygon id="path-1" points="0.3070831 0.6938477 481.894183 0.6938477 481.894183 312.693848 0.3070831 312.693848"></polygon>
        <polygon id="path-3" points="0.3070794 0.311054212 240.8942 0.311054212 240.8942 233.693848 0.3070794 233.693848"></polygon>
        <polygon id="path-5" points="0.3070831 0.6938477 481.894183 0.6938477 481.894183 312.693848 0.3070831 312.693848"></polygon>
    </defs>
    <g id="Page-1" stroke="none" stroke-width="1" fill="none" fill-rule="evenodd">
        <g transform="translate(0.000000, -1.000000)">
            <g id="Group-16" transform="translate(0.000000, 0.706100)">
                <mask id="mask-2" fill="white">
                    <use xlink:href="#path-1"></use>
                </mask>
                <g id="Clip-2"></g>
                <polygon id="Fill-1" fill="#FFFFFF" mask="url(#mask-2)" points="0.3070831 312.693848 482.307083 312.693848 482.307083 0.6938477 0.3070831 0.6938477"></polygon>
                <path d="M0.3070831,288.915465 L482.307076,288.915465 M0.3070831,276.895315 L482.307076,276.895315 M0.3070831,264.875165 L482.307076,264.875165 M0.3070831,240.834864 L482.307076,240.834864 M0.3070831,228.814714 L482.307076,228.814714 M0.3070831,216.794564 L482.307076,216.794564 M0.3070831,192.754264 L482.307076,192.754264 M0.3070831,180.734113 L482.307076,180.734113 M0.3070831,168.713963 L482.307076,168.713963 M0.3070831,144.673663 L482.307076,144.673663 M0.3070831,132.653512 L482.307076,132.653512 M0.3070831,120.633362 L482.307076,120.633362 M0.3070831,96.5930616 L482.307076,96.5930616 M0.3070831,84.5729114 L482.307076,84.5729114 M0.3070831,72.5527611 L482.307076,72.5527611 M0.3070831,48.5124606 L482.307076,48.5124606 M0.3070831,36.4923104 L482.307076,36.4923104 M0.3070831,24.4721602 L482.307076,24.4721602 M12.3570829,312.693826 L12.3570829,0.6938 M24.4070827,312.693826 L24.4070827,0.6938 M36.4570825,312.693826 L36.4570825,0.6938 M60.5570822,312.693826 L60.5570822,0.6938 M72.607082,312.693826 L72.607082,0.6938 M84.6570818,312.693826 L84.6570818,0.6938 M108.757081,312.693826 L108.757081,0.6938 M120.807081,312.693826 L120.807081,0.6938 M132.857081,312.693826 L132.857081,0.6938 M156.957081,312.693826 L156.957081,0.6938 M169.007081,312.693826 L169.007081,0.6938 M181.05708,312.693826 L181.05708,0.6938 M205.15708,312.693826 L205.15708,0.6938 M217.20708,312.693826 L217.20708,0.6938 M229.25708,312.693826 L229.25708,0.6938 M253.357079,312.693826 L253.357079,0.6938 M265.407079,312.693826 L265.407079,0.6938 M277.457079,312.693826 L277.457079,0.6938 M301.557078,312.693826 L301.557078,0.6938 M313.607078,312.693826 L313.607078,0.6938 M325.657078,312.693826 L325.657078,0.6938 M349.757078,312.693826 L349.757078,0.6938 M361.807078,312.693826 L361.807078,0.6938 M373.857077,312.693826 L373.857077,0.6938 M397.957077,312.693826 L397.957077,0.6938 M410.007077,312.693826 L410.007077,0.6938 M422.057077,312.693826 L422.057077,0.6938 M446.157076,312.693826 L446.157076,0.6938 M458.207076,312.693826 L458.207076,0.6938 M470.257076,312.693826 L470.257076,0.6938" id="Stroke-3" stroke="#929292" stroke-width="0.2" mask="url(#mask-2)"></path>
                <path d="M0.3070831,300.935616 L482.307076,300.935616 M0.3070831,252.855015 L482.307076,252.855015 M0.3070831,204.774414 L482.307076,204.774414 M0.3070831,156.693813 L482.307076,156.693813 M0.3070831,108.613212 L482.307076,108.613212 M0.3070831,60.5326109 L482.307076,60.5326109 M0.3070831,12.4520099 L482.307076,12.4520099 M0.3070831,312.693826 L0.3070831,0.6938 M48.5070824,312.693826 L48.5070824,0.6938 M96.7070816,312.693826 L96.7070816,0.6938 M144.907081,312.693826 L144.907081,0.6938 M193.10708,312.693826 L193.10708,0.6938 M241.307079,312.693826 L241.307079,0.6938 M289.507079,312.693826 L289.507079,0.6938 M337.707078,312.693826 L337.707078,0.6938 M385.907077,312.693826 L385.907077,0.6938 M434.107076,312.693826 L434.107076,0.6938 M482.307076,312.693826 L482.307076,0.6938" id="Stroke-4" stroke="#000000" stroke-width="0.3" mask="url(#mask-2)"></path>
                <polygon id="Fill-5" fill="#000000" mask="url(#mask-2)" points="482.3071 156.6938 476.4717 153.7834 478.2223 156.6938 476.4717 159.6043"></polygon>
                <path d="M0.3070831,156.693813 L482.307083,156.693813" id="Stroke-6" stroke="#000000" stroke-width="1.5" mask="url(#mask-2)"></path>
                <text id="-5" mask="url(#mask-2)" font-family="Helvetica" font-size="6.9850752" font-weight="normal" fill="#000000">
                    <tspan x="-3.1941275" y="165.839028">-5</tspan>
                </text>
                <text id="-4" mask="url(#mask-2)" font-family="Helvetica" font-size="6.9850752" font-weight="normal" fill="#000000">
                    <tspan x="45.0058694" y="165.839028">-4</tspan>
                </text>
                <text id="-3" mask="url(#mask-2)" font-family="Helvetica" font-size="6.9850752" font-weight="normal" fill="#000000">
                    <tspan x="93.2058694" y="165.839028">-3</tspan>
                </text>
                <text id="-2" mask="url(#mask-2)" font-family="Helvetica" font-size="6.9850752" font-weight="normal" fill="#000000">
                    <tspan x="141.405889" y="165.839028">-2</tspan>
                </text>
                <text id="-1" mask="url(#mask-2)" font-family="Helvetica" font-size="6.9850752" font-weight="normal" fill="#000000">
                    <tspan x="189.605889" y="165.839028">-1</tspan>
                </text>
                <text id="0" mask="url(#mask-2)" font-family="Helvetica" font-size="6.9850752" font-weight="normal" fill="#000000">
                    <tspan x="231.44346" y="165.839028">0</tspan>
                </text>
                <text id="1" mask="url(#mask-2)" font-family="Helvetica" font-size="6.9850752" font-weight="normal" fill="#000000">
                    <tspan x="287.17296" y="165.839028">1</tspan>
                </text>
                <text id="2" mask="url(#mask-2)" font-family="Helvetica" font-size="6.9850752" font-weight="normal" fill="#000000">
                    <tspan x="335.37296" y="165.839028">2</tspan>
                </text>
                <text id="3" mask="url(#mask-2)" font-family="Helvetica" font-size="6.9850752" font-weight="normal" fill="#000000">
                    <tspan x="383.57296" y="165.839028">3</tspan>
                </text>
                <text id="4" mask="url(#mask-2)" font-family="Helvetica" font-size="6.9850752" font-weight="normal" fill="#000000">
                    <tspan x="431.77296" y="165.839028">4</tspan>
                </text>
                <text id="5" mask="url(#mask-2)" font-family="Helvetica" font-size="6.9850752" font-weight="normal" fill="#000000">
                    <tspan x="479.97296" y="165.839028">5</tspan>
                </text>
                <path d="M12.3570829,157.857992 L12.3570829,155.529634 M24.4070827,157.857992 L24.4070827,155.529634 M36.4570825,157.857992 L36.4570825,155.529634 M60.5570822,157.857992 L60.5570822,155.529634 M72.607082,157.857992 L72.607082,155.529634 M84.6570818,157.857992 L84.6570818,155.529634 M108.757081,157.857992 L108.757081,155.529634 M120.807081,157.857992 L120.807081,155.529634 M132.857081,157.857992 L132.857081,155.529634 M156.957081,157.857992 L156.957081,155.529634 M169.007081,157.857992 L169.007081,155.529634 M181.05708,157.857992 L181.05708,155.529634 M205.15708,157.857992 L205.15708,155.529634 M217.20708,157.857992 L217.20708,155.529634 M229.25708,157.857992 L229.25708,155.529634 M253.357079,157.857992 L253.357079,155.529634 M265.407079,157.857992 L265.407079,155.529634 M277.457079,157.857992 L277.457079,155.529634 M301.557078,157.857992 L301.557078,155.529634 M313.607078,157.857992 L313.607078,155.529634 M325.657078,157.857992 L325.657078,155.529634 M349.757078,157.857992 L349.757078,155.529634 M361.807078,157.857992 L361.807078,155.529634 M373.857077,157.857992 L373.857077,155.529634 M397.957077,157.857992 L397.957077,155.529634 M410.007077,157.857992 L410.007077,155.529634 M422.057077,157.857992 L422.057077,155.529634 M446.157076,157.857992 L446.157076,155.529634 M458.207076,157.857992 L458.207076,155.529634 M470.257076,157.857992 L470.257076,155.529634" id="Stroke-7" stroke="#000000" stroke-width="1.5" mask="url(#mask-2)"></path>
                <path d="M48.5070824,159.022171 L48.5070824,154.365454 M96.7070816,159.022171 L96.7070816,154.365454 M144.907081,159.022171 L144.907081,154.365454 M193.10708,159.022171 L193.10708,154.365454 M241.307079,159.022171 L241.307079,154.365454 M289.507079,159.022171 L289.507079,154.365454 M337.707078,159.022171 L337.707078,154.365454 M385.907077,159.022171 L385.907077,154.365454 M434.107076,159.022171 L434.107076,154.365454" id="Stroke-8" stroke="#000000" stroke-width="1.5" mask="url(#mask-2)"></path>
                <path d="M324.4142,175.4579 C324.4142,175.3249 324.4552,175.2303 324.5373,175.174 C324.6193,175.1177 324.7031,175.0896 324.7885,175.0896 C324.8296,175.0896 324.8706,175.0955 324.9117,175.1074 C324.9527,175.1194 324.9971,175.139 325.045,175.1663 L325.2245,175.2635 C325.2484,175.2771 325.2715,175.2865 325.2937,175.2916 C325.3159,175.2967 325.3407,175.2993 325.3681,175.2993 C325.4536,175.2993 325.5194,175.278 325.5656,175.2354 C325.6117,175.1927 325.7306,175.0435 325.922,174.7877 C326.0485,174.6206 326.3357,174.213 326.7837,173.565 C326.7837,173.5411 326.7443,173.3578 326.6657,173.015 C326.587,172.6722 326.5152,172.3815 326.4503,172.1427 C326.3853,171.9005 326.3272,171.7411 326.2759,171.6644 C326.2246,171.5877 326.1289,171.5492 325.9887,171.5492 C325.9408,171.5492 325.8468,171.5663 325.7066,171.6004 C325.6177,171.6209 325.522,171.6448 325.4194,171.6721 L325.3733,171.5134 L325.9425,171.319 C326.0895,171.2679 326.2254,171.2269 326.3503,171.1963 C326.4751,171.1656 326.5819,171.1502 326.6708,171.1502 C326.8144,171.1502 326.9221,171.1928 326.9939,171.2781 C327.1033,171.4145 327.1956,171.684 327.2708,172.0864 L327.3786,172.6696 C327.6863,172.199 327.9256,171.8682 328.0966,171.6772 C328.2504,171.5032 328.3958,171.3736 328.5325,171.2883 C328.6693,171.2031 328.7992,171.1605 328.9223,171.1605 C329.0386,171.1605 329.1326,171.1775 329.2044,171.2116 C329.3343,171.273 329.3993,171.3889 329.3993,171.5595 C329.3993,171.6754 329.3668,171.7658 329.3018,171.8306 C329.2369,171.8955 329.1531,171.9278 329.0505,171.9278 C329.0129,171.9278 328.977,171.9236 328.9429,171.9151 C328.9087,171.9065 328.8727,171.8937 328.8351,171.8767 L328.7018,171.8204 C328.6642,171.8034 328.6283,171.7889 328.5941,171.7769 C328.5599,171.765 328.5343,171.759 328.5172,171.759 C328.3633,171.759 328.1496,171.9577 327.876,172.355 C327.6025,172.7524 327.4658,172.9818 327.4658,173.0431 C327.4658,173.0943 327.4974,173.2606 327.5606,173.542 C327.6239,173.8233 327.6932,174.1209 327.7684,174.4347 C327.8367,174.7314 327.8949,174.9361 327.9427,175.0486 C328.0214,175.2328 328.1103,175.3249 328.2094,175.3249 C328.3017,175.3249 328.3958,175.2737 328.4915,175.1714 C328.5872,175.0691 328.7309,174.8849 328.9223,174.6189 L329.0659,174.7059 C328.9189,174.9719 328.7667,175.1987 328.6095,175.3863 C328.312,175.741 328.0282,175.9183 327.7581,175.9183 C327.5871,175.9183 327.4521,175.8365 327.3529,175.6728 C327.2948,175.5773 327.2384,175.4204 327.1837,175.2021 L326.8657,173.9384 L325.8143,175.3147 C325.6092,175.5534 325.451,175.7137 325.3399,175.7956 C325.2288,175.8774 325.0912,175.9183 324.927,175.9183 C324.7082,175.9183 324.5595,175.8501 324.4809,175.7137 C324.4364,175.6421 324.4142,175.5568 324.4142,175.4579 Z" id="Fill-9" fill="#000000" mask="url(#mask-2)"></path>
                <polygon id="Fill-10" fill="#000000" mask="url(#mask-2)" points="241.3071 0.6938 238.3894 6.5147 241.3071 4.7685 244.2248 6.5147"></polygon>
                <path d="M241.307079,312.693826 L241.307079,0.6938" id="Stroke-11" stroke="#000000" stroke-width="1.5" mask="url(#mask-2)"></path>
                <text id="-3" mask="url(#mask-2)" font-family="Helvetica" font-size="6.9850752" font-weight="normal" fill="#000000">
                    <tspan x="230.276389" y="303.508818">-3</tspan>
                </text>
                <text id="-2" mask="url(#mask-2)" font-family="Helvetica" font-size="6.9850752" font-weight="normal" fill="#000000">
                    <tspan x="230.276389" y="255.428218">-2</tspan>
                </text>
                <text id="-1" mask="url(#mask-2)" font-family="Helvetica" font-size="6.9850752" font-weight="normal" fill="#000000">
                    <tspan x="230.276389" y="207.347628">-1</tspan>
                </text>
                <text id="1" mask="url(#mask-2)" font-family="Helvetica" font-size="6.9850752" font-weight="normal" fill="#000000">
                    <tspan x="231.44346" y="111.186428">1</tspan>
                </text>
                <text id="2" mask="url(#mask-2)" font-family="Helvetica" font-size="6.9850752" font-weight="normal" fill="#000000">
                    <tspan x="231.44346" y="63.105828">2</tspan>
                </text>
                <text id="3" mask="url(#mask-2)" font-family="Helvetica" font-size="6.9850752" font-weight="normal" fill="#000000">
                    <tspan x="231.44346" y="15.025228">3</tspan>
                </text>
                <path d="M240.140009,288.915465 L242.47415,288.915465 M240.140009,276.895315 L242.47415,276.895315 M240.140009,264.875165 L242.47415,264.875165 M240.140009,240.834864 L242.47415,240.834864 M240.140009,228.814714 L242.47415,228.814714 M240.140009,216.794564 L242.47415,216.794564 M240.140009,192.754264 L242.47415,192.754264 M240.140009,180.734113 L242.47415,180.734113 M240.140009,168.713963 L242.47415,168.713963 M240.140009,144.673663 L242.47415,144.673663 M240.140009,132.653512 L242.47415,132.653512 M240.140009,120.633362 L242.47415,120.633362 M240.140009,96.5930616 L242.47415,96.5930616 M240.140009,84.5729114 L242.47415,84.5729114 M240.140009,72.5527611 L242.47415,72.5527611 M240.140009,48.5124606 L242.47415,48.5124606 M240.140009,36.4923104 L242.47415,36.4923104 M240.140009,24.4721602 L242.47415,24.4721602" id="Stroke-12" stroke="#000000" stroke-width="1.5" mask="url(#mask-2)"></path>
                <path d="M238.972939,300.935616 L243.64122,300.935616 M238.972939,252.855015 L243.64122,252.855015 M238.972939,204.774414 L243.64122,204.774414 M238.972939,156.693813 L243.64122,156.693813 M238.972939,108.613212 L243.64122,108.613212 M238.972939,60.5326109 L243.64122,60.5326109 M238.972939,12.4520099 L243.64122,12.4520099" id="Stroke-13" stroke="#000000" stroke-width="1.5" mask="url(#mask-2)"></path>
                <path d="M219.1327,91.3096 C219.1327,91.2005 219.1669,91.1067 219.2353,91.0283 C219.3037,90.9498 219.4029,90.9106 219.5328,90.9106 C219.6183,90.9106 219.6935,90.9268 219.7585,90.9592 C219.8234,90.9916 219.8918,91.0385 219.9636,91.0999 L220.0354,91.151 C220.0559,91.1681 220.079,91.1809 220.1046,91.1894 C220.1303,91.1979 220.1585,91.2022 220.1892,91.2022 C220.3568,91.2022 220.6261,90.9814 220.997,90.5397 C221.368,90.098 221.5535,89.7765 221.5535,89.5753 C221.5535,89.3843 221.4894,89.0092 221.3612,88.4498 C221.233,87.8905 221.109,87.3925 220.9893,86.9559 C220.8218,86.342 220.6688,85.9259 220.5303,85.7076 C220.3918,85.4893 220.1875,85.3802 219.9174,85.3802 C219.8969,85.3802 219.8619,85.3828 219.8123,85.3879 C219.7627,85.393 219.6781,85.4024 219.5584,85.416 L219.5584,85.2472 L220.9586,84.9811 L221.0663,84.9709 C221.1518,84.9607 221.3159,85.3443 221.5586,86.122 C221.7774,86.8212 221.9142,87.3294 221.969,87.6466 L222.1741,88.8642 C222.5331,88.2639 222.7964,87.8035 222.9639,87.4829 C223.2921,86.8519 223.4563,86.4102 223.4563,86.1578 C223.4563,86.0998 223.446,86.0427 223.4255,85.9864 C223.405,85.9302 223.3571,85.8815 223.2819,85.8406 L223.1947,85.7946 C223.14,85.7673 223.0759,85.7161 223.0024,85.6411 C222.9289,85.5661 222.8921,85.4655 222.8921,85.3393 C222.8921,85.2335 222.9263,85.1449 222.9947,85.0732 C223.0631,85.0016 223.1656,84.9658 223.3024,84.9658 C223.4734,84.9658 223.6118,85.0161 223.7178,85.1167 C223.8238,85.2173 223.8768,85.3887 223.8768,85.6308 C223.8768,85.9958 223.6768,86.5824 223.2768,87.3908 C222.969,88.0081 222.6254,88.6067 222.2459,89.1865 C221.7706,89.9095 221.362,90.4672 221.0201,90.8595 C220.4765,91.4768 220.0251,91.7854 219.6662,91.7854 C219.5259,91.7854 219.402,91.7428 219.2943,91.6576 C219.1866,91.5723 219.1327,91.4563 219.1327,91.3096 Z" id="Fill-14" fill="#000000" mask="url(#mask-2)"></path>
                <polygon id="Stroke-15" stroke="#000000" mask="url(#mask-2)" points="0.01531555 0.4027552 482.598843 0.4027552 482.598843 312.98487 0.01531555 312.98487"></polygon>
            </g>
            <g id="Group-19" transform="translate(241.000000, 79.706100)">
                <mask id="mask-4" fill="white">
                    <use xlink:href="#path-3"></use>
                </mask>
                <g id="Clip-18"></g>
                <polyline id="Stroke-17" stroke="#000000" mask="url(#mask-4)" points="0.3070794 1400.04247 0.365899738 400.234259 0.42477843 366.907359 0.483598768 347.412305 0.542419106 333.580401 0.601297797 322.8515 0.660118135 314.085405 0.718938474 306.673717 0.777758812 300.253443 0.836637503 294.59041 0.895457841 289.5246 0.954278179 284.942042 1.01315687 280.758447 1.07197721 276.909962 1.13079755 273.346817 1.18967624 270.029605 1.24849658 266.926543 1.30731691 264.011671 1.36613725 261.263452 1.42501594 258.663898 1.48383628 256.197642 1.54265662 253.851821 1.60153531 251.615084 1.66035565 249.477825 1.71917599 247.431548 1.77805468 245.4688 1.83687502 243.583004 1.89569536 241.768456 1.95451569 240.019859 2.01339439 238.332672 2.07221472 236.702647 2.13103506 235.126115 2.18991375 233.599585 2.24873409 232.120088 2.30755443 230.684713 2.36643312 229.291016 2.42525346 227.936494 2.4840738 226.619167 2.54289414 225.33694 2.60177283 224.088008 2.66059317 222.870743 2.7194135 221.683513 2.77829219 220.524863 2.83711253 219.393514 2.89593287 218.288184 2.95481156 217.207651 3.0136319 216.150867 3.07245224 215.116843 3.13127258 214.10459 3.19015127 213.113233 3.24897161 212.141842 3.30779194 211.189718 3.36667064 210.256104 3.42549097 209.340244 3.48431131 208.441498 3.54319 207.559283 3.60201034 206.692959 3.66083068 205.841944 3.71965102 205.005714 3.77852971 204.183804 3.83735005 203.375747 3.89617039 202.580962 3.95504908 201.799157 4.01386942 201.029868 4.07268975 200.272686 4.13156845 199.527203 4.19038878 198.79313 4.24920912 198.070117 4.30802946 197.357814 4.36690815 196.655872 4.42572849 195.964058 4.48454883 195.282082 4.54342752 194.609594 4.60224786 193.946419 4.6610682 193.292209 4.71994689 192.646846 4.77876722 192.009982 4.83758756 191.3815 4.8964079 190.761109 4.95528659 190.148576 5.01410693 189.543785 5.07292727 188.946503 5.13180596 188.356555 5.1906263 187.773767 5.24944664 187.197905 5.30832533 186.628913 5.36714567 186.066556 5.425966 185.510719 5.48478634 184.961226 5.54366503 184.417904 5.60248537 183.880693 5.66130571 183.34942 5.7201844 182.823968 5.77900474 182.304162 5.83782508 181.789944 5.89670377 181.281139 5.95552411 180.77769 6.01434445 180.279421 6.07316478 179.786275 6.13204348 179.298135 6.19086381 178.814942 6.24968415 178.336523 6.30856284 177.862818 6.36738318 177.393712 6.42620352 176.929146 6.48508221 176.469063 6.54390255 176.013287 6.60272289 175.561876 6.66154322 175.114598 6.72042192 174.671454 6.77924225 174.232325 6.83806259 173.797213 6.89694128 173.366001 6.95576162 172.938631 7.01458196 172.514986 7.07346065 172.095067 7.13228099 171.678815 7.19110133 171.266055 7.24992167 170.856904 7.30880036 170.451129 7.3676207 170.048789 7.42644103 169.649767 7.48531973 169.254062 7.54414006 168.861559 7.6029604 168.472258 7.66183909 168.086041 7.72065943 167.70291 7.77947977 167.322863 7.83830011 166.945728 7.8971788 166.57156 7.95599914 166.200304 8.01481948 165.831841 8.07369817 165.46623 8.13251851 165.103356 8.19133884 164.743159 8.25021753 164.385698 8.30903787 164.030856 8.36785821 163.678633 8.4267369 163.328972 8.48555724 162.981814 8.54437758 162.6371 8.60319792 162.29489 8.66207661 161.955124 8.72089695 161.617687 8.77971728 161.282636 8.83859598 160.949914 8.89741631 160.619461 8.95623665 160.291279 9.01511534 159.965309 9.07393568 159.641493 9.13275602 159.319888 9.19157636 159.000437 9.25045505 158.683082 9.30927539 158.367764 9.36809573 158.054542 9.42697442 157.743357 9.48579476 157.434151 9.54461509 157.126924 9.60349379 156.821676 9.66231412 156.518291 9.72113446 156.216885 9.7799548 155.917283 9.83883349 155.619603 9.89765383 155.323668 9.95647417 155.029597 10.0153529 154.73733 10.0741732 154.446809 10.1329935 154.158034 10.1918722 153.871006 10.2506926 153.585665 10.3095129 153.302013 10.3683332 153.019991 10.4272119 152.739656 10.4860323 152.460894 10.5448526 152.183761 10.6037313 151.908258 10.6625516 151.634268 10.721372 151.36185 10.7802507 151.091004 10.839071 150.821613 10.8978913 150.553793 10.9567117 150.287429 11.0155904 150.02252 11.0744107 149.759066 11.133231 149.49701 11.1921097 149.236408 11.2509301 148.977204 11.3097504 148.719396 11.3686291 148.462986 11.4274494 148.207914 11.4862698 147.954181 11.5450901 147.701787 11.6039688 147.450732 11.6627892 147.200957 11.7216095 146.952463 11.7804882 146.705308 11.8393085 146.459317 11.8981289 146.214665 11.9570076 145.971235 12.0158279 145.728969 12.0746482 145.487984 12.1334686 145.248163 12.1923473 145.009565 12.3099879 144.53586 12.427687 144.066754 12.545386 143.602247 12.6630267 143.142105 12.7807257 142.686387 12.8983664 142.234918 13.0160654 141.78764 13.1337644 141.344496 13.2514051 140.905425 13.3691041 140.470313 13.4867448 140.039043 13.6044438 139.611673 13.7221429 139.188087 13.8397836 138.768167 13.9574826 138.351857 14.0751233 137.939155 14.1928223 137.529946 14.3105213 137.12423 14.428162 136.721831 14.545861 136.322867 14.6635017 135.927104 14.7812007 135.534601 14.8988998 135.1453 15.0165404 134.759083 15.1342395 134.37601 15.2518801 133.995905 15.3695792 133.618828 15.4872782 133.244661 15.6049189 132.873346 15.7226179 132.504941 15.8402586 132.139272 15.9579576 131.776398 16.0756566 131.416259 16.1932973 131.058798 16.3109963 130.703956 16.428637 130.351675 16.5463361 130.002014 16.6640351 129.654856 16.7816758 129.310201 16.8993748 128.96799 17.0170155 128.628166 17.1347145 128.290787 17.2524135 127.955736 17.3700542 127.622956 17.4877532 127.292503 17.6053939 126.964321 17.7230929 126.638351 17.840792 126.314593 17.9584326 125.992988 18.0761317 125.673479 18.1937723 125.356124 18.3114714 125.040864 18.4291704 124.727642 18.5468111 124.416399 18.6645101 124.107251 18.7821508 123.800024 18.8998498 123.494718 19.0175488 123.191391 19.1351895 122.889927 19.2528886 122.590384 19.3705292 122.292645 19.4882283 121.996769 19.6059273 121.702697 19.723568 121.41043 19.841267 121.119909 19.9589077 120.831134 20.0766067 120.544048 20.1943057 120.258707 20.3119464 119.975055 20.4296454 119.693033 20.5472861 119.412698 20.6649851 119.133994 20.7826842 118.856861 20.9003248 118.5813 21.0180239 118.307368 21.1356646 118.03495 21.2533636 117.764046 21.3710626 117.494713 21.4887033 117.226835 21.6064023 116.960471 21.724043 116.695562 21.841742 116.432109 21.9594411 116.17011 22.0770817 115.909508 22.1947808 115.650304 22.3124214 115.392496 22.4301205 115.136086 22.5478195 114.881014 22.6654602 114.627282 22.7831592 114.374887 22.9008582 114.123774 23.0184989 113.873999 23.1361979 113.625564 23.2538386 113.37835 23.3715376 113.132417 23.4892367 112.887707 23.6068773 112.644277 23.7245764 112.402069 23.8422171 112.161026 23.9599161 111.921263 24.0776151 111.682607 24.1952558 111.445172 24.3129548 111.208902 24.4305955 110.973796 24.5482945 110.739854 24.6659936 110.507018 24.7836342 110.275289 24.9013333 110.044665 25.0189739 109.815205 25.136673 109.586793 25.254372 109.359429 25.3720127 109.133171 25.4897117 108.90796 25.6073524 108.683856 25.7250514 108.460741 25.8427504 108.238615 25.9603911 108.017596 26.0780901 107.797508 26.1957308 107.578467 26.3134298 107.360417 26.4311289 107.143356 26.5487696 106.927284 26.6664686 106.712144 26.7841093 106.497993 26.9018083 106.284773 27.0195073 106.072485 27.137148 105.861129 27.254847 105.650703 27.3724877 105.441209 27.4901867 105.232646 27.6078858 105.024899 27.7255264 104.81814 27.8432255 104.612197 27.9608661 104.407185 28.0785652 104.202988 28.1962642 103.999722 28.3139049 103.797272 28.4316039 103.595694 28.5492446 103.394931 28.6669436 103.194984 28.7846426 102.995909 28.9022833 102.797649 29.0199823 102.600204 29.137623 102.403516 29.2553221 102.207701 29.3730211 102.012643 29.4906618 101.818342 29.6083608 101.624855 29.7260015 101.432183 29.8437005 101.24021 29.9613995 101.049052 30.0790402 100.858651 30.1967392 100.668948 30.3143799 100.480059 30.4320789 100.29187 30.549778 100.104437 30.6674186 99.9177027 30.7851177 99.7317251 30.9027583 99.5464459 31.0204574 99.3618653 31.1381564 99.1779832 31.2557971 98.9947996 31.3734961 98.8123727 31.4911368 98.6305862 31.6088358 98.4494981 31.7265348 98.2690503 31.8441755 98.089301 31.9618746 97.9102503 32.0795152 97.7318398 32.1972143 97.5540697 32.3149133 97.376998 32.432554 97.2005666 32.550253 97.0247756 32.6678937 96.8496248 32.7855927 96.6750561 32.9032917 96.501186 33.0209324 96.3279561 33.1386314 96.1553083 33.2562721 95.9832427 33.3739711 95.8118755 33.4916702 95.6410322 33.6093108 95.4708292 33.7270099 95.3012665 33.8446506 95.1322859 33.9623496 94.9638291 34.0800486 94.7960127 34.1976893 94.6287784 34.3153883 94.4621261 34.433029 94.296056 34.550728 94.1305679 34.6684271 93.9656037 34.7860677 93.8012216 34.9037668 93.6374216 35.0214074 93.4741454 35.1391065 93.3114514 35.2568055 93.1492812 35.3744462 92.987635 35.4921452 92.8265708 35.6097859 92.6660304 35.7274849 92.506014 35.8451839 92.3465797 35.9628246 92.187611 36.0805236 92.0292244 36.1981643 91.8713035 36.3158634 91.7139065 36.4335624 91.5570333 36.5512031 91.4006841 36.6689021 91.2448587 36.7865428 91.089499 36.9042418 90.9346631 37.0219408 90.780293 37.1395815 90.6264467 37.2572805 90.4730661 37.3749212 90.3202094 37.4926202 90.1677601 37.6103193 90.0158929 37.7279599 89.8644332 37.845659 89.7134974 37.9632996 89.562969 38.0809987 89.4129645 38.1986977 89.2634257 38.3163384 89.1143525 38.4340374 88.9656869 38.5517364 88.8175451 38.6693771 88.6698107 38.7870761 88.522542 38.9047168 88.375739 39.0224159 88.2294017 39.1401149 88.0834719 39.2577556 87.9380077 39.3754546 87.7929509 39.4930953 87.6483599 39.6107943 87.5041763 39.7284933 87.3604584 39.846134 87.2171479 39.963833 87.0742449 40.0814737 86.9318076 40.1991727 86.7897195 40.3168718 86.6480971 40.4345124 86.5069404 40.5522115 86.3661329 40.6698521 86.2257329 40.7875512 86.0857986 40.9052502 85.9462135 41.0228909 85.8070359 41.1405899 85.6682657 41.2582306 85.529903 41.3759296 85.3919478 41.4936286 85.2544 41.6112693 85.1172015 41.7289684 84.9804104 41.846609 84.8440268 41.9643081 84.7079925 42.0820071 84.5723656 42.1996478 84.4371462 42.3173468 84.302276 42.4349875 84.1677551 42.5526865 84.0336417 42.6703855 83.8999357 42.7880262 83.7665208 42.9057252 83.6335133 43.0233659 83.5009133 43.1410649 83.3686043 43.258764 83.2367028 43.3764046 83.1051506 43.4941037 82.9740058 43.6117444 82.843152 43.7294434 82.7127057 43.8471424 82.5825505 43.9647831 82.4528027 44.0824821 82.323346 44.2001228 82.1942968 44.3178218 82.0655385 44.4355209 81.9371878 44.5531615 81.8091281 44.6708606 81.6814176 44.7885012 81.5540564 44.9062003 81.4270444 45.0238993 81.3003235 45.14154 81.1739519 45.259239 81.0479295 45.3768797 80.9222563 45.4945787 80.7968742 45.6122777 80.6718414 45.7299184 80.5470996 45.8476174 80.4227071 45.9652581 80.2986056 46.0829571 80.1748533 46.2006562 80.0513921 46.3182969 79.9282801 46.4359959 79.8054592 46.5536366 79.6829876 46.6713356 79.560807 46.7890346 79.4389174 46.9066753 79.3173189 47.0243743 79.1960696 47.142015 79.0751114 47.259714 78.9544442 47.3774131 78.8341263 47.4950537 78.7140412 47.6127528 78.5943054 47.7303934 78.4748606 47.8480925 78.3557069 47.9657915 78.2368442 48.0834322 78.1182725 48.2011312 77.9999919 48.3187719 77.8820024 48.4364709 77.7643039 48.5541699 77.6468964 48.6718106 77.52978 48.7895096 77.4128964 48.9071503 77.296362 49.0248494 77.1800605 49.1425484 77.0641083 49.2601891 76.9483889 49.3778881 76.8329023 49.4955288 76.717765 49.6132278 76.6028605 49.7309268 76.488247 49.8485675 76.3739246 49.9662665 76.2598351 50.0839072 76.1460366 50.2016062 76.0325291 50.3193053 75.9192544 50.4369459 75.8062709 50.554645 75.6935201 50.6722856 75.5810604 50.7899847 75.4688335 50.9076837 75.3568977 51.0253244 75.2451947 51.1430234 75.1337827 51.2606641 75.0226036 51.3783631 74.9117156 51.4960621 74.8010603 51.6137028 74.6906379 51.7314019 74.5805066 51.8490425 74.4706081 51.9667416 74.3609424 52.0844406 74.2515677 52.2020813 74.1423677 52.3197803 74.033517 52.437421 73.9248408 52.55512 73.8163976 52.672819 73.7082453 52.7904597 73.6003259 52.9081587 73.4926393 53.0258578 73.3851856 53.1434984 73.2780229 53.2611975 73.1710348 53.3788381 73.0643378 53.4965372 72.9578154 53.6142362 72.851584 53.7318769 72.7455273 53.8495759 72.6397616 53.9672166 72.5342288 54.0849156 72.4288706 54.2026147 72.3238034 54.3202553 72.2189109 54.4379544 72.1142511 54.555595 72.0098825 54.6732941 71.9056884 54.7909931 71.8017272 54.9086338 71.6979989 55.0263328 71.5945033 55.1439735 71.4911824 55.2616725 71.3881526 55.3793715 71.2852973 55.4970122 71.182675 55.6147112 71.0802272 55.7323519 70.9780705 55.8500509 70.8760884 55.96775 70.7743391 56.0853907 70.6727645 56.2030897 70.5714809 56.3207304 70.4703137 56.4384294 70.3694376 56.5561284 70.2687361 56.6737691 70.1682674 56.7914681 70.0679734 56.9091088 69.9679122 57.0268078 69.8680838 57.1445069 69.7684301 57.2621475 69.6689509 57.3798466 69.5697629 57.4974872 69.4706912 57.6151863 69.3718524 57.7328853 69.2732464 57.850526 69.1748151 57.968225 69.0766166 58.0858657 68.9785927 58.2035647 68.8807434 58.3212637 68.783127 58.4389044 68.6856852 58.5566034 68.5884762 58.6742441 68.4914419 58.7919432 68.3945822 58.9096422 68.2979553 59.0272829 68.2015031 59.1449819 68.1052254 59.2626226 68.0091807 59.3803216 67.9133105 59.4980206 67.817615 59.6156613 67.7221523 59.7333603 67.626806 59.851001 67.5316926 59.9687 67.4367537 60.0863991 67.3420478 60.2040397 67.2475164 60.3217388 67.1531015 60.4393794 67.0589194 60.5570785 66.9649119 60.6747775 66.8711373 60.7924182 66.7774791 60.9101172 66.6840537 61.0277579 66.5907447 61.1454569 66.4976686 61.2631559 66.4047671 61.3807966 66.3120402 61.4984957 66.219488 61.6161363 66.1271104 61.7338354 66.0349074 61.8515344 65.942879 61.9691751 65.8510253 62.0868741 65.7594044 62.2045148 65.6678999 62.3222138 65.57657 62.4399128 65.4854148 62.5575535 65.3944342 62.6752525 65.3036282 62.7928932 65.2129969 62.9105922 65.1225401 63.0282913 65.032258 63.1459319 64.9421506 63.263631 64.8521595 63.3812717 64.7624013 63.4989707 64.6727595 63.6166697 64.5832923 63.7343104 64.494058 63.8520094 64.4048819 63.9696501 64.3159386 64.0873491 64.2271699 64.2050482 64.1385177 64.3226888 64.05004 64.4403879 63.9617953 64.5580285 63.8736087 64.6757276 63.7856549 64.7934266 63.6978176 64.9110673 63.6101549 65.0287663 63.5226669 65.146407 63.4353534 65.264106 63.3481564 65.381805 63.261134 65.4994457 63.1742862 65.6171447 63.0875549 65.7347854 63.0009982 65.8524844 62.9146161 65.9701835 62.8283504 66.0878242 62.7422593 66.2055232 62.6563429 66.3231639 62.5705429 66.4408629 62.4849175 66.5585619 62.3994668 66.6762026 62.3141324 66.7939016 62.2289727 66.9115423 62.1439294 67.0292413 62.0590608 67.1469404 61.9743085 67.264581 61.8897309 67.3822801 61.8053279 67.4999207 61.7210413 67.6176198 61.6369294 67.7353188 61.5529339 67.8529595 61.469113 67.9706585 61.3854085 68.0882992 61.3018786 68.2059982 61.2184652 68.3236972 61.1352264 68.4413379 61.052104 68.5590369 60.969098 68.676736 60.8862666 68.7943767 60.8036099 68.9120757 60.7210696 69.0297164 60.6386457 69.1474154 60.5563965 69.2651144 60.4742636 69.3827551 60.3923054 69.5004541 60.3104636 69.6180948 60.2287964 69.7357938 60.1471875 69.8534929 60.0658114 69.9711335 59.9844934 70.0888326 59.9033501 70.2064732 59.8223233 70.3241723 59.741471 70.4418713 59.6607352 70.559512 59.5801158 70.677211 59.499671 70.7948517 59.4192844 70.9125507 59.3391307 71.0302497 59.2590352 71.1478904 59.1791143 71.2655894 59.0993098 71.3832301 59.0196217 71.5009292 58.9401083 71.6186282 58.8607113 71.7362689 58.7814307 71.8539679 58.7022665 71.9716086 58.6232769 72.0893076 58.5443456 72.2070066 58.4655888 72.3246473 58.3870067 72.4423463 58.3084829 72.559987 58.2301336 72.677686 58.1519007 72.7953851 58.0737843 72.9130257 57.9957843 73.0307248 57.9179007 73.1483654 57.8401918 73.2660645 57.762541 73.3837635 57.6850649 73.5014042 57.6077052 73.6191032 57.5304619 73.7367439 57.453335 73.8544429 57.3763828 73.9721419 57.2994887 74.0897826 57.2227693 74.2074817 57.1461081 74.3251223 57.0696216 74.4428214 56.9932514 74.5605204 56.9169977 74.6781611 56.8408603 74.7958601 56.7648394 74.9135008 56.688935 75.0311998 56.6131469 75.1488988 56.5375335 75.2665395 56.4619782 75.3842385 56.3865394 75.5018792 56.311217 75.6195782 56.2360692 75.7372773 56.1609797 75.8549179 56.0860648 75.972617 56.011208 76.0902577 55.9364677 76.2079567 55.8619021 76.3256557 55.7873946 76.4432964 55.7130617 76.5609954 55.6387871 76.6786361 55.5646289 76.7963351 55.4905871 76.9140342 55.4167199 77.0316748 55.342911 77.1493739 55.2692184 77.2670145 55.1956423 77.3847136 55.1221826 77.5024126 55.0488393 77.6200533 54.9756124 77.7377523 54.9024438 77.855393 54.8294497 77.973092 54.7565139 78.090791 54.6837527 78.2084317 54.6110497 78.3261307 54.5384631 78.4437714 54.4660512 78.5614705 54.3936392 78.6791695 54.3214019 78.7968102 54.249281 78.9145092 54.1772765 79.0321499 54.1053303 79.1498489 54.0335004 79.2675479 53.961787 79.3851886 53.89019 79.5028876 53.8187093 79.6205283 53.747287 79.7382273 53.6760392 79.8559264 53.6048496 79.973567 53.5337765 80.0912661 53.4628198 80.2089067 53.3919795 80.3266058 53.3211974 80.4443048 53.2505317 80.5619455 53.1799824 80.6796445 53.1095496 80.7972852 53.039175 80.9149842 52.968975 81.0326832 52.8988332 81.1503239 52.8287496 81.268023 52.7588406 81.3856636 52.6889899 81.5033627 52.6192555 81.6210617 52.5496376 81.7387024 52.4801361 81.8564014 52.4106928 81.9740421 52.3413659 82.0917411 52.2720973 82.2094401 52.2030032 82.3270808 52.1339674 82.4447798 52.065048 82.5624205 51.9961868 82.6801195 51.927442 82.7978186 51.8588137 82.9154592 51.7903017 83.0331583 51.721848 83.1508573 51.6535107 83.268498 51.5852316 83.386197 51.5170689 83.5038377 51.4490226 83.6215367 51.3810927 83.7392357 51.3132211 83.8568764 51.2454659 83.9745755 51.1777688 84.0922161 51.1101882 84.2099152 51.042724 84.3276142 50.9753181 84.4452549 50.9080285 84.5629539 50.8408554 84.6805946 50.7737404 84.7982936 50.7067419 84.9159926 50.6398016 85.0336333 50.5729777 85.1513323 50.5062703 85.268973 50.439621 85.386672 50.3730882 85.5043711 50.3066135 85.6220117 50.2402553 85.7397108 50.1739553 85.8573515 50.1077717 85.9750505 50.0417046 86.0927495 49.9756956 86.2103902 49.9098031 86.3280892 49.8439687 86.4457299 49.7782508 86.5634289 49.7125911 86.681128 49.6470478 86.7987686 49.5816209 86.9164677 49.5161941 87.0341083 49.4509418 87.1518074 49.3857478 87.2695064 49.320612 87.3871471 49.2556508 87.5048461 49.1906896 87.6224868 49.1258448 87.7401858 49.0611164 87.8578848 48.9964463 87.9755255 48.9318343 88.0932245 48.8673388 88.2108652 48.8029597 88.3285642 48.7386388 88.4462633 48.6743761 88.563904 48.6102298 88.681603 48.5461418 88.7992437 48.4821701 88.9169427 48.4183149 89.0346417 48.3544596 89.1522824 48.290779 89.2699814 48.2270984 89.3876221 48.1635925 89.5053211 48.1000865 89.6230202 48.0366969 89.7406608 47.9734238 89.8583599 47.9101507 89.9760005 47.8470521 90.0936996 47.7839536 90.2113986 47.7210297 90.3290393 47.6581059 90.4467383 47.5952984 90.564379 47.5325491 90.682078 47.4699163 90.799777 47.4073417 90.9174177 47.3448834 91.0351167 47.2824834 91.1527574 47.2201416 91.2704565 47.1579163 91.3881555 47.0957491 91.5057962 47.0336983 91.6234952 46.9717058 91.7411359 46.9097715 91.8588349 46.8478953 91.9765339 46.7861356 92.0941746 46.7244923 92.2118736 46.6628491 92.3295143 46.6013804 92.4472133 46.5399117 92.5649124 46.4785595 92.682553 46.4172655 92.8002521 46.3560296 92.9178927 46.2949102 93.0355918 46.233849 93.1532908 46.1729042 93.2709315 46.1119595 93.3886305 46.0511311 93.5062712 45.9904192 93.6239702 45.9297654 93.7416692 45.8691699 93.8593099 45.8086326 93.977009 45.7482117 94.0946496 45.687849 94.2123487 45.6275445 94.3300477 45.5672982 94.4476884 45.5071684 94.5653874 45.4470967 94.6830281 45.3871415 94.8007271 45.3272445 94.9184261 45.2674057 95.0360668 45.2076251 95.1537658 45.1479027 95.2714065 45.0882967 95.3891055 45.0287489 95.5068046 44.9693176 95.6244452 44.9098862 95.7421443 44.8505713 95.859785 44.7913146 95.977484 44.7321743 96.095183 44.673034 96.2128237 44.6140101 96.3305227 44.5550444 96.4481634 44.4961952 96.5658624 44.4373459 96.6835615 44.3786131 96.8012021 44.3199384 96.9189012 44.261322 97.0365418 44.202822 97.1542409 44.1443802 97.2719399 44.0859966 97.3895806 44.0276712 97.5072796 43.9694041 97.6249203 43.9112533 97.7426193 43.8531608 97.8603183 43.7951264 97.977959 43.7371503 98.095658 43.6792324 98.2132987 43.6214309 98.3309977 43.5636876 98.4486968 43.5060025 98.5663375 43.4483757 98.6840365 43.390807 98.8017355 43.3333548 98.9193762 43.2759607 99.0370752 43.2186249 99.1547159 43.1613473 99.2724149 43.1041279 99.390114 43.0469667 99.5077546 42.9899219 99.6254537 42.9329353 99.7430943 42.876007 99.8607934 42.8191368 99.9784924 42.7623249 100.096133 42.7055711 100.213832 42.6489338 100.331473 42.5922965 100.449172 42.5357756 100.566871 42.4793129 100.684512 42.4229084 100.802211 42.3665621 100.919851 42.3103323 101.03755 42.2541024 101.155249 42.197989 101.27289 42.1419338 101.390589 42.0858785 101.50823 42.0299397 101.625929 41.9741173 101.743628 41.9182949 101.861268 41.8625308 101.978967 41.8068248 102.096608 41.7512352 102.214307 41.6957039 102.332006 41.6401725 102.449647 41.5847576 102.567346 41.5294009 102.684987 41.4741024 102.802686 41.4188621 102.920385 41.3637382 103.038025 41.3086143 103.155724 41.2535486 103.273365 41.1985994 103.391064 41.1436501 103.508763 41.0888173 103.626404 41.0339844 103.744103 40.979268 103.861743 40.9246098 103.979442 40.8700098 104.097141 40.815468 104.214782 40.7609844 104.332481 40.706559 104.450122 40.6521919 104.567821 40.5978829 104.68552 40.5436903 104.803161 40.4894978 104.92086 40.4353635 105.0385 40.3813456 105.156199 40.3273276 105.273898 40.2734261 105.391539 40.2195247 105.509238 40.1657396 105.626879 40.1119545 105.744578 40.0582858 105.862277 40.0046172 105.979917 39.9510649 106.097617 39.8975709 106.215257 39.8440769 106.332956 39.7906992 106.450655 39.7373798 106.568296 39.6841186 106.685995 39.6309156 106.803636 39.5777127 106.921335 39.5246261 107.039034 39.4715977 107.156674 39.4186276 107.274373 39.3657156 107.392014 39.3128037 107.509713 39.2600082 107.627412 39.2072708 107.745053 39.1545917 107.862752 39.1019708 107.980393 39.0493499 108.098092 38.9968454 108.215791 38.9443992 108.333431 38.8920111 108.45113 38.839623 108.568771 38.7873514 108.68647 38.735138 108.804169 38.6829245 108.92181 38.6308275 109.039509 38.5787305 109.157149 38.5267499 109.274848 38.4747693 109.392547 38.4229051 109.510188 38.3710409 109.627887 38.3192932 109.745528 38.2675454 109.863227 38.2158558 109.980926 38.1642827 110.098567 38.1127096 110.216266 38.0611946 110.333906 38.0097379 110.451605 37.9583394 110.569304 37.9069991 110.686945 37.855717 110.804644 37.8044931 110.922285 37.7533274 111.039984 37.70222 111.157683 37.6511125 111.275323 37.6001215 111.393022 37.5491304 111.510663 37.4982558 111.628362 37.4473811 111.746061 37.3966229 111.863702 37.3458647 111.981401 37.2951647 112.099042 37.2445229 112.216741 37.1939393 112.33444 37.143414 112.45208 37.0929468 112.569779 37.0424796 112.68742 36.9921289 112.805119 36.9418363 112.922818 36.8915438 113.040459 36.8413094 113.158158 36.7911915 113.275857 36.7410736 113.393498 36.6910139 113.511197 36.6410124 113.628837 36.5910109 113.746536 36.5411258 113.864235 36.491299 113.981876 36.4414721 114.099575 36.3917616 114.217216 36.3420512 114.334915 36.292399 114.452614 36.2428049 114.570254 36.1932691 114.687953 36.1437915 114.805594 36.0943139 114.923293 36.0449527 115.040992 35.9955915 115.158633 35.9462885 115.276332 35.8971019 115.393973 35.8479153 115.511672 35.7987288 115.629371 35.7496586 115.747011 35.7006467 115.86471 35.6516347 115.982351 35.602681 116.10005 35.5538437 116.217749 35.5050064 116.33539 35.456169 116.453089 35.4074481 116.570729 35.3587854 116.688428 35.3101228 116.806127 35.2615183 116.923768 35.212972 117.041467 35.1644839 117.159108 35.1160541 117.276807 35.0676824 117.394506 35.0193108 117.512147 34.9709974 117.629846 34.9227421 117.747486 34.8745451 117.865185 34.8264063 117.982884 34.7783257 118.100525 34.7302451 118.218224 34.6822227 118.335865 34.6342585 118.453564 34.5863525 118.571263 34.5385048 118.688903 34.4907152 118.806603 34.4429257 118.924243 34.3951943 119.041942 34.3475212 119.159641 34.2999063 119.277282 34.2522913 119.394981 34.2047928 119.512622 34.1572943 119.630321 34.109854 119.74802 34.0624719 119.86566 34.0150898 119.983359 33.9678241 120.101 33.9205585 120.218699 33.873351 120.336398 33.8262017 120.454039 33.7790525 120.571738 33.7320196 120.689379 33.6849868 120.807078 33.6380122 120.924777 33.5910957 121.042417 33.5441793 121.160116 33.4973211 121.277757 33.4505793 121.395456 33.4037793 121.513155 33.3570957 121.630796 33.3104704 121.748495 33.263845 121.866135 33.2172778 121.983834 33.1707688 122.101533 33.1242599 122.219174 33.0778091 122.336873 33.0314748 122.454514 32.9850823 122.572213 32.9388061 122.689912 32.89253 122.807553 32.8463703 122.925252 32.8001524 123.042892 32.7540509 123.160591 32.7080076 123.27829 32.6619643 123.395931 32.6159793 123.51363 32.5699942 123.631271 32.5241255 123.74897 32.4782569 123.866669 32.4324464 123.984309 32.3866942 124.102008 32.3409419 124.219649 32.2952479 124.337348 32.2496121 124.455047 32.2040344 124.572688 32.1584568 124.690387 32.1129956 124.808028 32.0675344 124.925727 32.0220732 125.043426 31.9767285 125.161066 31.9313837 125.278765 31.8860971 125.396406 31.8408105 125.514105 31.7955822 125.631804 31.7504702 125.749445 31.7053001 125.867144 31.6602463 125.984784 31.6151926 126.102484 31.5701971 126.220183 31.5252598 126.337823 31.4803224 126.455522 31.4354433 126.573163 31.3906224 126.690862 31.3458597 126.808561 31.3010971 126.926202 31.2563926 127.043901 31.2117463 127.161541 31.1671 127.27924 31.122512 127.396939 31.0779821 127.51458 31.0334523 127.632279 30.9890388 127.74992 30.9446254 127.867619 30.9002119 127.985318 30.8559149 128.102959 30.8116179 128.220658 30.7673209 128.338298 30.7231403 128.455997 30.6789597 128.573696 30.6348373 128.691337 30.5907149 128.809036 30.5467089 128.926735 30.502703 129.044376 30.458697 129.162075 30.4148074 129.279715 30.3709179 129.397414 30.3270283 129.515113 30.2832552 129.632754 30.239482 129.750453 30.1957089 129.868094 30.1520522 129.985793 30.1083955 130.103492 30.064797 130.221133 30.0211984 130.338832 29.9776581 130.456472 29.934176 130.574171 29.8907522 130.69187 29.8473283 130.809511 29.8039626 130.92721 29.7605969 131.044851 29.7173477 131.16255 29.6740402 131.280249 29.6308492 131.397889 29.5876581 131.515589 29.5445253 131.633229 29.5013924 131.750928 29.458376 131.868627 29.4153596 131.986268 29.3723432 132.103967 29.329385 132.221608 29.2864849 132.339307 29.2436432 132.457006 29.2008014 132.574646 29.1579596 132.692345 29.1152342 132.809986 29.0725088 132.927685 29.0298416 133.045384 28.9871745 133.163025 28.9445655 133.280724 28.9020148 133.398365 28.859464 133.516064 28.8169715 133.633763 28.7745371 133.751403 28.7321028 133.869102 28.6897267 133.986743 28.6474088 134.104442 28.6050909 134.222141 28.5628312 134.339782 28.5205715 134.457481 28.47837 134.575121 28.4362267 134.69282 28.3941416 134.810519 28.3520565 134.92816 28.3099714 135.045859 28.2679446 135.1635 28.2259759 135.281199 28.1840655 135.398898 28.142155 135.516539 28.1003028 135.634238 28.0584505 135.751878 28.0166565 135.869577 27.9749207 135.987276 27.9331848 136.104917 27.8915072 136.222616 27.8498878 136.340257 27.8082684 136.457956 27.7667072 136.575655 27.725146 136.693295 27.683643 136.810994 27.6421982 136.928635 27.6007535 137.046334 27.5593669 137.164033 27.5179803 137.281674 27.476652 137.399373 27.4353818 137.517014 27.3941117 137.634713 27.3528997 137.752412 27.311746 137.870052 27.2705922 137.987751 27.2294967 138.105392 27.1884012 138.223091 27.1473639 138.34079 27.1063266 138.458431 27.0653475 138.57613 27.0244266 138.69377 26.9835639 138.81147 26.942643 138.929169 26.9018385 139.046809 26.861034 139.164508 26.8202877 139.282149 26.7795415 139.399848 26.7388534 139.517547 26.6981653 139.635188 26.6575937 139.752887 26.6169638 139.870527 26.5763922 139.988226 26.5358788 140.105925 26.4954235 140.223566 26.4549683 140.341265 26.4145131 140.458906 26.3741161 140.576605 26.3337772 140.694304 26.2934966 140.811945 26.2531578 140.929644 26.2129354 141.047284 26.1727131 141.164983 26.1325489 141.282682 26.0923847 141.400323 26.0522787 141.518022 26.0121727 141.635663 25.972125 141.753362 25.9321354 141.871061 25.8921459 141.988701 25.8521563 142.1064 25.8122832 142.224041 25.7723518 142.34174 25.7325369 142.459439 25.692722 142.57708 25.652907 142.694779 25.6131503 142.81242 25.5734518 142.930119 25.5337533 143.047818 25.494113 143.165458 25.4544727 143.283157 25.4148906 143.400856 25.3753667 143.518497 25.3358428 143.636196 25.2963189 143.753837 25.2568533 143.871536 25.2174458 143.989235 25.1780383 144.106875 25.1386891 144.224575 25.0993398 144.342215 25.0600488 144.459914 25.0208159 144.577613 24.9815831 144.695254 24.9423503 144.812953 24.9031756 144.930594 24.8640592 145.048293 24.8249428 145.165992 24.7858846 145.283632 24.7468264 145.401331 24.7078264 145.518972 24.6688264 145.636671 24.6298846 145.75437 24.591001 145.872011 24.5521174 145.98971 24.5132338 146.107351 24.4744084 146.22505 24.4356413 146.342749 24.3968741 146.460389 24.3581651 146.578088 24.3194562 146.695729 24.2807472 146.813428 24.2421547 146.931127 24.2035621 147.048768 24.1649696 147.166467 24.1264353 147.284107 24.0879009 147.401806 24.0494248 147.519505 24.0110069 147.637146 23.972589 147.754845 23.9341711 147.872486 23.8958114 147.990185 23.8575099 148.107884 23.8192084 148.225525 23.7809069 148.343224 23.7427218 148.460864 23.7044785 148.578563 23.6662934 148.696262 23.6281666 148.813903 23.5900397 148.931602 23.551971 149.049243 23.5139024 149.166942 23.4758919 149.284641 23.4378815 149.402281 23.3999292 149.51998 23.3620352 149.637621 23.324083 149.75532 23.2862471 149.873019 23.2484113 149.99066 23.2105755 150.108359 23.1727979 150.226 23.1350203 150.343699 23.0973009 150.461398 23.0596397 150.579038 23.0219203 150.696737 22.9843173 150.814378 22.9467143 150.932077 22.9091113 151.049776 22.8715665 151.167417 22.8340799 151.285116 22.7965934 151.402756 22.7591068 151.520456 22.7216784 151.638155 22.6842501 151.755795 22.6468799 151.873494 22.609568 151.991135 22.572256 152.108834 22.5349441 152.226533 22.4976904 152.344174 22.4604948 152.461873 22.4232993 152.579513 22.3861038 152.697212 22.3489665 152.814911 22.3118292 152.932552 22.27475 153.050251 22.2377291 153.167892 22.20065 153.285591 22.1636873 153.40329 22.1267247 153.520931 22.089762 153.63863 22.0528575 153.75627 22.015953 153.873969 21.9791067 153.991668 21.9422605 154.109309 21.9054724 154.227008 21.8686843 154.344649 21.8319545 154.462348 21.7952246 154.580047 21.758553 154.697687 21.7218813 154.815386 21.6852679 154.933027 21.6486545 155.050726 21.6120992 155.168425 21.575544 155.286066 21.5389888 155.403765 21.5024918 155.521406 21.466053 155.639105 21.4296142 155.756804 21.3931753 155.874444 21.3567947 155.992143 21.3204724 156.109784 21.28415 156.227483 21.2478276 156.345182 21.2115634 156.462823 21.1752992 156.580522 21.1390932 156.698162 21.1028873 156.815862 21.0667395 156.933561 21.0305917 157.051201 20.9945022 157.1689 20.9584126 157.286541 20.9223231 157.40424 20.8862917 157.521939 20.8503186 157.63958 20.8143454 157.757279 20.7783723 157.874919 20.7424574 157.992618 20.7066007 158.110317 20.6706857 158.227958 20.6348872 158.345657 20.5990305 158.463298 20.5632902 158.580997 20.5274917 158.698696 20.4917514 158.816337 20.4560693 158.934036 20.4203872 159.051735 20.3847051 159.169375 20.3490812 159.287074 20.3135156 159.404715 20.2779499 159.522414 20.2423842 159.640113 20.2068767 159.757754 20.1713693 159.875453 20.1358618 159.993093 20.1004126 160.110792 20.0650215 160.228491 20.0296305 160.346132 19.9942394 160.463831 19.9589066 160.581472 19.9236319 160.699171 19.8882991 160.81687 19.8530245 160.934511 19.8178081 161.05221 19.7825916 161.16985 19.7474334 161.287549 19.7122752 161.405248 19.677117 161.522889 19.642017 161.640588 19.606917 161.758229 19.5718752 161.875928 19.5368334 161.993627 19.5018498 162.111267 19.4668662 162.228967 19.4318826 162.346607 19.3969573 162.464306 19.3620901 162.582005 19.3272229 162.699646 19.2923558 162.817345 19.2574886 162.934986 19.2227379 163.052685 19.1879289 163.170384 19.1531781 163.288024 19.1184274 163.405723 19.0837349 163.523364 19.0490423 163.641063 19.014408 163.758762 18.9797737 163.876403 18.9451975 163.994102 18.9106214 164.111743 18.8760453 164.229442 18.8415274 164.347141 18.8070095 164.464781 18.7725498 164.58248 18.7380901 164.700121 18.7036886 164.81782 18.6692289 164.935519 18.6348856 165.05316 18.6005423 165.170859 18.566199 165.288499 18.5318557 165.406198 18.4976288 165.523897 18.4633438 165.641538 18.4291169 165.759237 18.39489 165.876878 18.3607214 165.994577 18.3265527 166.112276 18.2924423 166.229917 18.2583318 166.347616 18.2242214 166.465256 18.1901691 166.582955 18.1561169 166.700654 18.1221228 166.818295 18.0881288 166.935994 18.0541348 167.053635 18.0201989 167.171334 17.9862631 167.289033 17.9523855 167.406673 17.9185079 167.524372 17.8846885 167.642013 17.8508691 167.759712 17.8170497 167.877411 17.7832885 167.995052 17.7495273 168.112751 17.7157661 168.230392 17.6820631 168.348091 17.6484183 168.46579 17.6147153 168.58343 17.5811288 168.701129 17.547484 168.81877 17.5138974 168.936469 17.4803691 169.054168 17.4467825 169.171809 17.4133123 169.289508 17.379784 169.407148 17.3463138 169.524848 17.3129019 169.642547 17.2794317 169.760187 17.2460198 169.877886 17.212666 169.995527 17.1793123 170.113226 17.1459586 170.230925 17.1126631 170.348566 17.0793675 170.466265 17.0461302 170.583905 17.0128929 170.701604 16.9796556 170.819303 16.9464765 170.936944 16.9132974 171.054643 16.8801765 171.172284 16.8470556 171.289983 16.8139347 171.407682 16.780872 171.525323 16.7478093 171.643022 16.7147466 171.760662 16.6817421 171.878361 16.6487376 171.99606 16.6157914 172.113701 16.5828451 172.2314 16.549957 172.349041 16.5170108 172.46674 16.4841809 172.584439 16.4512928 172.702079 16.418463 172.819778 16.3856914 172.937419 16.3528615 173.055118 16.3201481 173.172817 16.2873764 173.290458 16.254663 173.408157 16.2219495 173.525856 16.1892943 173.643497 16.1566391 173.761196 16.1239839 173.878836 16.0913868 173.996535 16.0587898 174.114234 16.026251 174.231875 15.9937122 174.349574 15.9611734 174.467215 15.9286928 174.584914 15.8962122 174.702613 15.8637316 174.820253 15.8313092 174.937953 15.798945 175.055593 15.7665226 175.173292 15.7341585 175.290991 15.7017943 175.408632 15.6694883 175.526331 15.6371823 175.643972 15.6049346 175.761671 15.5726286 175.87937 15.540439 175.99701 15.5081913 176.114709 15.4760017 176.23235 15.4438122 176.350049 15.4116808 176.467748 15.3795495 176.585389 15.3474763 176.703088 15.315345 176.820729 15.2833301 176.938428 15.2512569 177.056127 15.219242 177.173767 15.1872271 177.291466 15.1552704 177.409107 15.1233136 177.526806 15.0913569 177.644505 15.0594584 177.762146 15.0275599 177.879845 14.9956614 177.997485 14.9638211 178.115184 14.9319808 178.232883 14.9001987 178.350524 14.8684166 178.468223 14.8366345 178.585864 14.8049106 178.703563 14.7731867 178.821262 14.7414629 178.938903 14.7097972 179.056602 14.6781315 179.174242 14.6464658 179.291941 14.6148584 179.40964 14.5832509 179.527281 14.5516434 179.64498 14.5200942 179.762621 14.4885449 179.88032 14.4570539 179.998019 14.4255628 180.115659 14.3940718 180.233358 14.3626389 180.350999 14.3312061 180.468698 14.2997733 180.586397 14.2683986 180.704038 14.237024 180.821737 14.2056494 180.939378 14.174333 181.057077 14.1430165 181.174776 14.1117001 181.292416 14.0804419 181.410115 14.0491837 181.527756 14.0179255 181.645455 13.9867255 181.763154 13.9555255 181.880795 13.9243837 181.998494 13.8932419 182.116134 13.8621001 182.233834 13.8310165 182.351533 13.7998747 182.469173 13.7688493 182.586872 13.7377658 182.704513 13.7067404 182.822212 13.675715 182.939911 13.6447478 183.057552 13.6137807 183.175251 13.5828135 183.292891 13.5519046 183.41059 13.5209956 183.528289 13.4900866 183.64593 13.4592359 183.763629 13.4283851 183.88127 13.3975344 183.998969 13.3667419 184.116668 13.3359493 184.234309 13.3051568 184.352008 13.2744224 184.469648 13.2436881 184.587347 13.2129538 184.705046 13.1822777 184.822687 13.1516015 184.940386 13.1209836 185.058027 13.0903075 185.175726 13.0596896 185.293425 13.0291299 185.411065 12.998512 185.528764 12.9679523 185.646405 12.9374508 185.764104 12.9069493 185.881803 12.8764478 185.999444 12.8459463 186.117143 12.815503 186.234784 12.7850597 186.352483 12.7546164 186.470182 12.7242313 186.587822 12.6938463 186.705521 12.6634612 186.823162 12.6331343 186.940861 12.6028075 187.05856 12.5724806 187.176201 12.5422119 187.2939 12.5119433 187.41154 12.4816746 187.529239 12.4514642 187.646939 12.4212537 187.764579 12.3910433 187.882278 12.360891 187.999919 12.3307388 188.117618 12.3005865 188.235317 12.2704925 188.352958 12.2403985 188.470657 12.2103044 188.588297 12.1802686 188.705996 12.1502328 188.823695 12.120197 188.941336 12.0901611 189.059035 12.0601835 189.176734 12.0302059 189.294375 12.0002865 189.412074 11.9703671 189.529715 11.9404477 189.647414 11.9105283 189.765113 11.8806671 189.882753 11.8508059 190.000452 11.8210029 190.118093 11.7911999 190.235792 11.7613969 190.353491 11.731594 190.471132 11.7018492 190.588831 11.6721044 190.706471 11.6423596 190.82417 11.612673 190.941869 11.5829865 191.05951 11.5532999 191.177209 11.5236715 191.29485 11.493985 191.412549 11.4644148 191.530248 11.4347865 191.647889 11.4052163 191.765588 11.3756462 191.883228 11.3461342 192.000927 11.3166223 192.118626 11.2871103 192.236267 11.2575984 192.353966 11.2281447 192.471607 11.1986909 192.589306 11.1692372 192.707005 11.1398417 192.824645 11.1104461 192.942344 11.0810506 193.059985 11.0517133 193.177684 11.0223178 193.295383 10.9930387 193.413024 10.9637014 193.530723 10.9344222 193.648364 10.9051431 193.766063 10.875864 193.883762 10.8466431 194.001402 10.8174222 194.119101 10.7882595 194.236742 10.7590387 194.354441 10.729876 194.47214 10.7007133 194.589781 10.6716088 194.70748 10.6425043 194.82512 10.6133998 194.94282 10.5842954 195.060519 10.5552491 195.178159 10.5262028 195.295858 10.4971565 195.413499 10.4681685 195.531198 10.4391804 195.648897 10.4101924 195.766538 10.3812625 195.884237 10.3523326 196.001877 10.3234028 196.119576 10.2944729 196.237275 10.2656013 196.354916 10.2367297 196.472615 10.2079162 196.590256 10.1790446 196.707955 10.1502311 196.825654 10.1214177 196.943295 10.0926625 197.060994 10.0639073 197.178634 10.035152 197.296333 10.0063968 197.414032 9.97769978 197.531673 9.94900276 197.649372 9.92030575 197.767013 9.89166694 197.884712 9.86302813 198.002411 9.83438932 198.120051 9.80580872 198.23775 9.77716991 198.355391 9.74858931 198.47309 9.72006692 198.590789 9.69148632 198.70843 9.66296393 198.826129 9.63449975 198.94377 9.60597736 199.061469 9.57751318 199.179168 9.549049 199.296808 9.52058482 199.414507 9.49217885 199.532148 9.46377287 199.649847 9.4353669 199.767546 9.40701914 199.885187 9.37867137 200.002886 9.35032361 200.120526 9.32197585 200.238225 9.29368629 200.355925 9.26539674 200.473565 9.23710718 200.591264 9.20887584 200.708905 9.18058628 200.826604 9.15241315 200.944303 9.1241818 201.061944 9.09600866 201.179643 9.06783553 201.297283 9.03966239 201.414982 9.01148925 201.532681 8.98337433 201.650322 8.9552594 201.768021 8.92720268 201.885662 8.89908775 202.003361 8.87103103 202.12106 8.84303252 202.238701 8.81497581 202.3564 8.7869773 202.47404 8.75897879 202.591739 8.73098028 202.709438 8.70303998 202.827079 8.67509967 202.944778 8.64715937 203.062419 8.61921907 203.180118 8.59133698 203.297817 8.56345489 203.415457 8.5355728 203.533156 8.50774891 203.650855 8.47992503 203.768496 8.45210115 203.886195 8.42427727 204.003836 8.39651159 204.121535 8.36874592 204.239234 8.34098024 204.356875 8.31327278 204.474574 8.28556531 204.592214 8.25785785 204.709913 8.23015038 204.827612 8.20250113 204.945253 8.17479366 205.062952 8.14720262 205.180593 8.11955336 205.298292 8.09196231 205.415991 8.06437127 205.533631 8.03678022 205.65133 8.00918917 205.768971 7.98165633 205.88667 7.9541235 206.004369 7.92664887 206.12201 7.89911603 206.239709 7.8716414 206.35735 7.84416677 206.475049 7.81675035 206.592748 7.78927572 206.710388 7.7618593 206.828087 7.73444288 206.945728 7.70708467 207.063427 7.67972646 207.181126 7.65236825 207.298767 7.62501004 207.416466 7.59771003 207.534106 7.57035182 207.651806 7.54305182 207.769505 7.51581003 207.887145 7.48851002 208.004844 7.46126823 208.122485 7.43402644 208.240184 7.40684285 208.357883 7.37960106 208.475524 7.35241748 208.593223 7.3252921 208.710863 7.29810852 208.828562 7.27098314 208.946261 7.24385777 209.063902 7.21673239 209.181601 7.18966522 209.299242 7.16253985 209.416941 7.13547268 209.53464 7.10846372 209.652281 7.08139656 209.76998 7.0543876 209.88762 7.02737864 210.005319 7.00036969 210.123018 6.97341894 210.240659 6.94646819 210.358358 6.91951744 210.475999 6.89256669 210.593698 6.86567415 210.711397 6.83878161 210.829037 6.81188907 210.946736 6.78505474 211.064377 6.7581622 211.182076 6.73132787 211.299775 6.70449354 211.417416 6.67771742 211.535115 6.6509413 211.652756 6.62416518 211.770455 6.59738906 211.888154 6.57061293 212.005794 6.54389502 212.123493 6.51717711 212.241134 6.4904592 212.358833 6.46379949 212.476532 6.43708158 212.594173 6.41042188 212.711872 6.38382038 212.829512 6.35716068 212.947211 6.33055918 213.064911 6.30395769 213.182551 6.27735619 213.30025 6.25081291 213.417891 6.22426962 213.53559 6.19772634 213.653289 6.17118305 213.77093 6.14463977 213.888629 6.11815469 214.006269 6.09166961 214.123968 6.06518453 214.241667 6.03875767 214.359308 6.0123308 214.477007 5.98590393 214.594648 5.95947706 214.712347 5.9331084 214.830046 5.90668154 214.947687 5.88031288 215.065386 5.85400243 215.183026 5.82763377 215.300725 5.80132332 215.418424 5.77501287 215.536065 5.74870242 215.653764 5.72245018 215.771405 5.69613973 215.889104 5.66988749 216.006803 5.64369346 216.124443 5.61744121 216.242142 5.59124718 216.359783 5.56505315 216.477482 5.53885912 216.595181 5.5127233 216.712822 5.48652926 216.830521 5.46039344 216.948162 5.43431583 217.065861 5.40818 217.18356 5.38210239 217.3012 5.35602478 217.418899 5.32994716 217.53654 5.30386955 217.654239 5.27785014 217.771938 5.25183074 217.889579 5.22581133 218.007278 5.19979193 218.124918 5.17383073 218.242617 5.14786953 218.360316 5.12190834 218.477957 5.09594714 218.595656 5.07004415 218.713297 5.04414117 218.830996 5.01823818 218.948695 4.99233519 219.066336 4.96649041 219.184035 4.94064564 219.301734 4.91480086 219.419374 4.88895608 219.537073 4.8631113 219.654714 4.83732473 219.772413 4.81153816 219.890112 4.78575159 220.007753 4.76002323 220.125452 4.73423666 220.243092 4.7085083 220.360792 4.68283815 220.478491 4.65710979 220.596131 4.63143964 220.71383 4.60571128 220.831471 4.58009934 220.94917 4.55442919 221.066869 4.52881724 221.18451 4.50314709 221.302209 4.47753515 221.419849 4.45198142 221.537548 4.42636947 221.655247 4.40081574 221.772888 4.37526201 221.890587 4.34970827 222.008228 4.32421275 222.125927 4.29865902 222.243626 4.27316349 222.361267 4.24766797 222.478966 4.22223065 222.596606 4.19673513 222.714305 4.17129781 222.832004 4.1458605 222.949645 4.12048139 223.067344 4.09504407 223.184985 4.06966497 223.302684 4.04428586 223.420383 4.01890675 223.538023 3.99358586 223.655722 3.96820675 223.773363 3.94288585 223.891062 3.91756496 224.008761 3.89230227 224.126402 3.86698137 224.244101 3.84171868 224.361742 3.81645599 224.479441 3.79125151 224.59714 3.76598882 224.71478 3.74078434 224.832479 3.71557986 224.95012 3.69037538 225.067819 3.6651709 225.185518 3.64002463 225.303159 3.61487836 225.420858 3.58973209 225.538498 3.56458582 225.656197 3.53949776 225.773897 3.5144097 225.891537 3.48932164 226.009236 3.46423358 226.126877 3.43914551 226.244576 3.41411566 226.362275 3.38908581 226.479916 3.36405595 226.597615 3.3390261 226.715255 3.31405446 226.832954 3.28908281 226.950653 3.26411117 227.068294 3.23913953 227.185993 3.21422609 227.303634 3.18925445 227.421333 3.16434101 227.539032 3.13942758 227.656673 3.11457235 227.774372 3.08965892 227.892012 3.06480369 228.009711 3.03994847 228.12741 3.01509324 228.245051 2.99029622 228.36275 2.965441 228.480391 2.94064398 228.59809 2.91584696 228.715789 2.89110815 228.833429 2.86631114 228.951128 2.84157233 229.068769 2.81683352 229.186468 2.79209471 229.304167 2.76741411 229.421808 2.74267531 229.539507 2.71799471 229.657148 2.69331411 229.774847 2.66869172 229.892546 2.64401112 230.010186 2.61938873 230.127885 2.59476634 230.245526 2.57014395 230.363225 2.54552156 230.480924 2.52095738 230.598565 2.4963932 230.716264 2.47182902 230.833904 2.44726483 230.951603 2.42275886 231.069302 2.39819468 231.186943 2.37368871 231.304642 2.34918274 231.422283 2.32473497 231.539982 2.300229 231.657681 2.27578124 231.775322 2.25133348 231.893021 2.22688571 232.010661 2.20243795 232.12836 2.17804839 232.246059 2.15365884 232.3637 2.12926929 232.481399 2.10487973 232.59904 2.08054839 232.716739 2.05615883 232.834438 2.03182749 232.952078 2.00749614 233.069778 1.9831648 233.187418 1.95889166 233.305117 1.93461852 233.422816 1.91034539 233.540457 1.88607225 233.658156 1.86179912 233.775855 1.83758419 233.893496 1.81331105 234.011195 1.78909612 234.128835 1.76493941 234.246534 1.74072448 234.364233 1.71656776 234.481874 1.69235283 234.599573 1.66825432 234.717214 1.6440976 234.834913 1.61994089 234.952612 1.59584238 235.070253 1.57174387 235.187952 1.54764536 235.305592 1.52354685 235.423291 1.49950655 235.54099 1.47540804 235.658631 1.45136774 235.77633 1.42732744 235.893971 1.40334535 236.01167 1.37930505 236.129369 1.35532295 236.247009 1.33134086 236.364708 1.30735877 236.482349 1.28337668 236.600048 1.2594528 236.717747 1.23547071 236.835388 1.21154682 236.953087 1.18768115 237.070728 1.16375727 237.188427 1.13989159 237.306126 1.11596771 237.423766 1.09210204 237.541465 1.06823636 237.659106 1.0444289 237.776805 1.02056323 237.894504 0.996755761 238.012145 0.972948296 238.129844 0.949140831 238.247484 0.925391576 238.365183 0.901584111 238.482883 0.877834855 238.600523 0.8540856 238.718222 0.830336344 238.835863 0.806645297 238.953562 0.782896042 239.071261 0.759204995 239.188902 0.735513948 239.306601 0.711822901 239.424241 0.688190064 239.54194 0.664499017 239.659639 0.640866179 239.77728 0.617233341 239.894979 0.593600504 240.01262 0.570025875 240.130319 0.546393037 240.248018 0.522818408 240.365659 0.49924378 240.483358 0.475669151 240.600998 0.452152731 240.718697 0.428578102 240.836396 0.405061682 240.954037 0.381545262 241.071736 0.358028843 241.189377 0.334570632 241.307076 0.311054212"></polyline>
            </g>
            <g id="Group-25" transform="translate(0.000000, 0.706100)">
                <mask id="mask-6" fill="white">
                    <use xlink:href="#path-5"></use>
                </mask>
                <g id="Clip-21"></g>
                <polygon id="Fill-20" fill="#FFFFFF" mask="url(#mask-6)" points="0.3070831 312.693848 0.8906182 312.693848 0.8906182 0.6938477 0.3070831 0.6938477"></polygon>
                <polygon id="Fill-22" fill="#FFFFFF" mask="url(#mask-6)" points="481.7235 312.693848 482.307035 312.693848 482.307035 0.6938477 481.7235 0.6938477"></polygon>
                <polygon id="Fill-23" fill="#FFFFFF" mask="url(#mask-6)" points="0.3070831 1.2759 482.307083 1.2759 482.307083 0.6938104 0.3070831 0.6938104"></polygon>
                <polygon id="Fill-24" fill="#FFFFFF" mask="url(#mask-6)" points="0.3070831 312.693848 482.307083 312.693848 482.307083 312.111758 0.3070831 312.111758"></polygon>
            </g>
        </g>
    </g>
</svg>