<?xml version="1.0" encoding="UTF-8"?>
<svg width="482px" height="308px" viewBox="0 0 482 308" version="1.1" xmlns="http://www.w3.org/2000/svg" xmlns:xlink="http://www.w3.org/1999/xlink">
    <!-- Generator: Sketch 48.1 (47250) - http://www.bohemiancoding.com/sketch -->
    <title>Page 1</title>
    <desc>Created with Sketch.</desc>
    <defs>
        <polygon id="path-1" points="0.3070831 0.9611047 481.894183 0.9611047 481.894183 308.851105 0.3070831 308.851105"></polygon>
        <polygon id="path-3" points="0.3070794 0.96111 240.8942 0.96111 240.8942 265.059493 0.3070794 265.059493"></polygon>
        <polygon id="path-5" points="0.3070831 0.9611047 481.894183 0.9611047 481.894183 308.851105 0.3070831 308.851105"></polygon>
    </defs>
    <g id="Page-1" stroke="none" stroke-width="1" fill="none" fill-rule="evenodd">
        <g transform="translate(0.000000, -1.000000)">
            <g id="Group-16" transform="translate(0.000000, 0.038900)">
                <mask id="mask-2" fill="white">
                    <use xlink:href="#path-1"></use>
                </mask>
                <g id="Clip-2"></g>
                <polygon id="Fill-1" fill="#FFFFFF" mask="url(#mask-2)" points="0.3070831 308.851105 482.307083 308.851105 482.307083 0.8511047 0.3070831 0.8511047"></polygon>
                <path d="M0.3070831,285.377575 L482.307076,285.377575 M0.3070831,273.511526 L482.307076,273.511526 M0.3070831,261.645477 L482.307076,261.645477 M0.3070831,237.913378 L482.307076,237.913378 M0.3070831,226.047329 L482.307076,226.047329 M0.3070831,214.181338 L482.307076,214.181338 M0.3070831,190.449239 L482.307076,190.449239 M0.3070831,178.58319 L482.307076,178.58319 M0.3070831,166.717141 L482.307076,166.717141 M0.3070831,142.985042 L482.307076,142.985042 M0.3070831,131.118993 L482.307076,131.118993 M0.3070831,119.252943 L482.307076,119.252943 M0.3070831,95.5208446 L482.307076,95.5208446 M0.3070831,83.6548536 L482.307076,83.6548536 M0.3070831,71.7888043 L482.307076,71.7888043 M0.3070831,48.056694 L482.307076,48.056694 M0.3070831,36.1906505 L482.307076,36.1906505 M0.3070831,24.324607 L482.307076,24.324607 M12.3570829,308.851082 L12.3570829,0.8511 M24.4070827,308.851082 L24.4070827,0.8511 M36.4570825,308.851082 L36.4570825,0.8511 M60.5570822,308.851082 L60.5570822,0.8511 M72.607082,308.851082 L72.607082,0.8511 M84.6570818,308.851082 L84.6570818,0.8511 M108.757081,308.851082 L108.757081,0.8511 M120.807081,308.851082 L120.807081,0.8511 M132.857081,308.851082 L132.857081,0.8511 M156.957081,308.851082 L156.957081,0.8511 M169.007081,308.851082 L169.007081,0.8511 M181.05708,308.851082 L181.05708,0.8511 M205.15708,308.851082 L205.15708,0.8511 M217.20708,308.851082 L217.20708,0.8511 M229.25708,308.851082 L229.25708,0.8511 M253.357079,308.851082 L253.357079,0.8511 M265.407079,308.851082 L265.407079,0.8511 M277.457079,308.851082 L277.457079,0.8511 M301.557078,308.851082 L301.557078,0.8511 M313.607078,308.851082 L313.607078,0.8511 M325.657078,308.851082 L325.657078,0.8511 M349.757078,308.851082 L349.757078,0.8511 M361.807078,308.851082 L361.807078,0.8511 M373.857077,308.851082 L373.857077,0.8511 M397.957077,308.851082 L397.957077,0.8511 M410.007077,308.851082 L410.007077,0.8511 M422.057077,308.851082 L422.057077,0.8511 M446.157076,308.851082 L446.157076,0.8511 M458.207076,308.851082 L458.207076,0.8511 M470.257076,308.851082 L470.257076,0.8511" id="Stroke-3" stroke="#929292" stroke-width="0.2" mask="url(#mask-2)"></path>
                <path d="M0.3070831,297.243625 L482.307076,297.243625 M0.3070831,249.779427 L482.307076,249.779427 M0.3070831,202.315288 L482.307076,202.315288 M0.3070831,154.851091 L482.307076,154.851091 M0.3070831,107.386894 L482.307076,107.386894 M0.3070831,59.922755 L482.307076,59.922755 M0.3070831,12.4585635 L482.307076,12.4585635 M0.3070831,308.851082 L0.3070831,0.8511 M48.5070824,308.851082 L48.5070824,0.8511 M96.7070816,308.851082 L96.7070816,0.8511 M144.907081,308.851082 L144.907081,0.8511 M193.10708,308.851082 L193.10708,0.8511 M241.307079,308.851082 L241.307079,0.8511 M289.507079,308.851082 L289.507079,0.8511 M337.707078,308.851082 L337.707078,0.8511 M385.907077,308.851082 L385.907077,0.8511 M434.107076,308.851082 L434.107076,0.8511 M482.307076,308.851082 L482.307076,0.8511" id="Stroke-4" stroke="#000000" stroke-width="0.3" mask="url(#mask-2)"></path>
                <polygon id="Fill-5" fill="#000000" mask="url(#mask-2)" points="482.3071 154.8511 476.4717 151.9344 478.2223 154.8511 476.4717 157.7678"></polygon>
                <path d="M0.3070831,154.851091 L482.307083,154.851091" id="Stroke-6" stroke="#000000" stroke-width="1.5" mask="url(#mask-2)"></path>
                <text id="-5" mask="url(#mask-2)" font-family="Helvetica" font-size="6.9999996" font-weight="normal" fill="#000000">
                    <tspan x="-3.1941275" y="164.003">-5</tspan>
                </text>
                <text id="-4" mask="url(#mask-2)" font-family="Helvetica" font-size="6.9999996" font-weight="normal" fill="#000000">
                    <tspan x="45.0058694" y="164.003">-4</tspan>
                </text>
                <text id="-3" mask="url(#mask-2)" font-family="Helvetica" font-size="6.9999996" font-weight="normal" fill="#000000">
                    <tspan x="93.2058694" y="164.003">-3</tspan>
                </text>
                <text id="-2" mask="url(#mask-2)" font-family="Helvetica" font-size="6.9999996" font-weight="normal" fill="#000000">
                    <tspan x="141.405889" y="164.003">-2</tspan>
                </text>
                <text id="-1" mask="url(#mask-2)" font-family="Helvetica" font-size="6.9999996" font-weight="normal" fill="#000000">
                    <tspan x="189.605889" y="164.003">-1</tspan>
                </text>
                <text id="0" mask="url(#mask-2)" font-family="Helvetica" font-size="6.9999996" font-weight="normal" fill="#000000">
                    <tspan x="231.44346" y="164.003">0</tspan>
                </text>
                <text id="1" mask="url(#mask-2)" font-family="Helvetica" font-size="6.9999996" font-weight="normal" fill="#000000">
                    <tspan x="287.17296" y="164.003">1</tspan>
                </text>
                <text id="2" mask="url(#mask-2)" font-family="Helvetica" font-size="6.9999996" font-weight="normal" fill="#000000">
                    <tspan x="335.37296" y="164.003">2</tspan>
                </text>
                <text id="3" mask="url(#mask-2)" font-family="Helvetica" font-size="6.9999996" font-weight="normal" fill="#000000">
                    <tspan x="383.57296" y="164.003">3</tspan>
                </text>
                <text id="4" mask="url(#mask-2)" font-family="Helvetica" font-size="6.9999996" font-weight="normal" fill="#000000">
                    <tspan x="431.77296" y="164.003">4</tspan>
                </text>
                <text id="5" mask="url(#mask-2)" font-family="Helvetica" font-size="6.9999996" font-weight="normal" fill="#000000">
                    <tspan x="479.97296" y="164.003">5</tspan>
                </text>
                <path d="M12.3570829,156.017758 L12.3570829,153.684425 M24.4070827,156.017758 L24.4070827,153.684425 M36.4570825,156.017758 L36.4570825,153.684425 M60.5570822,156.017758 L60.5570822,153.684425 M72.607082,156.017758 L72.607082,153.684425 M84.6570818,156.017758 L84.6570818,153.684425 M108.757081,156.017758 L108.757081,153.684425 M120.807081,156.017758 L120.807081,153.684425 M132.857081,156.017758 L132.857081,153.684425 M156.957081,156.017758 L156.957081,153.684425 M169.007081,156.017758 L169.007081,153.684425 M181.05708,156.017758 L181.05708,153.684425 M205.15708,156.017758 L205.15708,153.684425 M217.20708,156.017758 L217.20708,153.684425 M229.25708,156.017758 L229.25708,153.684425 M253.357079,156.017758 L253.357079,153.684425 M265.407079,156.017758 L265.407079,153.684425 M277.457079,156.017758 L277.457079,153.684425 M301.557078,156.017758 L301.557078,153.684425 M313.607078,156.017758 L313.607078,153.684425 M325.657078,156.017758 L325.657078,153.684425 M349.757078,156.017758 L349.757078,153.684425 M361.807078,156.017758 L361.807078,153.684425 M373.857077,156.017758 L373.857077,153.684425 M397.957077,156.017758 L397.957077,153.684425 M410.007077,156.017758 L410.007077,153.684425 M422.057077,156.017758 L422.057077,153.684425 M446.157076,156.017758 L446.157076,153.684425 M458.207076,156.017758 L458.207076,153.684425 M470.257076,156.017758 L470.257076,153.684425" id="Stroke-7" stroke="#000000" stroke-width="1.5" mask="url(#mask-2)"></path>
                <path d="M48.5070824,157.184424 L48.5070824,152.517758 M96.7070816,157.184424 L96.7070816,152.517758 M144.907081,157.184424 L144.907081,152.517758 M193.10708,157.184424 L193.10708,152.517758 M241.307079,157.184424 L241.307079,152.517758 M289.507079,157.184424 L289.507079,152.517758 M337.707078,157.184424 L337.707078,152.517758 M385.907077,157.184424 L385.907077,152.517758 M434.107076,157.184424 L434.107076,152.517758" id="Stroke-8" stroke="#000000" stroke-width="1.5" mask="url(#mask-2)"></path>
                <path d="M324.4142,173.6553 C324.4142,173.522 324.4552,173.4271 324.5373,173.3707 C324.6193,173.3143 324.7031,173.2861 324.7885,173.2861 C324.8296,173.2861 324.8706,173.2921 324.9117,173.304 C324.9527,173.316 324.9971,173.3357 325.045,173.363 L325.2245,173.4604 C325.2484,173.4741 325.2715,173.4835 325.2937,173.4886 C325.3159,173.4937 325.3407,173.4963 325.3681,173.4963 C325.4536,173.4963 325.5194,173.475 325.5656,173.4323 C325.6117,173.3895 325.7306,173.24 325.922,172.9836 C326.0485,172.8161 326.3357,172.4077 326.7837,171.7583 C326.7837,171.7343 326.7443,171.5507 326.6657,171.2071 C326.587,170.8636 326.5152,170.5722 326.4503,170.333 C326.3853,170.0903 326.3272,169.9305 326.2759,169.8536 C326.2246,169.7767 326.1289,169.7382 325.9887,169.7382 C325.9408,169.7382 325.8468,169.7553 325.7066,169.7895 C325.6177,169.81 325.522,169.834 325.4194,169.8613 L325.3733,169.7024 L325.9425,169.5075 C326.0895,169.4563 326.2254,169.4152 326.3503,169.3845 C326.4751,169.3538 326.5819,169.3384 326.6708,169.3384 C326.8144,169.3384 326.9221,169.3811 326.9939,169.4665 C327.1033,169.6033 327.1956,169.8733 327.2708,170.2766 L327.3786,170.861 C327.6863,170.3894 327.9256,170.0578 328.0966,169.8665 C328.2504,169.6921 328.3958,169.5622 328.5325,169.4768 C328.6693,169.3913 328.7992,169.3486 328.9223,169.3486 C329.0386,169.3486 329.1326,169.3657 329.2044,169.3999 C329.3343,169.4614 329.3993,169.5776 329.3993,169.7485 C329.3993,169.8647 329.3668,169.9553 329.3018,170.0202 C329.2369,170.0852 329.1531,170.1176 329.0505,170.1176 C329.0129,170.1176 328.977,170.1134 328.9429,170.1049 C328.9087,170.0963 328.8727,170.0835 328.8351,170.0664 L328.7018,170.01 C328.6642,169.9929 328.6283,169.9784 328.5941,169.9664 C328.5599,169.9544 328.5343,169.9485 328.5172,169.9485 C328.3633,169.9485 328.1496,170.1476 327.876,170.5457 C327.6025,170.9439 327.4658,171.1738 327.4658,171.2353 C327.4658,171.2866 327.4974,171.4532 327.5606,171.7352 C327.6239,172.0172 327.6932,172.3154 327.7684,172.6299 C327.8367,172.9272 327.8949,173.1323 327.9427,173.2451 C328.0214,173.4297 328.1103,173.522 328.2094,173.522 C328.3017,173.522 328.3958,173.4707 328.4915,173.3681 C328.5872,173.2656 328.7309,173.081 328.9223,172.8144 L329.0659,172.9016 C328.9189,173.1682 328.7667,173.3955 328.6095,173.5835 C328.312,173.9389 328.0282,174.1167 327.7581,174.1167 C327.5871,174.1167 327.4521,174.0347 327.3529,173.8706 C327.2948,173.7749 327.2384,173.6176 327.1837,173.3989 L326.8657,172.1325 L325.8143,173.5117 C325.6092,173.7509 325.451,173.9116 325.3399,173.9937 C325.2288,174.0757 325.0912,174.1167 324.927,174.1167 C324.7082,174.1167 324.5595,174.0483 324.4809,173.9116 C324.4364,173.8398 324.4142,173.7544 324.4142,173.6553 Z" id="Fill-9" fill="#000000" mask="url(#mask-2)"></path>
                <polygon id="Fill-10" fill="#000000" mask="url(#mask-2)" points="241.3071 0.8511 238.3894 6.6844 241.3071 4.9344 244.2248 6.6844"></polygon>
                <path d="M241.307079,308.851082 L241.307079,0.8511" id="Stroke-11" stroke="#000000" stroke-width="1.5" mask="url(#mask-2)"></path>
                <text id="-3" mask="url(#mask-2)" font-family="Helvetica" font-size="6.9999996" font-weight="normal" fill="#000000">
                    <tspan x="230.276389" y="299.8095">-3</tspan>
                </text>
                <text id="-2" mask="url(#mask-2)" font-family="Helvetica" font-size="6.9999996" font-weight="normal" fill="#000000">
                    <tspan x="230.276389" y="252.34532">-2</tspan>
                </text>
                <text id="-1" mask="url(#mask-2)" font-family="Helvetica" font-size="6.9999996" font-weight="normal" fill="#000000">
                    <tspan x="230.276389" y="204.8812">-1</tspan>
                </text>
                <text id="1" mask="url(#mask-2)" font-family="Helvetica" font-size="6.9999996" font-weight="normal" fill="#000000">
                    <tspan x="231.44346" y="109.9528">1</tspan>
                </text>
                <text id="2" mask="url(#mask-2)" font-family="Helvetica" font-size="6.9999996" font-weight="normal" fill="#000000">
                    <tspan x="231.44346" y="62.4886002">2</tspan>
                </text>
                <text id="3" mask="url(#mask-2)" font-family="Helvetica" font-size="6.9999996" font-weight="normal" fill="#000000">
                    <tspan x="231.44346" y="15.0244003">3</tspan>
                </text>
                <path d="M240.140009,285.377575 L242.47415,285.377575 M240.140009,273.511526 L242.47415,273.511526 M240.140009,261.645477 L242.47415,261.645477 M240.140009,237.913378 L242.47415,237.913378 M240.140009,226.047329 L242.47415,226.047329 M240.140009,214.181338 L242.47415,214.181338 M240.140009,190.449239 L242.47415,190.449239 M240.140009,178.58319 L242.47415,178.58319 M240.140009,166.717141 L242.47415,166.717141 M240.140009,142.985042 L242.47415,142.985042 M240.140009,131.118993 L242.47415,131.118993 M240.140009,119.252943 L242.47415,119.252943 M240.140009,95.5208446 L242.47415,95.5208446 M240.140009,83.6548536 L242.47415,83.6548536 M240.140009,71.7888043 L242.47415,71.7888043 M240.140009,48.056694 L242.47415,48.056694 M240.140009,36.1906505 L242.47415,36.1906505 M240.140009,24.324607 L242.47415,24.324607" id="Stroke-12" stroke="#000000" stroke-width="1.5" mask="url(#mask-2)"></path>
                <path d="M238.972939,297.243625 L243.64122,297.243625 M238.972939,249.779427 L243.64122,249.779427 M238.972939,202.315288 L243.64122,202.315288 M238.972939,154.851091 L243.64122,154.851091 M238.972939,107.386894 L243.64122,107.386894 M238.972939,59.922755 L243.64122,59.922755 M238.972939,12.4585635 L243.64122,12.4585635" id="Stroke-13" stroke="#000000" stroke-width="1.5" mask="url(#mask-2)"></path>
                <path d="M219.1327,90.3697 C219.1327,90.2604 219.1669,90.1664 219.2353,90.0877 C219.3037,90.0092 219.4029,89.9699 219.5328,89.9699 C219.6183,89.9699 219.6935,89.9861 219.7585,90.0186 C219.8234,90.051 219.8918,90.098 219.9636,90.1596 L220.0354,90.2108 C220.0559,90.2279 220.079,90.2407 220.1046,90.2493 C220.1303,90.2578 220.1585,90.2621 220.1892,90.2621 C220.3568,90.2621 220.6261,90.0408 220.997,89.5982 C221.368,89.1555 221.5535,88.8333 221.5535,88.6317 C221.5535,88.4403 221.4894,88.0643 221.3612,87.5038 C221.233,86.9432 221.109,86.4442 220.9893,86.0067 C220.8218,85.3915 220.6688,84.9745 220.5303,84.7557 C220.3918,84.537 220.1875,84.4276 219.9174,84.4276 C219.8969,84.4276 219.8619,84.4302 219.8123,84.4353 C219.7627,84.4404 219.6781,84.4498 219.5584,84.4635 L219.5584,84.2943 L220.9586,84.0277 L221.0663,84.0175 C221.1518,84.0072 221.3159,84.3917 221.5586,85.171 C221.7774,85.8717 221.9142,86.381 221.969,86.6989 L222.1741,87.9191 C222.5331,87.3175 222.7964,86.8561 222.9639,86.5348 C223.2921,85.9024 223.4563,85.4598 223.4563,85.2069 C223.4563,85.1488 223.446,85.0916 223.4255,85.0351 C223.405,84.9787 223.3571,84.93 223.2819,84.889 L223.1947,84.8429 C223.14,84.8156 223.0759,84.7643 223.0024,84.6891 C222.9289,84.6139 222.8921,84.5131 222.8921,84.3866 C222.8921,84.2807 222.9263,84.1918 222.9947,84.12 C223.0631,84.0482 223.1656,84.0123 223.3024,84.0123 C223.4734,84.0123 223.6118,84.0627 223.7178,84.1636 C223.8238,84.2644 223.8768,84.4362 223.8768,84.6788 C223.8768,85.0445 223.6768,85.6324 223.2768,86.4425 C222.969,87.0612 222.6254,87.661 222.2459,88.2421 C221.7706,88.9667 221.362,89.5255 221.0201,89.9186 C220.4765,90.5373 220.0251,90.8465 219.6662,90.8465 C219.5259,90.8465 219.402,90.8038 219.2943,90.7184 C219.1866,90.6329 219.1327,90.5167 219.1327,90.3697 Z" id="Fill-14" fill="#000000" mask="url(#mask-2)"></path>
                <polygon id="Stroke-15" stroke="#000000" mask="url(#mask-2)" points="0.01531555 0.55943335 482.598843 0.55943335 482.598843 309.142749 0.01531555 309.142749"></polygon>
            </g>
            <g id="Group-19" transform="translate(241.000000, 0.038900)">
                <mask id="mask-4" fill="white">
                    <use xlink:href="#path-3"></use>
                </mask>
                <g id="Clip-18"></g>
                <polyline id="Stroke-17" stroke="#000000" mask="url(#mask-4)" points="0.3070794 -1728.4358 0.365899738 -304.510641 0.42477843 -257.046444 0.483598768 -229.281704 0.542419106 -209.582246 0.601297797 -194.302239 0.660118135 -181.817506 0.718938474 -171.261857 0.777758812 -162.118107 0.836637503 -154.052766 0.895457841 -146.838042 0.954278179 -140.311534 1.01315687 -134.353309 1.07197721 -128.872309 1.13079755 -123.79766 1.18967624 -119.073301 1.24849658 -114.65391 1.30731691 -110.50256 1.36613725 -106.588569 1.42501594 -102.886269 1.48383628 -99.3738443 1.54265662 -96.0329195 1.60153531 -92.8473946 1.66035565 -89.8035032 1.71917599 -86.88917 1.77805468 -84.0938368 1.83687502 -81.408112 1.89569536 -78.8238288 1.95451569 -76.3334623 2.01339439 -73.9305374 2.07221472 -71.6091042 2.13103506 -69.363796 2.18991375 -67.1897128 2.24873409 -65.0825962 2.30755443 -63.038363 2.36643312 -61.0534548 2.42525346 -59.1243716 2.4840738 -57.2482083 2.54289414 -55.422066 2.60177283 -53.6433602 2.66059317 -51.9096878 2.7194135 -50.2188262 2.77829219 -48.5687163 2.83711253 -46.9574331 2.89593287 -45.3831974 2.95481156 -43.8443349 3.0136319 -42.3393 3.07245224 -40.8666343 3.13127258 -39.4249727 3.19015127 -38.0130436 3.24897161 -36.6296337 3.30779194 -35.2736229 3.36667064 -33.9439438 3.42549097 -32.6395931 3.48431131 -31.3596257 3.54319 -30.1031432 3.60201034 -28.8693 3.66083068 -27.6573025 3.71965102 -26.4663751 3.77852971 -25.2958118 3.83735005 -24.1449244 3.89617039 -23.0130595 3.95504908 -21.8995987 4.01386942 -20.8039529 4.07268975 -19.7255622 4.13156845 -18.6638956 4.19038878 -17.6184339 4.24920912 -16.5886932 4.30802946 -15.5742124 4.36690815 -14.5745366 4.42572849 -13.5892517 4.48454883 -12.6179376 4.54342752 -11.6602151 4.60224786 -10.7156935 4.6610682 -9.78402856 4.71994689 -8.86487028 4.77876722 -7.95788616 4.83758756 -7.06276121 4.8964079 -6.17918043 4.95528659 -5.30685798 5.01410693 -4.44551036 5.07292727 -3.59486225 5.13180596 -2.75465113 5.1906263 -1.92462501 5.24944664 -1.10453889 5.30832533 -0.294158851 5.36714567 0.506743011 5.425966 1.29838574 5.48478634 2.08098068 5.54366503 2.85473322 5.60248537 3.61983959 5.66130571 4.37649172 5.7201844 5.12487451 5.77900474 5.86516646 5.83782508 6.59754084 5.89670377 7.32216213 5.95552411 8.03920126 6.01434445 8.74880872 6.07316478 9.45113618 6.13204348 10.1463295 6.19086381 10.8345403 6.24968415 11.5159027 6.30856284 12.190551 6.36738318 12.8586193 6.42620352 13.5202301 6.48508221 14.1755117 6.54390255 14.8245809 6.60272289 15.46756 6.66154322 16.1045483 6.72042192 16.7356741 6.77924225 17.3610307 6.83806259 17.9807349 6.89694128 18.594874 6.95576162 19.203559 7.01458196 19.8068773 7.07346065 20.404928 7.13228099 20.9977988 7.19110133 21.585583 7.24992167 22.1683621 7.30880036 22.7462237 7.3676207 23.3192554 7.42644103 23.887527 7.48531973 24.4511203 7.54414006 25.0101111 7.6029604 25.5645811 7.66183909 26.1145944 7.72065943 26.6602269 7.77947977 27.2015427 7.83830011 27.7386118 7.8971788 28.2715043 7.95599914 28.8002842 8.01481948 29.32501 8.07369817 29.8457458 8.13251851 30.36255 8.19133884 30.8754808 8.25021753 31.3846024 8.30903787 31.8899674 8.36785821 32.3916282 8.4267369 32.8896373 8.48555724 33.3840531 8.54437758 33.8749281 8.60319792 34.3623031 8.66207661 34.8462364 8.72089695 35.3267747 8.77971728 35.8039647 8.83859598 36.277853 8.89741631 36.7484804 8.95623665 37.2158996 9.01511534 37.6801454 9.07393568 38.1412645 9.13275602 38.5993037 9.19157636 39.0542978 9.25045505 39.5062878 9.30927539 39.9553144 9.36809573 40.4014186 9.42697442 40.8446294 9.48579476 41.2849935 9.54461509 41.722546 9.60349379 42.157316 9.66231412 42.5893443 9.72113446 43.0186659 9.7799548 43.4453101 9.83883349 43.8693117 9.89765383 44.2907059 9.95647417 44.7095275 10.0153529 45.1257941 10.0741732 45.5395524 10.1329935 45.9508199 10.1918722 46.3596374 10.2506926 46.7660282 10.3095129 47.1700157 10.3683332 47.5716407 10.4272119 47.9709206 10.4860323 48.3678848 10.5448526 48.7625623 10.6037313 49.1549764 10.6625516 49.5451564 10.721372 49.9331255 10.7802507 50.3189072 10.839071 50.7025305 10.8978913 51.0840188 10.9567117 51.4633896 11.0155904 51.8406663 11.0744107 52.2158837 11.133231 52.5890537 11.1921097 52.9601995 11.2509301 53.3293445 11.3097504 53.6965061 11.3686291 54.0617195 11.4274494 54.4249903 11.4862698 54.7863419 11.5450901 55.1457977 11.6039688 55.5033752 11.6627892 55.8590977 11.7216095 56.2129827 11.7804882 56.5650476 11.8393085 56.9153101 11.8981289 57.2637934 11.9570076 57.6105093 12.0158279 57.9554751 12.0746482 58.2987201 12.1334686 58.6402442 12.1923473 58.9800825 12.2511676 59.3182467 12.3099879 59.6547133 12.3688666 59.989605 12.427687 60.3228049 12.4865073 60.6544299 12.545386 60.9844216 12.6042063 61.3128382 12.6630267 61.6396799 12.721847 61.9650048 12.7807257 62.2887548 12.839546 62.6109881 12.8983664 62.9317048 12.9572451 63.2509631 13.0160654 63.5687047 13.0748857 63.8849881 13.1337644 64.1998714 13.1925848 64.513238 13.2514051 64.8252047 13.3102254 65.1357713 13.3691041 65.4448796 13.4279245 65.7526463 13.4867448 66.0590713 13.5456235 66.3640963 13.6044438 66.6677212 13.6632642 66.9700629 13.7221429 67.2710629 13.7809632 67.5707212 13.8397836 67.8690962 13.8986039 68.1661878 13.9574826 68.4619961 14.0163029 68.7565211 14.0751233 69.0497628 14.1340019 69.3417794 14.1928223 69.6325127 14.2516426 69.9220794 14.3105213 70.210421 14.3693417 70.4975377 14.428162 70.7834293 14.4869823 71.0681543 14.545861 71.3517126 14.6046814 71.6341043 14.6635017 71.9152709 14.7223804 72.1953876 14.7812007 72.4742792 14.8400211 72.7520626 14.8988998 73.0287375 14.9577201 73.3043042 15.0165404 73.5787625 15.0753608 73.8521125 15.1342395 74.1244125 15.1930598 74.3956041 15.2518801 74.6657458 15.3107588 74.9347791 15.3695792 75.2027624 15.4283995 75.4697541 15.4872782 75.7356957 15.5460985 76.0005874 15.6049189 76.2644874 15.6637976 76.5273373 15.7226179 76.7891957 15.7814382 77.0500623 15.8402586 77.3099373 15.8991373 77.5688206 15.9579576 77.8267123 16.0167779 78.0836706 16.0756566 78.3396372 16.134477 78.5946706 16.1932973 78.8487705 16.252176 79.1019372 16.3109963 79.3541705 16.3698167 79.6054122 16.428637 79.8557788 16.4875157 80.1052705 16.5463361 80.3538288 16.6051564 80.6014538 16.6640351 80.8482038 16.7228554 81.0940787 16.7816758 81.3390787 16.8405544 81.5832037 16.8993748 81.8264537 16.9581951 82.068887 17.0170155 82.310387 17.0758942 82.5511287 17.1347145 82.790937 17.1935348 83.029987 17.2524135 83.268162 17.3112339 83.5055203 17.3700542 83.7420036 17.4289329 83.9777286 17.4877532 84.2126369 17.6053939 84.6800619 17.7230929 85.1443368 17.840792 85.6054618 17.9584326 86.0634951 18.0761317 86.5184951 18.1937723 86.9704617 18.3114714 87.4195117 18.4291704 87.8655867 18.5468111 88.3088033 18.6645101 88.7491616 18.7821508 89.18672 18.8998498 89.6214783 19.0175488 90.0534949 19.1351895 90.4828282 19.2528886 90.9094782 19.3705292 91.3335032 19.4882283 91.7549031 19.6059273 92.1736781 19.723568 92.5899448 19.841267 93.0037031 19.9589077 93.4150114 20.0766067 93.8238114 20.1943057 94.2302197 20.3119464 94.634178 20.4296454 95.035803 20.5472861 95.4350946 20.6649851 95.8320529 20.7826842 96.2267362 20.9003248 96.6191445 21.0180239 97.0093362 21.1356646 97.3973111 21.2533636 97.7830695 21.3710626 98.1667278 21.4887033 98.5481694 21.6064023 98.9275694 21.724043 99.3048694 21.841742 99.6800694 21.9594411 100.053228 22.0770817 100.424403 22.1947808 100.793536 22.3124214 101.160686 22.4301205 101.525911 22.5478195 101.889153 22.6654602 102.250528 22.7831592 102.609978 22.9008582 102.967561 23.0184989 103.323277 23.1361979 103.677186 23.2538386 104.029227 23.3715376 104.379461 23.4892367 104.727944 23.6068773 105.074677 23.7245764 105.419661 23.8422171 105.762894 23.9599161 106.104436 24.0776151 106.444227 24.1952558 106.782386 24.3129548 107.118911 24.4305955 107.453744 24.5482945 107.786944 24.6659936 108.118569 24.7836342 108.448561 24.9013333 108.777035 25.0189739 109.103877 25.136673 109.429144 25.254372 109.752952 25.3720127 110.075185 25.4897117 110.395902 25.6073524 110.71516 25.7250514 111.032902 25.8427504 111.349185 25.9603911 111.66401 26.0780901 111.977435 26.1957308 112.289402 26.3134298 112.59991 26.4311289 112.909077 26.5487696 113.216844 26.6664686 113.52321 26.7841093 113.828235 26.9018083 114.131919 27.0195073 114.43426 27.137148 114.735202 27.254847 115.034918 27.3724877 115.333293 27.4901867 115.630385 27.6078858 115.926135 27.7255264 116.22066 27.8432255 116.51396 27.9608661 116.805918 28.0785652 117.09671 28.1962642 117.386277 28.3139049 117.67456 28.4316039 117.961677 28.5492446 118.247627 28.6669436 118.532352 28.7846426 118.815852 28.9022833 119.098243 29.0199823 119.379468 29.137623 119.659527 29.2553221 119.938477 29.3730211 120.21626 29.4906618 120.492935 29.6083608 120.768501 29.7260015 121.04296 29.8437005 121.31631 29.9613995 121.588551 30.0790402 121.859743 30.1967392 122.129885 30.3143799 122.398976 30.4320789 122.66696 30.549778 122.933951 30.6674186 123.199835 30.7851177 123.464785 30.9027583 123.728626 31.0204574 123.991476 31.1381564 124.253335 31.2557971 124.514201 31.3734961 124.774076 31.4911368 125.03296 31.6088358 125.29091 31.7265348 125.547868 31.8441755 125.803835 31.9618746 126.058868 32.0795152 126.312968 32.1972143 126.566076 32.3149133 126.818309 32.432554 127.069609 32.550253 127.319976 32.6678937 127.569409 32.7855927 127.817968 32.9032917 128.065651 33.0209324 128.312401 33.1386314 128.558276 33.2562721 128.803276 33.3739711 129.047401 33.4916702 129.290651 33.6093108 129.533026 33.7270099 129.774584 33.8446506 130.015268 33.9623496 130.255134 34.0800486 130.494126 34.1976893 130.732301 34.3153883 130.969659 34.433029 131.206201 34.550728 131.441926 34.6684271 131.676834 34.7860677 131.910926 34.9037668 132.144259 35.0214074 132.376776 35.1391065 132.608476 35.2568055 132.839476 35.3744462 133.069601 35.4921452 133.299026 35.6097859 133.527634 35.7274849 133.755542 35.8451839 133.982634 35.9628246 134.209026 36.0805236 134.434659 36.1981643 134.659534 36.3158634 134.883651 36.4335624 135.107067 36.5512031 135.329784 36.6689021 135.551742 36.7865428 135.773001 36.9042418 135.993501 37.0219408 136.213359 37.1395815 136.432459 37.2572805 136.650917 37.3749212 136.868617 37.4926202 137.085676 37.6103193 137.302034 37.7279599 137.517692 37.845659 137.732709 37.9632996 137.947025 38.0809987 138.1607 38.1986977 138.373675 38.3163384 138.586009 38.4340374 138.797642 38.5517364 139.008692 38.6693771 139.219042 38.7870761 139.428809 38.9047168 139.637875 39.0224159 139.846359 39.1401149 140.054142 39.2577556 140.261342 39.3754546 140.4679 39.4930953 140.673875 39.6107943 140.87915 39.7284933 141.0839 39.846134 141.288009 39.963833 141.491475 40.0814737 141.694359 40.1991727 141.896659 40.3168718 142.098375 40.4345124 142.29945 40.5522115 142.5 40.6698521 142.699909 40.7875512 142.899292 40.9052502 143.098034 41.0228909 143.29625 41.1405899 143.493884 41.2582306 143.690934 41.3759296 143.8874 41.4936286 144.083342 41.6112693 144.2787 41.7289684 144.473533 41.846609 144.667783 41.9643081 144.86145 42.0820071 145.05465 42.1996478 145.247267 42.3173468 145.439358 42.4349875 145.630867 42.5526865 145.821908 42.6703855 146.012367 42.7880262 146.2023 42.9057252 146.391767 43.0233659 146.58065 43.1410649 146.769008 43.258764 146.9569 43.3764046 147.144208 43.4941037 147.33105 43.6117444 147.517425 43.7294434 147.703217 43.8471424 147.888542 43.9647831 148.0734 44.0824821 148.257675 44.2001228 148.441542 44.3178218 148.624883 44.4355209 148.8077 44.5531615 148.99005 44.6708606 149.171933 44.7885012 149.35335 44.9062003 149.534242 45.0238993 149.714666 45.14154 149.894683 45.259239 150.074175 45.3768797 150.2532 45.4945787 150.431758 45.6122777 150.60985 45.7299184 150.787475 45.8476174 150.964633 45.9652581 151.141325 46.0829571 151.317608 46.2006562 151.493425 46.3182969 151.668775 46.4359959 151.843658 46.5536366 152.018133 46.6713356 152.192141 46.7890346 152.365741 46.9066753 152.538875 47.0243743 152.711541 47.142015 152.883858 47.259714 153.05565 47.3774131 153.227091 47.4950537 153.398066 47.6127528 153.568575 47.7303934 153.738733 47.8480925 153.908425 47.9657915 154.077708 48.0834322 154.246583 48.2011312 154.41505 48.3187719 154.583108 48.4364709 154.7507 48.5541699 154.917941 48.6718106 155.084716 48.7895096 155.251141 48.9071503 155.417158 49.0248494 155.582766 49.1425484 155.747966 49.2601891 155.912758 49.3778881 156.077141 49.4955288 156.241174 49.6132278 156.404799 49.7309268 156.568016 49.8485675 156.730883 49.9662665 156.893341 50.0839072 157.055391 50.2016062 157.217091 50.3193053 157.378441 50.4369459 157.539383 50.554645 157.699916 50.6722856 157.860099 50.7899847 158.019874 50.9076837 158.179299 51.0253244 158.338374 51.1430234 158.497099 51.2606641 158.655416 51.3783631 158.813383 51.4960621 158.970941 51.6137028 159.128208 51.7314019 159.285066 51.8490425 159.441574 51.9667416 159.597733 52.0844406 159.753541 52.2020813 159.908999 52.3197803 160.064108 52.437421 160.218866 52.55512 160.373274 52.672819 160.527333 52.7904597 160.681041 52.9081587 160.834399 53.0258578 160.987408 53.1434984 161.140066 53.2611975 161.292432 53.3788381 161.444449 53.4965372 161.596057 53.6142362 161.747432 53.7318769 161.898399 53.8495759 162.049074 53.9672166 162.199399 54.0849156 162.349432 54.2026147 162.499057 54.3202553 162.648449 54.4379544 162.797432 54.555595 162.946182 54.6732941 163.094524 54.7909931 163.242574 54.9086338 163.390332 55.0263328 163.537741 55.1439735 163.684857 55.2616725 163.831624 55.3793715 163.978099 55.4970122 164.124282 55.6147112 164.270116 55.7323519 164.415657 55.8500509 164.560907 55.96775 164.705807 56.0853907 164.850416 56.2030897 164.994732 56.3207304 165.138757 56.4384294 165.282491 56.5561284 165.425874 56.6737691 165.568966 56.7914681 165.711766 56.9091088 165.854274 57.0268078 165.996491 57.1445069 166.138416 57.2621475 166.280049 57.3798466 166.421391 57.4974872 166.562441 57.6151863 166.703199 57.7328853 166.843666 57.850526 166.983841 57.968225 167.123724 58.0858657 167.263315 58.2035647 167.402615 58.3212637 167.541682 58.4389044 167.680457 58.5566034 167.81894 58.6742441 167.957132 58.7919432 168.095032 58.9096422 168.23264 59.0272829 168.370015 59.1449819 168.507099 59.2626226 168.643949 59.3803216 168.780507 59.4980206 168.916774 59.6156613 169.052749 59.7333603 169.18849 59.851001 169.32394 59.9687 169.459157 60.0863991 169.594082 60.2040397 169.728715 60.3217388 169.863115 60.4393794 169.997282 60.5570785 170.131157 60.6747775 170.26474 60.7924182 170.39809 60.9101172 170.531207 61.0277579 170.664032 61.1454569 170.796624 61.2631559 170.928924 61.3807966 171.06099 61.4984957 171.192824 61.6161363 171.324365 61.7338354 171.455674 61.8515344 171.586749 61.9691751 171.717532 62.0868741 171.848082 62.2045148 171.978399 62.3222138 172.108482 62.4399128 172.238274 62.5575535 172.367832 62.6752525 172.497157 62.7928932 172.626249 62.9105922 172.755107 63.0282913 172.883674 63.1459319 173.012007 63.263631 173.140165 63.3812717 173.268032 63.4989707 173.395665 63.6166697 173.523065 63.7343104 173.650232 63.8520094 173.777107 63.9696501 173.903807 64.0873491 174.030273 64.2050482 174.156507 64.3226888 174.282507 64.4403879 174.408273 64.5580285 174.533807 64.6757276 174.659107 64.7934266 174.784173 64.9110673 174.909007 65.0287663 175.033607 65.146407 175.158032 65.264106 175.282165 65.381805 175.406123 65.4994457 175.529848 65.6171447 175.65334 65.7347854 175.776598 65.8524844 175.899623 65.9701835 176.022473 66.0878242 176.14509 66.2055232 176.267473 66.3231639 176.389623 66.4408629 176.511598 66.5585619 176.63334 66.6762026 176.754848 66.7939016 176.876123 66.9115423 176.997223 67.0292413 177.11809 67.1469404 177.238782 67.264581 177.35924 67.3822801 177.479465 67.4999207 177.599515 67.6176198 177.719332 67.7353188 177.838915 67.8529595 177.958323 67.9706585 178.077498 68.0882992 178.196498 68.2059982 178.315265 68.3236972 178.433857 68.4413379 178.552215 68.5590369 178.670398 68.676736 178.788348 68.7943767 178.906123 68.9120757 179.023665 69.0297164 179.141031 69.1474154 179.258165 69.2651144 179.375123 69.3827551 179.491848 69.5004541 179.608398 69.6180948 179.724773 69.7357938 179.840973 69.8534929 179.956881 69.9711335 180.072673 70.0888326 180.188231 70.2064732 180.303615 70.3241723 180.418823 70.4418713 180.533798 70.559512 180.648598 70.677211 180.763223 70.7948517 180.877615 70.9125507 180.991831 71.0302497 181.105873 71.1478904 181.219681 71.2655894 181.333373 71.3832301 181.446831 71.5009292 181.560115 71.6186282 181.673223 71.7362689 181.786098 71.8539679 181.898798 71.9716086 182.011323 72.0893076 182.123673 72.2070066 182.235848 72.3246473 182.347848 72.4423463 182.459615 72.559987 182.571265 72.677686 182.682681 72.7953851 182.793923 72.9130257 182.905048 73.0307248 183.01594 73.1483654 183.126598 73.2660645 183.23714 73.3837635 183.347506 73.5014042 183.457698 73.6191032 183.567715 73.7367439 183.677498 73.8544429 183.787165 73.9721419 183.896656 74.0897826 184.005973 74.2074817 184.115056 74.3251223 184.224023 74.4428214 184.332815 74.5605204 184.441431 74.6781611 184.549873 74.7958601 184.658081 74.9135008 184.766173 75.0311998 184.874148 75.1488988 184.981889 75.2665395 185.089456 75.3842385 185.196848 75.5018792 185.304123 75.6195782 185.411223 75.7372773 185.518089 75.8549179 185.624839 75.972617 185.731414 76.0902577 185.837814 76.2079567 185.944098 76.3256557 186.050148 76.4432964 186.156081 76.5609954 186.261839 76.6786361 186.367423 76.7963351 186.472889 76.9140342 186.578123 77.0316748 186.683239 77.1493739 186.788181 77.2670145 186.892948 77.3847136 186.997598 77.5024126 187.102073 77.6200533 187.206373 77.7377523 187.310498 77.855393 187.414506 77.973092 187.518339 78.090791 187.621998 78.2084317 187.725539 78.3261307 187.828848 78.4437714 187.932098 78.5614705 188.035114 78.6791695 188.138014 78.7968102 188.240739 78.9145092 188.343348 79.0321499 188.445781 79.1498489 188.548039 79.2675479 188.650181 79.3851886 188.752148 79.5028876 188.853998 79.6205283 188.955673 79.7382273 189.057173 79.8559264 189.158556 79.973567 189.259764 80.0912661 189.360856 80.2089067 189.461773 80.3266058 189.562573 80.4443048 189.663198 80.5619455 189.763648 80.6796445 189.863981 80.7972852 189.964198 80.9149842 190.064181 81.0326832 190.164106 81.1503239 190.263856 81.268023 190.363431 81.3856636 190.462889 81.5033627 190.562231 81.6210617 190.661397 81.7387024 190.760389 81.8564014 190.859322 81.9740421 190.958022 82.0917411 191.056664 82.2094401 191.155072 82.3270808 191.253422 82.4447798 191.351597 82.5624205 191.449597 82.6801195 191.547481 82.7978186 191.645247 82.9154592 191.742897 83.0331583 191.840372 83.1508573 191.937672 83.268498 192.034914 83.386197 192.131922 83.5038377 192.228872 83.6215367 192.325647 83.7392357 192.422306 83.8568764 192.518847 83.9745755 192.615214 84.0922161 192.711464 84.2099152 192.807539 84.3276142 192.903497 84.4452549 192.999339 84.5629539 193.095064 84.6805946 193.190614 84.7982936 193.286047 84.9159926 193.381364 85.0336333 193.476564 85.1513323 193.571589 85.268973 193.666497 85.386672 193.761289 85.5043711 193.855906 85.6220117 193.950406 85.7397108 194.044789 85.8573515 194.139056 85.9750505 194.233206 86.0927495 194.327181 86.2103902 194.421039 86.3280892 194.514781 86.4457299 194.608406 86.5634289 194.701914 86.681128 194.795247 86.7987686 194.888464 86.9164677 194.981564 87.0341083 195.074547 87.1518074 195.167414 87.2695064 195.260106 87.3871471 195.352739 87.5048461 195.445197 87.6224868 195.537539 87.7401858 195.629764 87.8578848 195.721872 87.9755255 195.813864 88.0932245 195.905681 88.2108652 195.997439 88.3285642 196.089022 88.4462633 196.180547 88.563904 196.271897 88.681603 196.36313 88.7992437 196.454247 88.9169427 196.545247 89.0346417 196.63613 89.1522824 196.726897 89.2699814 196.817489 89.3876221 196.908022 89.5053211 196.998439 89.6230202 197.088739 89.7406608 197.178864 89.8583599 197.26893 89.9760005 197.358822 90.0936996 197.448655 90.2113986 197.538314 90.3290393 197.627914 90.4467383 197.717339 90.564379 197.806705 90.682078 197.895897 90.799777 197.98503 90.9174177 198.073989 91.0351167 198.162889 91.1527574 198.251614 91.2704565 198.34028 91.3881555 198.428772 91.5057962 198.517205 91.6234952 198.605522 91.7411359 198.693722 91.8588349 198.781747 91.9765339 198.869714 92.0941746 198.957564 92.2118736 199.045297 92.3295143 199.132914 92.4472133 199.220414 92.5649124 199.307855 92.682553 199.395122 92.8002521 199.48233 92.9178927 199.569364 93.0355918 199.656339 93.1532908 199.743139 93.2709315 199.82988 93.3886305 199.916505 93.5062712 200.003014 93.6239702 200.089464 93.7416692 200.175739 93.8593099 200.261955 93.977009 200.347997 94.0946496 200.43398 94.2123487 200.519847 94.3300477 200.605597 94.4476884 200.69123 94.5653874 200.776805 94.6830281 200.862205 94.8007271 200.947547 94.9184261 201.032772 95.0360668 201.11788 95.1537658 201.20293 95.2714065 201.287805 95.3891055 201.372622 95.5068046 201.457322 95.6244452 201.541905 95.7421443 201.626372 95.859785 201.71078 95.977484 201.795072 96.095183 201.879247 96.2128237 201.963305 96.3305227 202.047247 96.4481634 202.13113 96.5658624 202.214897 96.6835615 202.298547 96.8012021 202.38208 96.9189012 202.465555 97.0365418 202.548913 97.1542409 202.632155 97.2719399 202.715338 97.3895806 202.798405 97.5072796 202.881355 97.6249203 202.964188 97.7426193 203.046905 97.8603183 203.129563 97.977959 203.212105 98.095658 203.294588 98.2132987 203.376955 98.3309977 203.459205 98.4486968 203.541338 98.5663375 203.623413 98.6840365 203.705372 98.8017355 203.787213 98.9193762 203.868997 99.0370752 203.950663 99.1547159 204.032213 99.2724149 204.113705 99.390114 204.19508 99.5077546 204.276338 99.6254537 204.357538 99.7430943 204.438622 99.8607934 204.519588 99.9784924 204.600497 100.096133 204.681288 100.213832 204.761963 100.331473 204.84258 100.449172 204.923138 100.566871 205.003522 100.684512 205.083847 100.802211 205.164113 100.919851 205.244205 101.03755 205.324238 101.155249 205.404213 101.27289 205.484072 101.390589 205.563813 101.50823 205.643497 101.625929 205.723063 101.743628 205.802572 101.861268 205.881963 101.978967 205.961238 102.096608 206.040455 102.214307 206.119555 102.332006 206.198597 102.449647 206.277522 102.567346 206.356388 102.684987 206.435138 102.802686 206.51383 102.920385 206.592405 103.038025 206.670863 103.155724 206.749263 103.273365 206.827547 103.391064 206.905772 103.508763 206.98388 103.626404 207.06193 103.744103 207.139863 103.861743 207.217738 103.979442 207.295497 104.097141 207.373197 104.214782 207.45078 104.332481 207.528305 104.450122 207.605713 104.567821 207.683063 104.68552 207.760297 104.803161 207.837413 104.92086 207.91453 105.0385 207.991471 105.156199 208.068413 105.273898 208.14518 105.391539 208.221946 105.509238 208.298538 105.626879 208.37513 105.744578 208.451605 105.862277 208.527963 105.979917 208.604263 106.097617 208.680446 106.215257 208.756571 106.332956 208.832638 106.450655 208.908588 106.568296 208.98448 106.685995 209.060255 106.803636 209.135971 106.921335 209.211571 107.039034 209.287113 107.156674 209.362596 107.274373 209.437963 107.392014 209.513271 107.509713 209.588463 107.627412 209.663596 107.745053 209.738613 107.862752 209.813571 107.980393 209.888471 108.098092 209.963255 108.215791 210.03798 108.333431 210.112588 108.45113 210.187138 108.568771 210.26163 108.68647 210.336005 108.804169 210.410321 108.92181 210.48458 109.039509 210.558721 109.157149 210.632805 109.274848 210.706771 109.392547 210.78068 109.510188 210.85453 109.627887 210.928263 109.745528 211.001938 109.863227 211.075496 109.980926 211.149055 110.098567 211.222438 110.216266 211.295821 110.333906 211.369088 110.451605 211.442296 110.569304 211.515388 110.686945 211.588421 110.804644 211.661396 110.922285 211.734313 111.039984 211.807113 111.157683 211.879855 111.275323 211.95248 111.393022 212.025046 111.510663 212.097555 111.628362 212.170005 111.746061 212.242338 111.863702 212.314613 111.981401 212.38683 112.099042 212.45893 112.216741 212.530971 112.33444 212.602955 112.45208 212.674821 112.569779 212.74663 112.68742 212.81838 112.805119 212.890071 112.922818 212.961646 113.040459 213.033163 113.158158 213.104563 113.275857 213.175963 113.393498 213.247246 113.511197 213.318471 113.628837 213.389638 113.746536 213.460688 113.864235 213.53168 113.981876 213.602613 114.099575 213.67343 114.217216 213.744246 114.334915 213.814946 114.452614 213.885588 114.570254 213.956113 114.687953 214.026579 114.805594 214.097046 114.923293 214.167338 115.040992 214.237629 115.158633 214.307804 115.276332 214.377921 115.393973 214.447979 115.511672 214.517979 115.629371 214.587863 115.747011 214.657746 115.86471 214.727513 115.982351 214.797221 116.10005 214.866813 116.217749 214.936346 116.33539 215.005879 116.453089 215.075296 116.570729 215.144596 116.688428 215.213896 116.806127 215.283079 116.923768 215.352204 117.041467 215.421271 117.159108 215.490279 117.276807 215.559229 117.394506 215.628063 117.512147 215.696838 117.629846 215.765554 117.747486 215.834213 117.865185 215.902813 117.982884 215.971296 118.100525 216.039721 118.218224 216.108088 118.335865 216.176396 118.453564 216.244646 118.571263 216.312838 118.688903 216.380913 118.806603 216.448988 118.924243 216.516946 119.041942 216.584846 119.159641 216.652688 119.277282 216.720413 119.394981 216.788138 119.512622 216.855746 119.630321 216.923296 119.74802 216.990788 119.86566 217.058221 119.983359 217.125596 120.101 217.192913 120.218699 217.260171 120.336398 217.327313 120.454039 217.394396 120.571738 217.461421 120.689379 217.528388 120.807078 217.595296 120.924777 217.662146 121.042417 217.728938 121.160116 217.795613 121.277757 217.862288 121.395456 217.928846 121.513155 217.995404 121.630796 218.061846 121.748495 218.128229 121.866135 218.194554 121.983834 218.260763 122.101533 218.326971 122.219174 218.393121 122.336873 218.459154 122.454514 218.525188 122.572213 218.591104 122.689912 218.656963 122.807553 218.722821 122.925252 218.788563 123.042892 218.854246 123.160591 218.919871 123.27829 218.985438 123.395931 219.050888 123.51363 219.116338 123.631271 219.181729 123.74897 219.247004 123.866669 219.312279 123.984309 219.377438 124.102008 219.442596 124.219649 219.507638 124.337348 219.572621 124.455047 219.637546 124.572688 219.702471 124.690387 219.767279 124.808028 219.832029 124.925727 219.896721 125.043426 219.961354 125.161066 220.025929 125.278765 220.090446 125.396406 220.154846 125.514105 220.219246 125.631804 220.283587 125.749445 220.347871 125.867144 220.412037 125.984784 220.476204 126.102484 220.540312 126.220183 220.604304 126.337823 220.668296 126.455522 220.732171 126.573163 220.796046 126.690862 220.859804 126.808561 220.923562 126.926202 220.987204 127.043901 221.050846 127.161541 221.114371 127.27924 221.177896 127.396939 221.241304 127.51458 221.304654 127.632279 221.368004 127.74992 221.431237 127.867619 221.494471 127.985318 221.557587 128.102959 221.620704 128.220658 221.683704 128.338298 221.746646 128.455997 221.809587 128.573696 221.872412 128.691337 221.935237 128.809036 221.997946 128.926735 222.060654 129.044376 222.123246 129.162075 222.185837 129.279715 222.248312 129.397414 222.310787 129.515113 222.373146 129.632754 222.435504 129.750453 222.497804 129.868094 222.559987 129.985793 222.622171 130.103492 222.684296 130.221133 222.746362 130.338832 222.808312 130.456472 222.870262 130.574171 222.932154 130.69187 222.993987 130.809511 223.055762 130.92721 223.117479 131.044851 223.179137 131.16255 223.240737 131.280249 223.302337 131.397889 223.363821 131.515589 223.425246 131.633229 223.486612 131.750928 223.547979 131.868627 223.609229 131.986268 223.670479 132.103967 223.731612 132.221608 223.792746 132.339307 223.853821 132.457006 223.914779 132.574646 223.975737 132.692345 224.036637 132.809986 224.097479 132.927685 224.158262 133.045384 224.218987 133.163025 224.279712 133.280724 224.340321 133.398365 224.400871 133.516064 224.461421 133.633763 224.521854 133.751403 224.582287 133.869102 224.642662 133.986743 224.702921 134.104442 224.763179 134.222141 224.823379 134.339782 224.883521 134.457481 224.943662 134.575121 225.003687 134.69282 225.063654 134.810519 225.123621 134.92816 225.183471 135.045859 225.243321 135.1635 225.303112 135.281199 225.362846 135.398898 225.422462 135.516539 225.482137 135.634238 225.541695 135.751878 225.601195 135.869577 225.660695 135.987276 225.720079 136.104917 225.779462 136.222616 225.838787 136.340257 225.897995 136.457956 225.957204 136.575655 226.016412 136.693295 226.075504 136.810994 226.134537 136.928635 226.19357 137.046334 226.252545 137.164033 226.311404 137.281674 226.370262 137.399373 226.429062 137.517014 226.487804 137.634713 226.546545 137.752412 226.60517 137.870052 226.663795 137.987751 226.722362 138.105392 226.78087 138.223091 226.83932 138.34079 226.897712 138.458431 226.956045 138.57613 227.014379 138.69377 227.072595 138.81147 227.130812 138.929169 227.18897 139.046809 227.24707 139.164508 227.305112 139.282149 227.363154 139.399848 227.421079 139.517547 227.479004 139.635188 227.53687 139.752887 227.594679 139.870527 227.652429 139.988226 227.71012 140.105925 227.767812 140.223566 227.825387 140.341265 227.882962 140.458906 227.940479 140.576605 227.997995 140.694304 228.055395 140.811945 228.112795 140.929644 228.170079 141.047284 228.227362 141.164983 228.284587 141.282682 228.341812 141.400323 228.39892 141.518022 228.456029 141.635663 228.513079 141.753362 228.57007 141.871061 228.627004 141.988701 228.683879 142.1064 228.740754 142.224041 228.797512 142.34174 228.85427 142.459439 228.911029 142.57708 228.96767 142.694779 229.024254 142.81242 229.080837 142.930119 229.137362 143.047818 229.193829 143.165458 229.250295 143.283157 229.306645 143.400856 229.362995 143.518497 229.419287 143.636196 229.47552 143.753837 229.531754 143.871536 229.58787 143.989235 229.643987 144.106875 229.700045 144.224575 229.756045 144.342215 229.812045 144.459914 229.867929 144.577613 229.923812 144.695254 229.979637 144.812953 230.035462 144.930594 230.09117 145.048293 230.146879 145.165992 230.202529 145.283632 230.25812 145.401331 230.313654 145.518972 230.369187 145.636671 230.424662 145.75437 230.480079 145.872011 230.535495 145.98971 230.590795 146.107351 230.646095 146.22505 230.701337 146.342749 230.75652 146.460389 230.811704 146.578088 230.866829 146.695729 230.921895 146.813428 230.976904 146.931127 231.031854 147.048768 231.086804 147.166467 231.141695 147.284107 231.196529 147.401806 231.251362 147.519505 231.306137 147.637146 231.360853 147.754845 231.415512 147.872486 231.470112 147.990185 231.524712 148.107884 231.579253 148.225525 231.633737 148.343224 231.68822 148.460864 231.742587 148.578563 231.796953 148.696262 231.85132 148.813903 231.90557 148.931602 231.95982 149.049243 232.014012 149.166942 232.068203 149.284641 232.122278 149.402281 232.176353 149.51998 232.23037 149.637621 232.284387 149.75532 232.338287 149.873019 232.392187 149.99066 232.446028 150.108359 232.49987 150.226 232.553653 150.343699 232.607378 150.461398 232.661045 150.579038 232.714712 150.696737 232.76832 150.814378 232.82187 150.932077 232.875362 151.049776 232.928853 151.167417 232.982287 151.285116 233.035662 151.402756 233.089037 151.520456 233.142353 151.638155 233.195612 151.755795 233.248812 151.873494 233.302012 151.991135 233.355153 152.108834 233.408237 152.226533 233.46132 152.344174 233.514345 152.461873 233.567312 152.579513 233.620278 152.697212 233.673187 152.814911 233.726037 152.932552 233.778828 153.050251 233.83162 153.167892 233.884353 153.285591 233.937028 153.40329 233.989703 153.520931 234.04232 153.63863 234.094878 153.75627 234.147437 153.873969 234.199878 153.991668 234.252378 154.109309 234.304762 154.227008 234.357145 154.344649 234.40947 154.462348 234.461795 154.580047 234.514003 154.697687 234.566212 154.815386 234.61842 154.933027 234.670512 155.050726 234.722603 155.168425 234.774695 155.286066 234.82667 155.403765 234.878645 155.521406 234.93062 155.639105 234.982478 155.756804 235.034337 155.874444 235.086195 155.992143 235.137937 156.109784 235.189678 156.227483 235.24142 156.345182 235.293045 156.462823 235.34467 156.580522 235.396237 156.698162 235.447803 156.815862 235.499312 156.933561 235.550762 157.051201 235.602212 157.1689 235.653603 157.286541 235.704937 157.40424 235.75627 157.521939 235.807545 157.63958 235.858762 157.757279 235.909978 157.874919 235.961137 157.992618 236.012237 158.110317 236.063337 158.227958 236.114378 158.345657 236.165362 158.463298 236.216345 158.580997 236.26727 158.698696 236.318195 158.816337 236.369003 158.934036 236.419812 159.051735 236.47062 159.169375 236.52137 159.287074 236.572062 159.404715 236.622753 159.522414 236.673387 159.640113 236.723962 159.757754 236.774537 159.875453 236.825053 159.993093 236.875512 160.110792 236.92597 160.228491 236.97637 160.346132 237.026712 160.463831 237.077053 160.581472 237.127336 160.699171 237.17762 160.81687 237.227845 160.934511 237.278011 161.05221 237.328178 161.16985 237.378286 161.287549 237.428336 161.405248 237.478386 161.522889 237.528378 161.640588 237.57837 161.758229 237.628303 161.875928 237.678178 161.993627 237.727995 162.111267 237.77787 162.228967 237.827628 162.346607 237.877386 162.464306 237.927086 162.582005 237.976728 162.699646 238.02637 162.817345 238.076011 162.934986 238.125536 163.052685 238.17512 163.170384 238.224586 163.288024 238.274053 163.405723 238.323461 163.523364 238.37287 163.641063 238.42222 163.758762 238.471511 163.876403 238.520803 163.994102 238.570036 164.111743 238.61927 164.229442 238.668445 164.347141 238.717561 164.464781 238.766678 164.58248 238.815736 164.700121 238.864795 164.81782 238.913795 164.935519 238.962736 165.05316 239.011678 165.170859 239.060561 165.288499 239.109445 165.406198 239.15827 165.523897 239.207036 165.641538 239.255803 165.759237 239.304511 165.876878 239.35322 165.994577 239.40187 166.112276 239.450461 166.229917 239.499053 166.347616 239.547586 166.465256 239.59612 166.582955 239.644595 166.700654 239.69307 166.818295 239.741428 166.935994 239.789845 167.053635 239.838145 167.171334 239.886503 167.289033 239.934745 167.406673 239.982986 167.524372 240.031228 167.642013 240.079353 167.759712 240.127536 167.877411 240.175603 167.995052 240.22367 168.112751 240.271736 168.230392 240.319745 168.348091 240.367695 168.46579 240.415645 168.58343 240.463536 168.701129 240.511428 168.81877 240.559261 168.936469 240.607036 169.054168 240.654811 169.171809 240.702528 169.289508 240.750245 169.407148 240.797903 169.524848 240.845561 169.642547 240.893161 169.760187 240.940703 169.877886 240.988245 169.995527 241.035786 170.113226 241.083211 170.230925 241.130695 170.348566 241.178061 170.466265 241.225428 170.583905 241.272795 170.701604 241.320103 170.819303 241.367353 170.936944 241.414603 171.054643 241.461795 171.172284 241.508986 171.289983 241.55612 171.407682 241.603253 171.525323 241.650328 171.643022 241.697403 171.760662 241.744361 171.878361 241.791378 171.99606 241.838336 172.113701 241.885236 172.2314 241.932136 172.349041 241.978978 172.46674 242.02582 172.584439 242.072603 172.702079 242.119328 172.819778 242.166053 172.937419 242.212778 173.055118 242.259445 173.172817 242.306053 173.290458 242.352661 173.408157 242.399211 173.525856 242.445761 173.643497 242.492253 173.761196 242.538745 173.878836 242.585178 173.996535 242.631553 174.114234 242.677986 174.231875 242.724303 174.349574 242.77062 174.467215 242.816878 174.584914 242.863136 174.702613 242.909395 174.820253 242.955594 174.937953 243.001736 175.055593 243.047878 175.173292 243.093961 175.290991 243.139986 175.408632 243.186069 175.526331 243.232036 175.643972 243.278003 175.761671 243.323969 175.87937 243.369878 175.99701 243.415786 176.114709 243.461636 176.23235 243.507428 176.350049 243.553219 176.467748 243.598953 176.585389 243.644686 176.703088 243.690419 176.820729 243.736036 176.938428 243.781711 177.056127 243.827328 177.173767 243.872886 177.291466 243.918444 177.409107 243.963944 177.526806 244.009444 177.644505 244.054886 177.762146 244.100328 177.879845 244.145711 177.997485 244.191036 178.115184 244.236361 178.232883 244.281686 178.350524 244.326953 178.468223 244.372219 178.585864 244.417428 178.703563 244.462636 178.821262 244.507786 178.938903 244.552878 179.056602 244.597969 179.174242 244.643061 179.291941 244.688094 179.40964 244.733069 179.527281 244.778044 179.64498 244.823019 179.762621 244.867936 179.88032 244.912794 179.998019 244.957653 180.115659 245.002511 180.233358 245.047311 180.350999 245.092053 180.468698 245.136794 180.586397 245.181536 180.704038 245.226219 180.821737 245.270844 180.939378 245.315469 181.057077 245.360094 181.174776 245.404661 181.292416 245.449169 181.410115 245.493678 181.527756 245.538186 181.645455 245.582636 181.763154 245.627028 181.880795 245.671419 181.998494 245.715811 182.116134 245.760144 182.233834 245.804419 182.351533 245.848753 182.469173 245.892969 182.586872 245.937186 182.704513 245.981403 182.822212 246.025561 182.939911 246.069661 183.057552 246.113819 183.175251 246.157861 183.292891 246.201903 183.41059 246.245944 183.528289 246.289928 183.64593 246.333911 183.763629 246.377836 183.88127 246.421761 183.998969 246.465628 184.116668 246.509494 184.234309 246.553303 184.352008 246.597111 184.469648 246.640861 184.587347 246.684611 184.705046 246.728303 184.822687 246.771994 184.940386 246.815686 185.058027 246.859319 185.175726 246.902894 185.293425 246.946469 185.411065 246.990044 185.528764 247.033561 185.646405 247.077019 185.764104 247.120478 185.881803 247.163936 185.999444 247.207336 186.117143 247.250736 186.234784 247.294078 186.352483 247.337419 186.470182 247.380703 186.587822 247.423986 186.705521 247.467211 186.823162 247.510436 186.940861 247.553603 187.05856 247.596769 187.176201 247.639936 187.2939 247.683044 187.41154 247.726094 187.529239 247.769144 187.646939 247.812194 187.764579 247.855186 187.882278 247.898178 187.999919 247.941111 188.117618 247.984044 188.235317 248.026919 188.352958 248.069794 188.470657 248.112611 188.588297 248.155428 188.705996 248.198186 188.823695 248.240944 188.941336 248.283703 189.059035 248.326403 189.176734 248.369103 189.294375 248.411744 189.412074 248.454328 189.529715 248.496969 189.647414 248.539494 189.765113 248.582078 189.882753 248.624603 190.000452 248.667069 190.118093 248.709536 190.235792 248.752003 190.353491 248.794411 190.471132 248.836761 190.588831 248.879169 190.706471 248.921461 190.82417 248.963811 190.941869 249.006044 191.05951 249.048336 191.177209 249.090569 191.29485 249.132744 191.412549 249.174919 191.530248 249.217094 191.647889 249.259211 191.765588 249.301327 191.883228 249.343386 192.000927 249.385444 192.118626 249.427444 192.236267 249.469444 192.353966 249.511444 192.471607 249.553386 192.589306 249.595327 192.707005 249.637211 192.824645 249.679036 192.942344 249.720919 193.059985 249.762744 193.177684 249.804511 193.295383 249.846277 193.413024 249.888044 193.530723 249.929752 193.648364 249.971402 193.766063 250.013111 193.883762 250.054761 194.001402 250.096352 194.119101 250.137944 194.236742 250.179477 194.354441 250.221069 194.47214 250.262544 194.589781 250.304019 194.70748 250.345494 194.82512 250.386969 194.94282 250.428327 195.060519 250.469744 195.178159 250.511102 195.295858 250.552461 195.413499 250.593761 195.531198 250.635061 195.648897 250.676302 195.766538 250.717544 195.884237 250.758786 196.001877 250.799969 196.119576 250.841094 196.237275 250.882277 196.354916 250.923344 196.472615 250.964469 196.590256 251.005536 196.707955 251.046544 196.825654 251.087552 196.943295 251.128561 197.060994 251.169511 197.178634 251.210461 197.296333 251.251411 197.414032 251.292302 197.531673 251.333136 197.649372 251.374027 197.767013 251.414802 197.884712 251.455636 198.002411 251.496411 198.120051 251.537127 198.23775 251.577844 198.355391 251.618561 198.47309 251.659219 198.590789 251.699877 198.70843 251.740536 198.826129 251.781136 198.94377 251.821677 199.061469 251.862277 199.179168 251.902761 199.296808 251.943302 199.414507 251.983786 199.532148 252.024211 199.649847 252.064694 199.767546 252.105061 199.885187 252.145486 200.002886 252.185852 200.120526 252.226161 200.238225 252.266469 200.355925 252.306777 200.473565 252.347027 200.591264 252.387277 200.708905 252.427527 200.826604 252.467719 200.944303 252.507852 201.061944 252.548044 201.179643 252.588177 201.297283 252.628252 201.414982 252.668327 201.532681 252.708402 201.650322 252.748419 201.768021 252.788436 201.885662 252.828452 202.003361 252.868411 202.12106 252.908311 202.238701 252.948269 202.3564 252.988111 202.47404 253.028011 202.591739 253.067852 202.709438 253.107694 202.827079 253.147477 202.944778 253.187261 203.062419 253.226986 203.180118 253.266711 203.297817 253.306436 203.415457 253.346161 203.533156 253.385769 203.650855 253.425436 203.768496 253.465044 203.886195 253.504652 204.003836 253.544202 204.121535 253.583752 204.239234 253.623302 204.356875 253.662794 204.474574 253.702286 204.592214 253.741719 204.709913 253.781152 204.827612 253.820586 204.945253 253.859961 205.062952 253.899336 205.180593 253.938652 205.298292 253.977969 205.415991 254.017286 205.533631 254.056544 205.65133 254.095802 205.768971 254.135061 205.88667 254.174261 206.004369 254.213461 206.12201 254.252602 206.239709 254.291744 206.35735 254.330827 206.475049 254.369969 206.592748 254.408994 206.710388 254.448077 206.828087 254.487102 206.945728 254.526127 207.063427 254.565094 207.181126 254.60406 207.298767 254.642969 207.416466 254.681935 207.534106 254.720785 207.651806 254.759694 207.769505 254.798544 207.887145 254.837394 208.004844 254.876185 208.122485 254.914977 208.240184 254.95371 208.357883 254.992444 208.475524 255.031177 208.593223 255.06991 208.710863 255.108585 208.828562 255.147202 208.946261 255.185819 209.063902 255.224435 209.181601 255.263052 209.299242 255.30161 209.416941 255.340169 209.53464 255.378669 209.652281 255.417169 209.76998 255.455669 209.88762 255.49411 210.005319 255.532552 210.123018 255.570994 210.240659 255.609377 210.358358 255.64776 210.475999 255.686085 210.593698 255.72441 210.711397 255.762735 210.829037 255.801002 210.946736 255.839269 211.064377 255.877535 211.182076 255.915744 211.299775 255.953952 211.417416 255.99216 211.535115 256.03031 211.652756 256.06846 211.770455 256.106552 211.888154 256.144644 212.005794 256.182735 212.123493 256.220769 212.241134 256.258802 212.358833 256.296835 212.476532 256.33481 212.594173 256.372785 212.711872 256.410702 212.829512 256.448677 212.947211 256.486535 213.064911 256.524452 213.182551 256.56231 213.30025 256.600169 213.417891 256.637969 213.53559 256.675769 213.653289 256.713569 213.77093 256.75131 213.888629 256.789052 214.006269 256.826735 214.123968 256.864477 214.241667 256.90216 214.359308 256.939785 214.477007 256.97741 214.594648 257.015035 214.712347 257.05266 214.830046 257.090227 214.947687 257.127735 215.065386 257.165302 215.183026 257.20281 215.300725 257.240319 215.418424 257.277769 215.536065 257.315219 215.653764 257.35261 215.771405 257.39006 215.889104 257.427452 216.006803 257.464785 216.124443 257.502177 216.242142 257.539452 216.359783 257.576785 216.477482 257.61406 216.595181 257.651335 216.712822 257.68861 216.830521 257.725827 216.948162 257.762985 217.065861 257.800202 217.18356 257.83736 217.3012 257.874519 217.418899 257.911619 217.53654 257.948719 217.654239 257.985819 217.771938 258.02286 217.889579 258.059902 218.007278 258.096944 218.124918 258.133985 218.242617 258.170969 218.360316 258.207894 218.477957 258.244877 218.595656 258.281802 218.713297 258.318669 218.830996 258.355594 218.948695 258.392402 219.066336 258.429269 219.184035 258.466077 219.301734 258.502885 219.419374 258.539694 219.537073 258.576444 219.654714 258.613194 219.772413 258.649944 219.890112 258.686635 220.007753 258.723327 220.125452 258.760019 220.243092 258.796652 220.360792 258.833285 220.478491 258.86986 220.596131 258.906435 220.71383 258.94301 220.831471 258.979585 220.94917 259.016102 221.066869 259.052619 221.18451 259.089135 221.302209 259.125594 221.419849 259.162052 221.537548 259.198452 221.655247 259.23491 221.772888 259.27131 221.890587 259.307652 222.008228 259.343994 222.125927 259.380335 222.243626 259.416677 222.361267 259.45296 222.478966 259.489244 222.596606 259.525527 222.714305 259.561752 222.832004 259.597977 222.949645 259.634144 223.067344 259.670369 223.184985 259.706535 223.302684 259.742644 223.420383 259.77881 223.538023 259.814919 223.655722 259.850969 223.773363 259.887077 223.891062 259.923127 224.008761 259.959119 224.126402 259.995169 224.244101 260.03116 224.361742 260.067094 224.479441 260.103085 224.59714 260.139019 224.71478 260.174894 224.832479 260.210827 224.95012 260.246702 225.067819 260.282577 225.185518 260.318394 225.303159 260.35421 225.420858 260.390027 225.538498 260.425785 225.656197 260.461602 225.773897 260.497302 225.891537 260.53306 226.009236 260.56876 226.126877 260.60446 226.244576 260.64016 226.362275 260.675802 226.479916 260.711443 226.597615 260.747027 226.715255 260.782668 226.832954 260.818252 226.950653 260.853777 227.068294 260.88936 227.185993 260.924885 227.303634 260.960352 227.421333 260.995877 227.539032 261.031343 227.656673 261.066752 227.774372 261.102218 227.892012 261.137627 228.009711 261.173035 228.12741 261.208385 228.245051 261.243793 228.36275 261.279085 228.480391 261.314435 228.59809 261.349727 228.715789 261.385018 228.833429 261.42031 228.951128 261.455543 229.068769 261.490777 229.186468 261.52601 229.304167 261.561185 229.421808 261.59636 229.539507 261.631535 229.657148 261.666652 229.774847 261.701827 229.892546 261.736885 230.010186 261.772002 230.127885 261.80706 230.245526 261.842118 230.363225 261.877177 230.480924 261.912177 230.598565 261.947177 230.716264 261.982177 230.833904 262.017118 230.951603 262.05206 231.069302 262.087002 231.186943 262.121885 231.304642 262.156827 231.422283 262.191652 231.539982 262.226535 231.657681 262.26136 231.775322 262.296185 231.893021 262.33101 232.010661 262.365777 232.12836 262.400543 232.246059 262.43531 232.3637 262.470018 232.481399 262.504727 232.59904 262.539435 232.716739 262.574143 232.834438 262.608793 232.952078 262.643443 233.069778 262.678035 233.187418 262.712685 233.305117 262.747277 233.422816 262.781868 233.540457 262.816402 233.658156 262.850935 233.775855 262.885468 233.893496 262.919943 234.011195 262.954477 234.128835 262.988952 234.246534 263.023368 234.364233 263.057843 234.481874 263.09226 234.599573 263.126618 234.717214 263.161035 234.834913 263.195393 234.952612 263.229752 235.070253 263.264052 235.187952 263.29841 235.305592 263.33271 235.423291 263.366952 235.54099 263.401252 235.658631 263.435493 235.77633 263.469677 235.893971 263.503918 236.01167 263.538102 236.129369 263.572285 236.247009 263.606468 236.364708 263.640593 236.482349 263.674718 236.600048 263.708843 236.717747 263.74291 236.835388 263.776977 236.953087 263.811043 237.070728 263.84511 237.188427 263.879118 237.306126 263.913127 237.423766 263.947135 237.541465 263.981085 237.659106 264.015093 237.776805 264.048985 237.894504 264.082935 238.012145 264.116827 238.129844 264.150718 238.247484 264.18461 238.365183 264.218443 238.482883 264.252277 238.600523 264.28611 238.718222 264.319943 238.835863 264.353718 238.953562 264.387493 239.071261 264.421268 239.188902 264.454985 239.306601 264.488702 239.424241 264.522418 239.54194 264.556135 239.659639 264.589793 239.77728 264.623452 239.894979 264.65711 240.01262 264.69071 240.130319 264.72431 240.248018 264.75791 240.365659 264.79151 240.483358 264.825052 240.600998 264.858593 240.718697 264.892135 240.836396 264.925618 240.954037 264.959102 241.071736 264.992585 241.189377 265.026068 241.307076 265.059493"></polyline>
            </g>
            <g id="Group-25" transform="translate(0.000000, 0.038900)">
                <mask id="mask-6" fill="white">
                    <use xlink:href="#path-5"></use>
                </mask>
                <g id="Clip-21"></g>
                <polygon id="Fill-20" fill="#FFFFFF" mask="url(#mask-6)" points="0.3070831 308.851105 0.8906182 308.851105 0.8906182 0.8511047 0.3070831 0.8511047"></polygon>
                <polygon id="Fill-22" fill="#FFFFFF" mask="url(#mask-6)" points="481.7235 308.851105 482.307035 308.851105 482.307035 0.8511047 481.7235 0.8511047"></polygon>
                <polygon id="Fill-23" fill="#FFFFFF" mask="url(#mask-6)" points="0.3070831 1.4344 482.307083 1.4344 482.307083 0.8510667 0.3070831 0.8510667"></polygon>
                <polygon id="Fill-24" fill="#FFFFFF" mask="url(#mask-6)" points="0.3070831 308.851105 482.307083 308.851105 482.307083 308.267771 0.3070831 308.267771"></polygon>
            </g>
        </g>
    </g>
</svg>