<?xml version="1.0" encoding="UTF-8"?>
<svg width="482px" height="309px" viewBox="0 0 482 309" version="1.1" xmlns="http://www.w3.org/2000/svg" xmlns:xlink="http://www.w3.org/1999/xlink">
    <!-- Generator: Sketch 48.1 (47250) - http://www.bohemiancoding.com/sketch -->
    <title>Page 1</title>
    <desc>Created with Sketch.</desc>
    <defs>
        <polygon id="path-1" points="0.3070831 0.2682 481.894183 0.2682 481.894183 308 0.3070831 308"></polygon>
        <polygon id="path-3" points="0.3070794 0.0597891643 240.8942 0.0597891643 240.8942 264 0.3070794 264"></polygon>
        <polygon id="path-5" points="0.3070831 0.2682 481.894183 0.2682 481.894183 308 0.3070831 308"></polygon>
    </defs>
    <g id="Page-1" stroke="none" stroke-width="1" fill="none" fill-rule="evenodd">
        <g>
            <g id="Group-16" transform="translate(0.000000, 0.038900)">
                <mask id="mask-2" fill="white">
                    <use xlink:href="#path-1"></use>
                </mask>
                <g id="Clip-2"></g>
                <polygon id="Fill-1" fill="#FFFFFF" mask="url(#mask-2)" points="0.3070831 308.268173 482.307083 308.268173 482.307083 0.2681732 0.3070831 0.2681732"></polygon>
                <path d="M0.3070831,284.794675 L482.307076,284.794675 M0.3070831,272.928626 L482.307076,272.928626 M0.3070831,261.062577 L482.307076,261.062577 M0.3070831,237.330478 L482.307076,237.330478 M0.3070831,225.464429 L482.307076,225.464429 M0.3070831,213.598438 L482.307076,213.598438 M0.3070831,189.866339 L482.307076,189.866339 M0.3070831,178.00029 L482.307076,178.00029 M0.3070831,166.134241 L482.307076,166.134241 M0.3070831,142.402142 L482.307076,142.402142 M0.3070831,130.536093 L482.307076,130.536093 M0.3070831,118.670043 L482.307076,118.670043 M0.3070831,94.9379446 L482.307076,94.9379446 M0.3070831,83.0719536 L482.307076,83.0719536 M0.3070831,71.2059043 L482.307076,71.2059043 M0.3070831,47.473794 L482.307076,47.473794 M0.3070831,35.6077505 L482.307076,35.6077505 M0.3070831,23.741707 L482.307076,23.741707 M12.3570829,308.268182 L12.3570829,0.2682 M24.4070827,308.268182 L24.4070827,0.2682 M36.4570825,308.268182 L36.4570825,0.2682 M60.5570822,308.268182 L60.5570822,0.2682 M72.607082,308.268182 L72.607082,0.2682 M84.6570818,308.268182 L84.6570818,0.2682 M108.757081,308.268182 L108.757081,0.2682 M120.807081,308.268182 L120.807081,0.2682 M132.857081,308.268182 L132.857081,0.2682 M156.957081,308.268182 L156.957081,0.2682 M169.007081,308.268182 L169.007081,0.2682 M181.05708,308.268182 L181.05708,0.2682 M205.15708,308.268182 L205.15708,0.2682 M217.20708,308.268182 L217.20708,0.2682 M229.25708,308.268182 L229.25708,0.2682 M253.357079,308.268182 L253.357079,0.2682 M265.407079,308.268182 L265.407079,0.2682 M277.457079,308.268182 L277.457079,0.2682 M301.557078,308.268182 L301.557078,0.2682 M313.607078,308.268182 L313.607078,0.2682 M325.657078,308.268182 L325.657078,0.2682 M349.757078,308.268182 L349.757078,0.2682 M361.807078,308.268182 L361.807078,0.2682 M373.857077,308.268182 L373.857077,0.2682 M397.957077,308.268182 L397.957077,0.2682 M410.007077,308.268182 L410.007077,0.2682 M422.057077,308.268182 L422.057077,0.2682 M446.157076,308.268182 L446.157076,0.2682 M458.207076,308.268182 L458.207076,0.2682 M470.257076,308.268182 L470.257076,0.2682" id="Stroke-3" stroke="#929292" stroke-width="0.2" mask="url(#mask-2)"></path>
                <path d="M0.3070831,296.660725 L482.307076,296.660725 M0.3070831,249.196527 L482.307076,249.196527 M0.3070831,201.732388 L482.307076,201.732388 M0.3070831,154.268191 L482.307076,154.268191 M0.3070831,106.803994 L482.307076,106.803994 M0.3070831,59.339855 L482.307076,59.339855 M0.3070831,11.8756635 L482.307076,11.8756635 M0.3070831,308.268182 L0.3070831,0.2682 M48.5070824,308.268182 L48.5070824,0.2682 M96.7070816,308.268182 L96.7070816,0.2682 M144.907081,308.268182 L144.907081,0.2682 M193.10708,308.268182 L193.10708,0.2682 M241.307079,308.268182 L241.307079,0.2682 M289.507079,308.268182 L289.507079,0.2682 M337.707078,308.268182 L337.707078,0.2682 M385.907077,308.268182 L385.907077,0.2682 M434.107076,308.268182 L434.107076,0.2682 M482.307076,308.268182 L482.307076,0.2682" id="Stroke-4" stroke="#000000" stroke-width="0.3" mask="url(#mask-2)"></path>
                <polygon id="Fill-5" fill="#000000" mask="url(#mask-2)" points="482.3071 154.2682 476.4717 151.3515 478.2223 154.2682 476.4717 157.1848"></polygon>
                <path d="M0.3070831,154.268191 L482.307083,154.268191" id="Stroke-6" stroke="#000000" stroke-width="1.5" mask="url(#mask-2)"></path>
                <text id="-5" mask="url(#mask-2)" font-family="Helvetica" font-size="6.9999996" font-weight="normal" fill="#000000">
                    <tspan x="-3.1941275" y="163.42">-5</tspan>
                </text>
                <text id="-4" mask="url(#mask-2)" font-family="Helvetica" font-size="6.9999996" font-weight="normal" fill="#000000">
                    <tspan x="45.0058694" y="163.42">-4</tspan>
                </text>
                <text id="-3" mask="url(#mask-2)" font-family="Helvetica" font-size="6.9999996" font-weight="normal" fill="#000000">
                    <tspan x="93.2058694" y="163.42">-3</tspan>
                </text>
                <text id="-2" mask="url(#mask-2)" font-family="Helvetica" font-size="6.9999996" font-weight="normal" fill="#000000">
                    <tspan x="141.405889" y="163.42">-2</tspan>
                </text>
                <text id="-1" mask="url(#mask-2)" font-family="Helvetica" font-size="6.9999996" font-weight="normal" fill="#000000">
                    <tspan x="189.605889" y="163.42">-1</tspan>
                </text>
                <text id="0" mask="url(#mask-2)" font-family="Helvetica" font-size="6.9999996" font-weight="normal" fill="#000000">
                    <tspan x="231.44346" y="163.42">0</tspan>
                </text>
                <text id="1" mask="url(#mask-2)" font-family="Helvetica" font-size="6.9999996" font-weight="normal" fill="#000000">
                    <tspan x="287.17296" y="163.42">1</tspan>
                </text>
                <text id="2" mask="url(#mask-2)" font-family="Helvetica" font-size="6.9999996" font-weight="normal" fill="#000000">
                    <tspan x="335.37296" y="163.42">2</tspan>
                </text>
                <text id="3" mask="url(#mask-2)" font-family="Helvetica" font-size="6.9999996" font-weight="normal" fill="#000000">
                    <tspan x="383.57296" y="163.42">3</tspan>
                </text>
                <text id="4" mask="url(#mask-2)" font-family="Helvetica" font-size="6.9999996" font-weight="normal" fill="#000000">
                    <tspan x="431.77296" y="163.42">4</tspan>
                </text>
                <text id="5" mask="url(#mask-2)" font-family="Helvetica" font-size="6.9999996" font-weight="normal" fill="#000000">
                    <tspan x="479.97296" y="163.42">5</tspan>
                </text>
                <path d="M12.3570829,155.434858 L12.3570829,153.101525 M24.4070827,155.434858 L24.4070827,153.101525 M36.4570825,155.434858 L36.4570825,153.101525 M60.5570822,155.434858 L60.5570822,153.101525 M72.607082,155.434858 L72.607082,153.101525 M84.6570818,155.434858 L84.6570818,153.101525 M108.757081,155.434858 L108.757081,153.101525 M120.807081,155.434858 L120.807081,153.101525 M132.857081,155.434858 L132.857081,153.101525 M156.957081,155.434858 L156.957081,153.101525 M169.007081,155.434858 L169.007081,153.101525 M181.05708,155.434858 L181.05708,153.101525 M205.15708,155.434858 L205.15708,153.101525 M217.20708,155.434858 L217.20708,153.101525 M229.25708,155.434858 L229.25708,153.101525 M253.357079,155.434858 L253.357079,153.101525 M265.407079,155.434858 L265.407079,153.101525 M277.457079,155.434858 L277.457079,153.101525 M301.557078,155.434858 L301.557078,153.101525 M313.607078,155.434858 L313.607078,153.101525 M325.657078,155.434858 L325.657078,153.101525 M349.757078,155.434858 L349.757078,153.101525 M361.807078,155.434858 L361.807078,153.101525 M373.857077,155.434858 L373.857077,153.101525 M397.957077,155.434858 L397.957077,153.101525 M410.007077,155.434858 L410.007077,153.101525 M422.057077,155.434858 L422.057077,153.101525 M446.157076,155.434858 L446.157076,153.101525 M458.207076,155.434858 L458.207076,153.101525 M470.257076,155.434858 L470.257076,153.101525" id="Stroke-7" stroke="#000000" stroke-width="1.5" mask="url(#mask-2)"></path>
                <path d="M48.5070824,156.601524 L48.5070824,151.934858 M96.7070816,156.601524 L96.7070816,151.934858 M144.907081,156.601524 L144.907081,151.934858 M193.10708,156.601524 L193.10708,151.934858 M241.307079,156.601524 L241.307079,151.934858 M289.507079,156.601524 L289.507079,151.934858 M337.707078,156.601524 L337.707078,151.934858 M385.907077,156.601524 L385.907077,151.934858 M434.107076,156.601524 L434.107076,151.934858" id="Stroke-8" stroke="#000000" stroke-width="1.5" mask="url(#mask-2)"></path>
                <path d="M324.4142,173.0723 C324.4142,172.939 324.4552,172.8442 324.5373,172.7878 C324.6193,172.7314 324.7031,172.7032 324.7885,172.7032 C324.8296,172.7032 324.8706,172.7091 324.9117,172.7211 C324.9527,172.7331 324.9971,172.7527 325.045,172.7801 L325.2245,172.8775 C325.2484,172.8911 325.2715,172.9005 325.2937,172.9057 C325.3159,172.9108 325.3407,172.9134 325.3681,172.9134 C325.4536,172.9134 325.5194,172.892 325.5656,172.8493 C325.6117,172.8066 325.7306,172.6571 325.922,172.4007 C326.0485,172.2332 326.3357,171.8248 326.7837,171.1753 C326.7837,171.1514 326.7443,170.9677 326.6657,170.6242 C326.587,170.2807 326.5152,169.9893 326.4503,169.7501 C326.3853,169.5073 326.3272,169.3476 326.2759,169.2707 C326.2246,169.1938 326.1289,169.1553 325.9887,169.1553 C325.9408,169.1553 325.8468,169.1724 325.7066,169.2066 C325.6177,169.2271 325.522,169.251 325.4194,169.2784 L325.3733,169.1194 L325.9425,168.9246 C326.0895,168.8733 326.2254,168.8323 326.3503,168.8016 C326.4751,168.7708 326.5819,168.7554 326.6708,168.7554 C326.8144,168.7554 326.9221,168.7981 326.9939,168.8836 C327.1033,169.0203 327.1956,169.2903 327.2708,169.6937 L327.3786,170.2781 C327.6863,169.8064 327.9256,169.4749 328.0966,169.2835 C328.2504,169.1092 328.3958,168.9793 328.5325,168.8939 C328.6693,168.8084 328.7992,168.7657 328.9223,168.7657 C329.0386,168.7657 329.1326,168.7828 329.2044,168.817 C329.3343,168.8785 329.3993,168.9947 329.3993,169.1656 C329.3993,169.2818 329.3668,169.3724 329.3018,169.4373 C329.2369,169.5023 329.1531,169.5347 329.0505,169.5347 C329.0129,169.5347 328.977,169.5304 328.9429,169.5219 C328.9087,169.5134 328.8727,169.5005 328.8351,169.4834 L328.7018,169.4271 C328.6642,169.41 328.6283,169.3955 328.5941,169.3834 C328.5599,169.3715 328.5343,169.3655 328.5172,169.3655 C328.3633,169.3655 328.1496,169.5646 327.876,169.9628 C327.6025,170.361 327.4658,170.5909 327.4658,170.6524 C327.4658,170.7036 327.4974,170.8703 327.5606,171.1523 C327.6239,171.4343 327.6932,171.7325 327.7684,172.0469 C327.8367,172.3443 327.8949,172.5494 327.9427,172.6622 C328.0214,172.8468 328.1103,172.939 328.2094,172.939 C328.3017,172.939 328.3958,172.8878 328.4915,172.7852 C328.5872,172.6827 328.7309,172.4981 328.9223,172.2315 L329.0659,172.3187 C328.9189,172.5852 328.7667,172.8126 328.6095,173.0005 C328.312,173.356 328.0282,173.5337 327.7581,173.5337 C327.5871,173.5337 327.4521,173.4517 327.3529,173.2876 C327.2948,173.192 327.2384,173.0347 327.1837,172.816 L326.8657,171.5496 L325.8143,172.9288 C325.6092,173.168 325.451,173.3286 325.3399,173.4107 C325.2288,173.4927 325.0912,173.5337 324.927,173.5337 C324.7082,173.5337 324.5595,173.4654 324.4809,173.3286 C324.4364,173.2569 324.4142,173.1714 324.4142,173.0723 Z" id="Fill-9" fill="#000000" mask="url(#mask-2)"></path>
                <polygon id="Fill-10" fill="#000000" mask="url(#mask-2)" points="241.3071 0.2682 238.3894 6.1015 241.3071 4.3515 244.2248 6.1015"></polygon>
                <path d="M241.307079,308.268182 L241.307079,0.2682" id="Stroke-11" stroke="#000000" stroke-width="1.5" mask="url(#mask-2)"></path>
                <text id="-3" mask="url(#mask-2)" font-family="Helvetica" font-size="6.9999996" font-weight="normal" fill="#000000">
                    <tspan x="230.276389" y="299.22657">-3</tspan>
                </text>
                <text id="-2" mask="url(#mask-2)" font-family="Helvetica" font-size="6.9999996" font-weight="normal" fill="#000000">
                    <tspan x="230.276389" y="251.76239">-2</tspan>
                </text>
                <text id="-1" mask="url(#mask-2)" font-family="Helvetica" font-size="6.9999996" font-weight="normal" fill="#000000">
                    <tspan x="230.276389" y="204.2982">-1</tspan>
                </text>
                <text id="1" mask="url(#mask-2)" font-family="Helvetica" font-size="6.9999996" font-weight="normal" fill="#000000">
                    <tspan x="231.44346" y="109.3698">1</tspan>
                </text>
                <text id="2" mask="url(#mask-2)" font-family="Helvetica" font-size="6.9999996" font-weight="normal" fill="#000000">
                    <tspan x="231.44346" y="61.9057002">2</tspan>
                </text>
                <text id="3" mask="url(#mask-2)" font-family="Helvetica" font-size="6.9999996" font-weight="normal" fill="#000000">
                    <tspan x="231.44346" y="14.4415002">3</tspan>
                </text>
                <path d="M240.140009,284.794675 L242.47415,284.794675 M240.140009,272.928626 L242.47415,272.928626 M240.140009,261.062577 L242.47415,261.062577 M240.140009,237.330478 L242.47415,237.330478 M240.140009,225.464429 L242.47415,225.464429 M240.140009,213.598438 L242.47415,213.598438 M240.140009,189.866339 L242.47415,189.866339 M240.140009,178.00029 L242.47415,178.00029 M240.140009,166.134241 L242.47415,166.134241 M240.140009,142.402142 L242.47415,142.402142 M240.140009,130.536093 L242.47415,130.536093 M240.140009,118.670043 L242.47415,118.670043 M240.140009,94.9379446 L242.47415,94.9379446 M240.140009,83.0719536 L242.47415,83.0719536 M240.140009,71.2059043 L242.47415,71.2059043 M240.140009,47.473794 L242.47415,47.473794 M240.140009,35.6077505 L242.47415,35.6077505 M240.140009,23.741707 L242.47415,23.741707" id="Stroke-12" stroke="#000000" stroke-width="1.5" mask="url(#mask-2)"></path>
                <path d="M238.972939,296.660725 L243.64122,296.660725 M238.972939,249.196527 L243.64122,249.196527 M238.972939,201.732388 L243.64122,201.732388 M238.972939,154.268191 L243.64122,154.268191 M238.972939,106.803994 L243.64122,106.803994 M238.972939,59.339855 L243.64122,59.339855 M238.972939,11.8756635 L243.64122,11.8756635" id="Stroke-13" stroke="#000000" stroke-width="1.5" mask="url(#mask-2)"></path>
                <path d="M219.1327,89.7868 C219.1327,89.6774 219.1669,89.5834 219.2353,89.5048 C219.3037,89.4262 219.4029,89.3869 219.5328,89.3869 C219.6183,89.3869 219.6935,89.4031 219.7585,89.4356 C219.8234,89.4681 219.8918,89.5151 219.9636,89.5766 L220.0354,89.6279 C220.0559,89.645 220.079,89.6578 220.1046,89.6663 C220.1303,89.6749 220.1585,89.6792 220.1892,89.6792 C220.3568,89.6792 220.6261,89.4579 220.997,89.0152 C221.368,88.5726 221.5535,88.2504 221.5535,88.0488 C221.5535,87.8574 221.4894,87.4814 221.3612,86.9209 C221.233,86.3603 221.109,85.8613 220.9893,85.4238 C220.8218,84.8086 220.6688,84.3915 220.5303,84.1728 C220.3918,83.954 220.1875,83.8447 219.9174,83.8447 C219.8969,83.8447 219.8619,83.8472 219.8123,83.8524 C219.7627,83.8575 219.6781,83.8669 219.5584,83.8805 L219.5584,83.7114 L220.9586,83.4448 L221.0663,83.4345 C221.1518,83.4243 221.3159,83.8088 221.5586,84.5881 C221.7774,85.2888 221.9142,85.798 221.969,86.1159 L222.1741,87.3362 C222.5331,86.7346 222.7964,86.2731 222.9639,85.9518 C223.2921,85.3195 223.4563,84.8769 223.4563,84.624 C223.4563,84.5658 223.446,84.5086 223.4255,84.4522 C223.405,84.3958 223.3571,84.3471 223.2819,84.3061 L223.1947,84.2599 C223.14,84.2326 223.0759,84.1814 223.0024,84.1062 C222.9289,84.0309 222.8921,83.9301 222.8921,83.8037 C222.8921,83.6977 222.9263,83.6088 222.9947,83.5371 C223.0631,83.4653 223.1656,83.4294 223.3024,83.4294 C223.4734,83.4294 223.6118,83.4798 223.7178,83.5807 C223.8238,83.6815 223.8768,83.8532 223.8768,84.0959 C223.8768,84.4616 223.6768,85.0495 223.2768,85.8596 C222.969,86.4782 222.6254,87.0781 222.2459,87.6591 C221.7706,88.3838 221.362,88.9426 221.0201,89.3356 C220.4765,89.9543 220.0251,90.2636 219.6662,90.2636 C219.5259,90.2636 219.402,90.2209 219.2943,90.1355 C219.1866,90.05 219.1327,89.9338 219.1327,89.7868 Z" id="Fill-14" fill="#000000" mask="url(#mask-2)"></path>
                <polygon id="Stroke-15" stroke="#000000" mask="url(#mask-2)" points="0.01531555 -0.02346665 482.598843 -0.02346665 482.598843 308.559849 0.01531555 308.559849"></polygon>
            </g>
            <g id="Group-19" transform="translate(241.000000, 44.038900)">
                <mask id="mask-4" fill="white">
                    <use xlink:href="#path-3"></use>
                </mask>
                <g id="Clip-18"></g>
                <polyline id="Stroke-17" stroke="#000000" mask="url(#mask-4)" points="0.3070794 1993.55508 0.365899738 569.629748 0.42477843 522.165726 0.483598768 494.400986 0.542419106 474.701529 0.601297797 459.421521 0.660118135 446.936789 0.718938474 436.381139 0.777758812 427.23739 0.836637503 419.172049 0.895457841 411.957324 0.954278179 405.430816 1.01315687 399.472591 1.07197721 393.991592 1.13079755 388.916942 1.18967624 384.192584 1.24849658 379.773192 1.30731691 375.621843 1.36613725 371.707851 1.42501594 368.005551 1.48383628 364.493127 1.54265662 361.152202 1.60153531 357.966677 1.66035565 354.922786 1.71917599 352.008452 1.77805468 349.213119 1.83687502 346.527394 1.89569536 343.943111 1.95451569 341.452745 2.01339439 339.04982 2.07221472 336.728387 2.13103506 334.483078 2.18991375 332.308995 2.24873409 330.201879 2.30755443 328.157645 2.36643312 326.172737 2.42525346 324.243654 2.4840738 322.367479 2.54289414 320.541354 2.60177283 318.762654 2.66059317 317.028988 2.7194135 315.338138 2.77829219 313.688005 2.83711253 312.076721 2.89593287 310.50248 2.95481156 308.963647 3.0136319 307.458588 3.07245224 305.985905 3.13127258 304.544255 3.19015127 303.132297 3.24897161 301.748922 3.30779194 300.392905 3.36667064 299.063255 3.42549097 297.758864 3.48431131 296.478914 3.54319 295.222414 3.60201034 293.988606 3.66083068 292.776556 3.71965102 291.585681 3.77852971 290.415106 3.83735005 289.264189 3.89617039 288.132348 3.95504908 287.018881 4.01386942 285.923206 4.07268975 284.844856 4.13156845 283.78319 4.19038878 282.73774 4.24920912 281.707981 4.30802946 280.693506 4.36690815 279.693848 4.42572849 278.70854 4.48454883 277.737232 4.54342752 276.779515 4.60224786 275.834982 4.6610682 274.90334 4.71994689 273.984182 4.77876722 273.077157 4.83758756 272.182032 4.8964079 271.298457 4.95528659 270.42614 5.01410693 269.56479 5.07292727 268.714115 5.13180596 267.873941 5.1906263 267.043916 5.24944664 266.223807 5.30832533 265.413441 5.36714567 264.612524 5.425966 263.820882 5.48478634 263.038282 5.54366503 262.264549 5.60248537 261.499449 5.66130571 260.742808 5.7201844 259.994391 5.77900474 259.254141 5.83782508 258.521766 5.89670377 257.797091 5.95552411 257.080058 6.01434445 256.370491 6.07316478 255.668158 6.13204348 254.972941 6.19086381 254.284725 6.24968415 253.603391 6.30856284 252.928708 6.36738318 252.260675 6.42620352 251.599058 6.48508221 250.943741 6.54390255 250.294725 6.60272289 249.651717 6.66154322 249.014717 6.72042192 248.383608 6.77924225 247.758275 6.83806259 247.138542 6.89694128 246.524408 6.95576162 245.9157 7.01458196 245.312417 7.07346065 244.714384 7.13228099 244.121484 7.19110133 243.533717 7.24992167 242.950909 7.30880036 242.373059 7.3676207 241.80005 7.42644103 241.231767 7.48531973 240.66815 7.54414006 240.109142 7.6029604 239.554684 7.66183909 239.004717 7.72065943 238.459067 7.77947977 237.917734 7.83830011 237.380659 7.8971788 236.847784 7.95599914 236.318992 8.01481948 235.794284 8.07369817 235.273542 8.13251851 234.756709 8.19133884 234.243784 8.25021753 233.734651 8.30903787 233.229309 8.36785821 232.727643 8.4267369 232.229651 8.48555724 231.735218 8.54437758 231.244343 8.60319792 230.756968 8.66207661 230.273034 8.72089695 229.792484 8.77971728 229.315318 8.83859598 228.841418 8.89741631 228.370784 8.95623665 227.903359 9.01511534 227.439143 9.07393568 226.978018 9.13275602 226.519985 9.19157636 226.064985 9.25045505 225.613018 9.30927539 225.163968 9.36809573 224.717893 9.42697442 224.274676 9.48579476 223.83426 9.54461509 223.39676 9.60349379 222.961943 9.66231412 222.529926 9.72113446 222.100593 9.7799548 221.673943 9.83883349 221.249977 9.89765383 220.828577 9.95647417 220.409743 10.0153529 219.993477 10.0741732 219.579718 10.1329935 219.168468 10.1918722 218.759668 10.2506926 218.35326 10.3095129 217.949243 10.3683332 217.547618 10.4272119 217.148385 10.4860323 216.751427 10.5448526 216.356743 10.6037313 215.964277 10.6625516 215.574144 10.721372 215.186169 10.7802507 214.800352 10.839071 214.416752 10.8978913 214.035252 10.9567117 213.65591 11.0155904 213.27861 11.0744107 212.90341 11.133231 212.530252 11.1921097 212.159077 11.2509301 211.789944 11.3097504 211.422794 11.3686291 211.057569 11.4274494 210.694269 11.4862698 210.332952 11.5450901 209.973502 11.6039688 209.615919 11.6627892 209.260202 11.7216095 208.906294 11.7804882 208.554252 11.8393085 208.203961 11.8981289 207.855477 11.9570076 207.508802 12.0158279 207.163819 12.0746482 206.820586 12.1334686 206.479044 12.1923473 206.139194 12.2511676 205.801036 12.3099879 205.464569 12.3688666 205.129677 12.427687 204.796477 12.4865073 204.464852 12.545386 204.134861 12.6042063 203.806444 12.6630267 203.479603 12.721847 203.154278 12.7807257 202.830528 12.839546 202.508294 12.8983664 202.187578 12.9572451 201.868319 13.0160654 201.550578 13.0748857 201.234294 13.1337644 200.919411 13.1925848 200.606044 13.2514051 200.294078 13.3102254 199.983511 13.3691041 199.674403 13.4279245 199.366636 13.4867448 199.060211 13.5456235 198.755186 13.6044438 198.451561 13.6632642 198.14922 13.7221429 197.84822 13.7809632 197.548561 13.8397836 197.250186 13.8986039 196.953095 13.9574826 196.657286 14.0163029 196.362761 14.0751233 196.06952 14.1340019 195.777503 14.1928223 195.48677 14.2516426 195.197203 14.3105213 194.908861 14.3693417 194.621745 14.428162 194.335853 14.4869823 194.051128 14.545861 193.76757 14.6046814 193.485178 14.6635017 193.204011 14.7223804 192.923895 14.7812007 192.645003 14.8400211 192.36722 14.8988998 192.090545 14.9577201 191.814978 15.0165404 191.54052 15.0753608 191.26717 15.1342395 190.99487 15.1930598 190.723678 15.2518801 190.453537 15.3107588 190.184503 15.3695792 189.91652 15.4283995 189.649528 15.4872782 189.383587 15.5460985 189.118695 15.6049189 188.854795 15.6637976 188.591945 15.7226179 188.330087 15.7814382 188.06922 15.8402586 187.809345 15.8991373 187.550462 15.9579576 187.29257 16.0167779 187.035612 16.0756566 186.779645 16.134477 186.524612 16.1932973 186.270512 16.252176 186.017345 16.3109963 185.765112 16.3698167 185.51387 16.428637 185.263504 16.4875157 185.014012 16.5463361 184.765454 16.6051564 184.517829 16.6640351 184.271079 16.7228554 184.025204 16.7816758 183.780204 16.8405544 183.536079 16.8993748 183.292829 16.9581951 183.050395 17.0170155 182.808895 17.0758942 182.568154 17.1347145 182.328345 17.1935348 182.089295 17.2524135 181.85112 17.3112339 181.613762 17.3700542 181.377279 17.4289329 181.141554 17.4877532 180.906645 17.6053939 180.439221 17.7230929 179.974946 17.840792 179.513821 17.9584326 179.055787 18.0761317 178.600787 18.1937723 178.148821 18.3114714 177.699771 18.4291704 177.253696 18.5468111 176.810479 18.6645101 176.370121 18.7821508 175.932562 18.8998498 175.497804 19.0175488 175.065787 19.1351895 174.636454 19.2528886 174.209804 19.3705292 173.785779 19.4882283 173.364379 19.6059273 172.945604 19.723568 172.529338 19.841267 172.115579 19.9589077 171.704271 20.0766067 171.295471 20.1943057 170.889063 20.3119464 170.485104 20.4296454 170.083479 20.5472861 169.684188 20.6649851 169.287229 20.7826842 168.892546 20.9003248 168.500138 21.0180239 168.109946 21.1356646 167.721971 21.2533636 167.336213 21.3710626 166.952555 21.4887033 166.571113 21.6064023 166.191713 21.724043 165.814413 21.841742 165.439213 21.9594411 165.066055 22.0770817 164.69488 22.1947808 164.325746 22.3124214 163.958596 22.4301205 163.593371 22.5478195 163.23013 22.6654602 162.868755 22.7831592 162.509305 22.9008582 162.151722 23.0184989 161.796005 23.1361979 161.442097 23.2538386 161.090055 23.3715376 160.739822 23.4892367 160.391338 23.6068773 160.044605 23.7245764 159.699622 23.8422171 159.356388 23.9599161 159.014847 24.0776151 158.675055 24.1952558 158.336897 24.3129548 158.000372 24.4305955 157.665538 24.5482945 157.332339 24.6659936 157.000714 24.7836342 156.670722 24.9013333 156.342247 25.0189739 156.015405 25.136673 155.690139 25.254372 155.36633 25.3720127 155.044097 25.4897117 154.72338 25.6073524 154.404122 25.7250514 154.08638 25.8427504 153.770097 25.9603911 153.455272 26.0780901 153.141847 26.1957308 152.82988 26.3134298 152.519372 26.4311289 152.210205 26.5487696 151.902439 26.6664686 151.596072 26.7841093 151.291047 26.9018083 150.987364 27.0195073 150.685022 27.137148 150.384081 27.254847 150.084364 27.3724877 149.785989 27.4901867 149.488897 27.6078858 149.193147 27.7255264 148.898622 27.8432255 148.605322 27.9608661 148.313364 28.0785652 148.022572 28.1962642 147.733006 28.3139049 147.444722 28.4316039 147.157606 28.5492446 146.871656 28.6669436 146.586931 28.7846426 146.303431 28.9022833 146.021039 29.0199823 145.739814 29.137623 145.459756 29.2553221 145.180806 29.3730211 144.903023 29.4906618 144.626348 29.6083608 144.350781 29.7260015 144.076323 29.8437005 143.802973 29.9613995 143.530731 30.0790402 143.259539 30.1967392 142.989398 30.3143799 142.720306 30.4320789 142.452323 30.549778 142.185331 30.6674186 141.919448 30.7851177 141.654498 30.9027583 141.390656 31.0204574 141.127806 31.1381564 140.865948 31.2557971 140.605081 31.3734961 140.345206 31.4911368 140.086323 31.6088358 139.828373 31.7265348 139.571415 31.8441755 139.315448 31.9618746 139.060415 32.0795152 138.806315 32.1972143 138.553206 32.3149133 138.300973 32.432554 138.049673 32.550253 137.799306 32.6678937 137.549873 32.7855927 137.301315 32.9032917 137.053631 33.0209324 136.806881 33.1386314 136.561006 33.2562721 136.316006 33.3739711 136.071881 33.4916702 135.828631 33.6093108 135.586256 33.7270099 135.344698 33.8446506 135.104015 33.9623496 134.864148 34.0800486 134.625156 34.1976893 134.386981 34.3153883 134.149623 34.433029 133.913082 34.550728 133.677357 34.6684271 133.442448 34.7860677 133.208357 34.9037668 132.975023 35.0214074 132.742507 35.1391065 132.510807 35.2568055 132.279807 35.3744462 132.049682 35.4921452 131.820257 35.6097859 131.591648 35.7274849 131.36374 35.8451839 131.136648 35.9628246 130.910257 36.0805236 130.684623 36.1981643 130.459748 36.3158634 130.235632 36.4335624 130.012215 36.5512031 129.789498 36.6689021 129.56754 36.7865428 129.346282 36.9042418 129.125782 37.0219408 128.905923 37.1395815 128.686823 37.2572805 128.468365 37.3749212 128.250665 37.4926202 128.033607 37.6103193 127.817249 37.7279599 127.60159 37.845659 127.386574 37.9632996 127.172257 38.0809987 126.958582 38.1986977 126.745607 38.3163384 126.533274 38.4340374 126.32164 38.5517364 126.11059 38.6693771 125.90024 38.7870761 125.690474 38.9047168 125.481407 39.0224159 125.272924 39.1401149 125.06514 39.2577556 124.85794 39.3754546 124.651382 39.4930953 124.445407 39.6107943 124.240132 39.7284933 124.035382 39.846134 123.831274 39.963833 123.627807 40.0814737 123.424924 40.1991727 123.222624 40.3168718 123.020907 40.4345124 122.819832 40.5522115 122.619282 40.6698521 122.419374 40.7875512 122.219991 40.9052502 122.021249 41.0228909 121.823032 41.1405899 121.625399 41.2582306 121.428349 41.3759296 121.231882 41.4936286 121.035941 41.6112693 120.840582 41.7289684 120.645749 41.846609 120.451499 41.9643081 120.257832 42.0820071 120.064632 42.1996478 119.872016 42.3173468 119.679924 42.4349875 119.488416 42.5526865 119.297374 42.6703855 119.106916 42.7880262 118.916982 42.9057252 118.727516 43.0233659 118.538632 43.1410649 118.350274 43.258764 118.162382 43.3764046 117.975074 43.4941037 117.788232 43.6117444 117.601857 43.7294434 117.416066 43.8471424 117.230741 43.9647831 117.045882 44.0824821 116.861607 44.2001228 116.677741 44.3178218 116.494399 44.4355209 116.311583 44.5531615 116.129233 44.6708606 115.947349 44.7885012 115.765933 44.9062003 115.585041 45.0238993 115.404616 45.14154 115.224599 45.259239 115.045108 45.3768797 114.866083 45.4945787 114.687524 45.6122777 114.509433 45.7299184 114.331808 45.8476174 114.154649 45.9652581 113.977958 46.0829571 113.801674 46.2006562 113.625858 46.3182969 113.450508 46.4359959 113.275624 46.5536366 113.101149 46.6713356 112.927141 46.7890346 112.753541 46.9066753 112.580408 47.0243743 112.407741 47.142015 112.235424 47.259714 112.063633 47.3774131 111.892191 47.4950537 111.721216 47.6127528 111.550708 47.7303934 111.380549 47.8480925 111.210858 47.9657915 111.041574 48.0834322 110.872699 48.2011312 110.704233 48.3187719 110.536175 48.4364709 110.368583 48.5541699 110.201341 48.6718106 110.034566 48.7895096 109.868141 48.9071503 109.702125 49.0248494 109.536516 49.1425484 109.371316 49.2601891 109.206525 49.3778881 109.042141 49.4955288 108.878108 49.6132278 108.714483 49.7309268 108.551266 49.8485675 108.3884 49.9662665 108.225941 50.0839072 108.063891 50.2016062 107.902191 50.3193053 107.740841 50.4369459 107.5799 50.554645 107.419366 50.6722856 107.259183 50.7899847 107.099408 50.9076837 106.939983 51.0253244 106.780908 51.1430234 106.622183 51.2606641 106.463866 51.3783631 106.3059 51.4960621 106.148341 51.6137028 105.991075 51.7314019 105.834216 51.8490425 105.677708 51.9667416 105.52155 52.0844406 105.365741 52.2020813 105.210283 52.3197803 105.055175 52.437421 104.900417 52.55512 104.746008 52.672819 104.59195 52.7904597 104.438242 52.9081587 104.284883 53.0258578 104.131875 53.1434984 103.979217 53.2611975 103.82685 53.3788381 103.674833 53.4965372 103.523225 53.6142362 103.37185 53.7318769 103.220883 53.8495759 103.070208 53.9672166 102.919883 54.0849156 102.76985 54.2026147 102.620225 54.3202553 102.470833 54.4379544 102.32185 54.555595 102.1731 54.6732941 102.024758 54.7909931 101.876708 54.9086338 101.72895 55.0263328 101.581542 55.1439735 101.434425 55.2616725 101.287658 55.3793715 101.141183 55.4970122 100.995 55.6147112 100.849167 55.7323519 100.703625 55.8500509 100.558375 55.96775 100.413475 56.0853907 100.268867 56.2030897 100.12455 56.3207304 99.9805251 56.4384294 99.8367918 56.5561284 99.6934085 56.6737691 99.5503168 56.7914681 99.4075168 56.9091088 99.2650085 57.0268078 99.1227918 57.1445069 98.9808668 57.2621475 98.8392335 57.3798466 98.6978919 57.4974872 98.5568419 57.6151863 98.4160835 57.7328853 98.2756169 57.850526 98.1354419 57.968225 97.9955586 58.0858657 97.8559669 58.2035647 97.7166669 58.3212637 97.5776003 58.4389044 97.4388253 58.5566034 97.3003419 58.6742441 97.1621503 58.7919432 97.0242503 58.9096422 96.886642 59.0272829 96.749267 59.1449819 96.6121836 59.2626226 96.4753337 59.3803216 96.3387753 59.4980206 96.2025087 59.6156613 96.0665337 59.7333603 95.930792 59.851001 95.795342 59.9687 95.6601254 60.0863991 95.5252004 60.2040397 95.3905671 60.3217388 95.2561671 60.4393794 95.1220004 60.5570785 94.9881254 60.6747775 94.8545421 60.7924182 94.7211921 60.9101172 94.5880754 61.0277579 94.4552504 61.1454569 94.3226588 61.2631559 94.1903588 61.3807966 94.0582921 61.4984957 93.9264588 61.6161363 93.7949171 61.7338354 93.6636088 61.8515344 93.5325338 61.9691751 93.4017505 62.0868741 93.2712005 62.2045148 93.1408838 62.3222138 93.0108005 62.4399128 92.8810089 62.5575535 92.7514505 62.6752525 92.6221255 62.7928932 92.4930339 62.9105922 92.3641756 63.0282913 92.2356089 63.1459319 92.1072756 63.263631 91.9791172 63.3812717 91.8512506 63.4989707 91.7236173 63.6166697 91.5962173 63.7343104 91.4690506 63.8520094 91.3421756 63.9696501 91.2154756 64.0873491 91.089009 64.2050482 90.9627756 64.3226888 90.8367756 64.4403879 90.711009 64.5580285 90.5854757 64.6757276 90.4601757 64.7934266 90.335109 64.9110673 90.2102757 65.0287663 90.0856757 65.146407 89.9612507 65.264106 89.8371174 65.381805 89.713159 65.4994457 89.589434 65.6171447 89.4659424 65.7347854 89.3426841 65.8524844 89.2196591 65.9701835 89.0968091 66.0878242 88.9741924 66.2055232 88.8518091 66.3231639 88.7296591 66.4408629 88.6076841 66.5585619 88.4859424 66.6762026 88.3644341 66.7939016 88.2431591 66.9115423 88.1220591 67.0292413 88.0011925 67.1469404 87.8805008 67.264581 87.7600425 67.3822801 87.6398175 67.4999207 87.5197675 67.6176198 87.3999508 67.7353188 87.2803675 67.8529595 87.1609592 67.9706585 87.0417842 68.0882992 86.9227842 68.2059982 86.8040175 68.3236972 86.6854259 68.4413379 86.5670676 68.5590369 86.4488842 68.676736 86.3309342 68.7943767 86.2131592 68.9120757 86.0956176 69.0297164 85.9782509 69.1474154 85.8611176 69.2651144 85.7441593 69.3827551 85.6274343 69.5004541 85.5108843 69.6180948 85.3945093 69.7357938 85.2783093 69.8534929 85.162401 69.9711335 85.0466093 70.0888326 84.931051 70.2064732 84.8156677 70.3241723 84.7004593 70.4418713 84.5854843 70.559512 84.4706843 70.677211 84.3560593 70.7948517 84.2416677 70.9125507 84.127451 71.0302497 84.0134094 71.1478904 83.899601 71.2655894 83.7859094 71.3832301 83.6724511 71.5009292 83.5591677 71.6186282 83.4460594 71.7362689 83.3331844 71.8539679 83.2204844 71.9716086 83.1079594 72.0893076 82.9956094 72.2070066 82.8834344 72.3246473 82.7714344 72.4423463 82.6596678 72.559987 82.5480178 72.677686 82.4366011 72.7953851 82.3253595 72.9130257 82.2142345 73.0307248 82.1033428 73.1483654 81.9926845 73.2660645 81.8821428 73.3837635 81.7717762 73.5014042 81.6615845 73.6191032 81.5515678 73.7367439 81.4417845 73.8544429 81.3321179 73.9721419 81.2226262 74.0897826 81.1133095 74.2074817 81.0042262 74.3251223 80.8952595 74.4428214 80.7864679 74.5605204 80.6778512 74.6781611 80.5694096 74.7958601 80.4612012 74.9135008 80.3531096 75.0311998 80.2451346 75.1488988 80.1373929 75.2665395 80.0298263 75.3842385 79.9224346 75.5018792 79.8151596 75.6195782 79.7080596 75.7372773 79.601193 75.8549179 79.494443 75.972617 79.387868 76.0902577 79.281468 76.2079567 79.1751846 76.3256557 79.0691346 76.4432964 78.9632013 76.5609954 78.857443 76.6786361 78.7518597 76.7963351 78.646393 76.9140342 78.5411597 77.0316748 78.436043 77.1493739 78.3311014 77.2670145 78.2263347 77.3847136 78.1216847 77.5024126 78.0172097 77.6200533 77.9129097 77.7377523 77.8087847 77.855393 77.7047764 77.973092 77.6009431 78.090791 77.4972847 78.2084317 77.3937431 78.3261307 77.2904348 78.4437714 77.1871848 78.5614705 77.0841681 78.6791695 76.9812681 78.7968102 76.8785431 78.9145092 76.7759348 79.0321499 76.6735015 79.1498489 76.5712431 79.2675479 76.4691015 79.3851886 76.3671348 79.5028876 76.2652848 79.6205283 76.1636098 79.7382273 76.0621098 79.8559264 75.9607265 79.973567 75.8595182 80.0912661 75.7584265 80.2089067 75.6575098 80.3266058 75.5567099 80.4443048 75.4560849 80.5619455 75.3556349 80.6796445 75.2553015 80.7972852 75.1550849 80.9149842 75.0551015 81.0326832 74.9551766 81.1503239 74.8554266 81.268023 74.7558516 81.3856636 74.6563932 81.5033627 74.5570516 81.6210617 74.4578849 81.7387024 74.3588933 81.8564014 74.2599599 81.9740421 74.1612599 82.0917411 74.0626183 82.2094401 73.9642099 82.3270808 73.8658599 82.4447798 73.767685 82.5624205 73.669685 82.6801195 73.5718016 82.7978186 73.474035 82.9154592 73.376385 83.0331583 73.27891 83.1508573 73.18161 83.268498 73.0843683 83.386197 72.98736 83.5038377 72.89041 83.6215367 72.793635 83.7392357 72.6969767 83.8568764 72.600435 83.9745755 72.5040684 84.0922161 72.4078184 84.2099152 72.3117434 84.3276142 72.215785 84.4452549 72.1199434 84.5629539 72.0242184 84.6805946 71.9286684 84.7982936 71.8332351 84.9159926 71.7379184 85.0336333 71.6427184 85.1513323 71.5476934 85.268973 71.4527851 85.386672 71.3579934 85.5043711 71.2633768 85.6220117 71.1688768 85.7397108 71.0744934 85.8573515 70.9802268 85.9750505 70.8860768 86.0927495 70.7921018 86.2103902 70.6982435 86.3280892 70.6045018 86.4457299 70.5108768 86.5634289 70.4173685 86.681128 70.3240351 86.7987686 70.2308185 86.9164677 70.1377185 87.0341083 70.0447352 87.1518074 69.9518685 87.2695064 69.8591768 87.3871471 69.7665435 87.5048461 69.6740852 87.6224868 69.5817435 87.7401858 69.4895185 87.8578848 69.3974102 87.9755255 69.3054185 88.0932245 69.2136019 88.2108652 69.1218436 88.3285642 69.0302602 88.4462633 68.9387352 88.563904 68.8473852 88.681603 68.7561519 88.7992437 68.6650352 88.9169427 68.5740352 89.0346417 68.4831519 89.1522824 68.3923853 89.2699814 68.3017936 89.3876221 68.2112603 89.5053211 68.1208436 89.6230202 68.0305436 89.7406608 67.9404186 89.8583599 67.850352 89.9760005 67.7604603 90.0936996 67.670627 90.2113986 67.5809686 90.3290393 67.4913686 90.4467383 67.4019436 90.564379 67.312577 90.682078 67.2233853 90.799777 67.134252 90.9174177 67.0452937 91.0351167 66.9563937 91.1527574 66.8676687 91.2704565 66.779002 91.3881555 66.6905104 91.5057962 66.602077 91.6234952 66.5137604 91.7411359 66.4255604 91.8588349 66.3375354 91.9765339 66.2495687 92.0941746 66.1617187 92.2118736 66.0739854 92.3295143 65.9863687 92.4472133 65.8988687 92.5649124 65.8114271 92.682553 65.7241604 92.8002521 65.6369521 92.9178927 65.5499188 93.0355918 65.4629438 93.1532908 65.3761438 93.2709315 65.2894021 93.3886305 65.2027771 93.5062712 65.1162688 93.6239702 65.0298188 93.7416692 64.9435438 93.8593099 64.8573271 93.977009 64.7712855 94.0946496 64.6853021 94.2123487 64.5994355 94.3300477 64.5136855 94.4476884 64.4280522 94.5653874 64.3424772 94.6830281 64.2570772 94.8007271 64.1717355 94.9184261 64.0865105 95.0360668 64.0014022 95.1537658 63.9163522 95.2714065 63.8314772 95.3891055 63.7466605 95.5068046 63.6619605 95.6244452 63.5773772 95.7421443 63.4929105 95.859785 63.4085022 95.977484 63.3242105 96.095183 63.2400356 96.2128237 63.1559772 96.3305227 63.0720356 96.4481634 62.9881522 96.5658624 62.9043856 96.6835615 62.8207356 96.8012021 62.7372022 96.9189012 62.6537273 97.0365418 62.5703689 97.1542409 62.4871273 97.2719399 62.4039439 97.3895806 62.3208773 97.5072796 62.2379273 97.6249203 62.1550939 97.7426193 62.0723773 97.8603183 61.989719 97.977959 61.9071773 98.095658 61.824694 98.2132987 61.7423273 98.3309977 61.6600773 98.4486968 61.577944 98.5663375 61.495869 98.6840365 61.4139107 98.8017355 61.332069 98.9193762 61.2502857 99.0370752 61.168619 99.1547159 61.087069 99.2724149 61.0055773 99.390114 60.9242024 99.5077546 60.842944 99.6254537 60.761744 99.7430943 60.6806607 99.8607934 60.599694 99.9784924 60.5187857 100.096133 60.437994 100.213832 60.3573191 100.331473 60.2767024 100.449172 60.1961441 100.566871 60.1157607 100.684512 60.0354357 100.802211 59.9551691 100.919851 59.8750774 101.03755 59.7950441 101.155249 59.7150691 101.27289 59.6352108 101.390589 59.5554691 101.50823 59.4757858 101.625929 59.3962191 101.743628 59.3167108 101.861268 59.2373191 101.978967 59.1580441 102.096608 59.0788275 102.214307 58.9997275 102.332006 58.9206858 102.449647 58.8417608 102.567346 58.7628941 102.684987 58.6841441 102.802686 58.6054525 102.920385 58.5268775 103.038025 58.4484192 103.155724 58.3700192 103.273365 58.2917358 103.391064 58.2135108 103.508763 58.1354025 103.626404 58.0573525 103.744103 57.9794192 103.861743 57.9015442 103.979442 57.8237859 104.097141 57.7460859 104.214782 57.6685025 104.332481 57.5909775 104.450122 57.5135692 104.567821 57.4362192 104.68552 57.3589859 104.803161 57.2818692 104.92086 57.2047526 105.0385 57.1278109 105.156199 57.0508692 105.273898 56.9741026 105.391539 56.8973359 105.509238 56.8207443 105.626879 56.7441526 105.744578 56.6676776 105.862277 56.5913193 105.979917 56.5150193 106.097617 56.4388359 106.215257 56.3627109 106.332956 56.2866443 106.450655 56.2106943 106.568296 56.1348026 106.685995 56.0590276 106.803636 55.983311 106.921335 55.907711 107.039034 55.8321693 107.156674 55.756686 107.274373 55.6813193 107.392014 55.606011 107.509713 55.5308193 107.627412 55.455686 107.745053 55.3806693 107.862752 55.305711 107.980393 55.230811 108.098092 55.1560277 108.215791 55.0813027 108.333431 55.0066944 108.45113 54.9321444 108.568771 54.8576527 108.68647 54.7832777 108.804169 54.708961 108.92181 54.6347027 109.039509 54.560561 109.157149 54.4864777 109.274848 54.4125111 109.392547 54.3386027 109.510188 54.2647527 109.627887 54.1910194 109.745528 54.1173444 109.863227 54.0437861 109.980926 53.9702278 110.098567 53.8968444 110.216266 53.8234611 110.333906 53.7501944 110.451605 53.6769861 110.569304 53.6038944 110.686945 53.5308611 110.804644 53.4578861 110.922285 53.3849695 111.039984 53.3121695 111.157683 53.2394278 111.275323 53.1668028 111.393022 53.0942361 111.510663 53.0217278 111.628362 52.9492778 111.746061 52.8769445 111.863702 52.8046695 111.981401 52.7324528 112.099042 52.6603528 112.216741 52.5883112 112.33444 52.5163278 112.45208 52.4444612 112.569779 52.3726528 112.68742 52.3009028 112.805119 52.2292112 112.922818 52.1576362 113.040459 52.0861195 113.158158 52.0147195 113.275857 51.9433195 113.393498 51.8720362 113.511197 51.8008112 113.628837 51.7296445 113.746536 51.6585945 113.864235 51.5876029 113.981876 51.5166696 114.099575 51.4458529 114.217216 51.3750362 114.334915 51.3043362 114.452614 51.2336946 114.570254 51.1631696 114.687953 51.0927029 114.805594 51.0222363 114.923293 50.9519446 115.040992 50.8816529 115.158633 50.8114779 115.276332 50.7413613 115.393973 50.6713029 115.511672 50.6013029 115.629371 50.5314196 115.747011 50.4615363 115.86471 50.3917696 115.982351 50.3220613 116.10005 50.2524696 116.217749 50.1829363 116.33539 50.113403 116.453089 50.0439863 116.570729 49.9746863 116.688428 49.9053863 116.806127 49.836203 116.923768 49.767078 117.041467 49.6980113 117.159108 49.629003 117.276807 49.560053 117.394506 49.4912197 117.512147 49.4224447 117.629846 49.353728 117.747486 49.2850697 117.865185 49.2164697 117.982884 49.1479864 118.100525 49.0795614 118.218224 49.0111947 118.335865 48.9428864 118.453564 48.8746364 118.571263 48.8064447 118.688903 48.7383697 118.806603 48.6702947 118.924243 48.6023364 119.041942 48.5344364 119.159641 48.4665947 119.277282 48.3988697 119.394981 48.3311447 119.512622 48.2635364 119.630321 48.1959864 119.74802 48.1284948 119.86566 48.0610614 119.983359 47.9936864 120.101 47.9263698 120.218699 47.8591114 120.336398 47.7919698 120.454039 47.7248864 120.571738 47.6578614 120.689379 47.5908948 120.807078 47.5239865 120.924777 47.4571365 121.042417 47.3903448 121.160116 47.3236698 121.277757 47.2569948 121.395456 47.1904365 121.513155 47.1238781 121.630796 47.0574365 121.748495 46.9910531 121.866135 46.9247282 121.983834 46.8585198 122.101533 46.7923115 122.219174 46.7261615 122.336873 46.6601282 122.454514 46.5940948 122.572213 46.5281782 122.689912 46.4623198 122.807553 46.3964615 122.925252 46.3307199 123.042892 46.2650365 123.160591 46.1994115 123.27829 46.1338449 123.395931 46.0683949 123.51363 46.0029449 123.631271 45.9375532 123.74897 45.8722782 123.866669 45.8070032 123.984309 45.7418449 124.102008 45.6766866 124.219649 45.6116449 124.337348 45.5466616 124.455047 45.4817366 124.572688 45.4168116 124.690387 45.3520032 124.808028 45.2872532 124.925727 45.2225616 125.043426 45.1579283 125.161066 45.0933533 125.278765 45.0288366 125.396406 44.9644366 125.514105 44.9000366 125.631804 44.8356949 125.749445 44.7714116 125.867144 44.7072449 125.984784 44.6430783 126.102484 44.57897 126.220183 44.5149783 126.337823 44.4509866 126.455522 44.3871116 126.573163 44.3232366 126.690862 44.2594783 126.808561 44.19572 126.926202 44.1320783 127.043901 44.0684366 127.161541 44.0049117 127.27924 43.9413867 127.396939 43.8779783 127.51458 43.8146283 127.632279 43.7512783 127.74992 43.688045 127.867619 43.6248117 127.985318 43.561695 128.102959 43.4985783 128.220658 43.4355784 128.338298 43.3726367 128.455997 43.309695 128.573696 43.24687 128.691337 43.184045 128.809036 43.1213367 128.926735 43.0586284 129.044376 42.9960367 129.162075 42.933445 129.279715 42.8709701 129.397414 42.8084951 129.515113 42.7461367 129.632754 42.6837784 129.750453 42.6214784 129.868094 42.5592951 129.985793 42.4971117 130.103492 42.4349867 130.221133 42.3729201 130.338832 42.3109701 130.456472 42.2490201 130.574171 42.1871284 130.69187 42.1252951 130.809511 42.0635201 130.92721 42.0018034 131.044851 41.9401451 131.16255 41.8785451 131.280249 41.8169451 131.397889 41.7554618 131.515589 41.6940368 131.633229 41.6326701 131.750928 41.5713035 131.868627 41.5100535 131.986268 41.4488035 132.103967 41.3876701 132.221608 41.3265368 132.339307 41.2654618 132.457006 41.2045035 132.574646 41.1435451 132.692345 41.0826452 132.809986 41.0218035 132.927685 40.9610202 133.045384 40.9002952 133.163025 40.8395702 133.280724 40.7789618 133.398365 40.7184118 133.516064 40.6578618 133.633763 40.5974285 133.751403 40.5369952 133.869102 40.4766202 133.986743 40.4163619 134.104442 40.3561035 134.222141 40.2959035 134.339782 40.2357619 134.457481 40.1756202 134.575121 40.1155952 134.69282 40.0556285 134.810519 39.9956619 134.92816 39.9358119 135.045859 39.8759619 135.1635 39.8161702 135.281199 39.7564369 135.398898 39.6968202 135.516539 39.6371452 135.634238 39.5775869 135.751878 39.5180869 135.869577 39.4585869 135.987276 39.3992036 136.104917 39.3398203 136.222616 39.2804953 136.340257 39.2212869 136.457956 39.1620786 136.575655 39.1028703 136.693295 39.0437786 136.810994 38.9847453 136.928635 38.9257119 137.046334 38.8667369 137.164033 38.8078786 137.281674 38.7490203 137.399373 38.6902203 137.517014 38.6314786 137.634713 38.572737 137.752412 38.514112 137.870052 38.455487 137.987751 38.3969203 138.105392 38.338412 138.223091 38.279962 138.34079 38.2215703 138.458431 38.163237 138.57613 38.1049037 138.69377 38.046687 138.81147 37.9884703 138.929169 37.930312 139.046809 37.872212 139.164508 37.8141703 139.282149 37.7561287 139.399848 37.6982037 139.517547 37.6402787 139.635188 37.582412 139.752887 37.5246037 139.870527 37.4668537 139.988226 37.409162 140.105925 37.3514704 140.223566 37.2938954 140.341265 37.2363204 140.458906 37.1788037 140.576605 37.121287 140.694304 37.063887 140.811945 37.0064871 140.929644 36.9492037 141.047284 36.8919204 141.164983 36.8346954 141.282682 36.7774704 141.400323 36.7203621 141.518022 36.6632537 141.635663 36.6062037 141.753362 36.5492121 141.871061 36.4922787 141.988701 36.4354038 142.1064 36.3785288 142.224041 36.3217704 142.34174 36.2650121 142.459439 36.2082538 142.57708 36.1516121 142.694779 36.0950288 142.81242 36.0384454 142.930119 35.9819204 143.047818 35.9254538 143.165458 35.8689871 143.283157 35.8126371 143.400856 35.7562871 143.518497 35.6999955 143.636196 35.6437621 143.753837 35.5875288 143.871536 35.5314121 143.989235 35.4752955 144.106875 35.4192371 144.224575 35.3632371 144.342215 35.3072372 144.459914 35.2513538 144.577613 35.1954705 144.695254 35.1396455 144.812953 35.0838205 144.930594 35.0281122 145.048293 34.9724038 145.165992 34.9167538 145.283632 34.8611622 145.401331 34.8056288 145.518972 34.7500955 145.636671 34.6946205 145.75437 34.6392039 145.872011 34.5837872 145.98971 34.5284872 146.107351 34.4731872 146.22505 34.4179455 146.342749 34.3627622 146.460389 34.3075789 146.578088 34.2524539 146.695729 34.1973872 146.813428 34.1423789 146.931127 34.0874289 147.048768 34.0324789 147.166467 33.9775872 147.284107 33.9227539 147.401806 33.8679206 147.519505 33.8131456 147.637146 33.7584289 147.754845 33.7037706 147.872486 33.6491706 147.990185 33.5945706 148.107884 33.5400289 148.225525 33.4855456 148.343224 33.4310623 148.460864 33.3766956 148.578563 33.3223289 148.696262 33.2679623 148.813903 33.2137123 148.931602 33.1594623 149.049243 33.1052706 149.166942 33.0510789 149.284641 32.9970039 149.402281 32.942929 149.51998 32.8889123 149.637621 32.8348956 149.75532 32.7809956 149.873019 32.7270956 149.99066 32.673254 150.108359 32.6194123 150.226 32.565629 150.343699 32.511904 150.461398 32.4582373 150.579038 32.4045706 150.696737 32.3509623 150.814378 32.2974123 150.932077 32.2439207 151.049776 32.190429 151.167417 32.1369957 151.285116 32.0836207 151.402756 32.0302457 151.520456 31.976929 151.638155 31.9236707 151.755795 31.8704707 151.873494 31.8172707 151.991135 31.764129 152.108834 31.7110457 152.226533 31.6579624 152.344174 31.6049374 152.461873 31.5519707 152.579513 31.499004 152.697212 31.4460957 152.814911 31.3932457 152.932552 31.340454 153.050251 31.2876624 153.167892 31.234929 153.285591 31.1822541 153.40329 31.1295791 153.520931 31.0769624 153.63863 31.0244041 153.75627 30.9718457 153.873969 30.9194041 153.991668 30.8669041 154.109309 30.8145207 154.227008 30.7621374 154.344649 30.7098124 154.462348 30.6574874 154.580047 30.6052791 154.697687 30.5530708 154.815386 30.5008624 154.933027 30.4487708 155.050726 30.3966791 155.168425 30.3445874 155.286066 30.2926124 155.403765 30.2406374 155.521406 30.1886624 155.639105 30.1368041 155.756804 30.0849458 155.874444 30.0330875 155.992143 29.9813458 156.109784 29.9296041 156.227483 29.8778625 156.345182 29.8262375 156.462823 29.7746125 156.580522 29.7230458 156.698162 29.6714791 156.815862 29.6199708 156.933561 29.5685208 157.051201 29.5170708 157.1689 29.4656792 157.286541 29.4143458 157.40424 29.3630125 157.521939 29.3117375 157.63958 29.2605208 157.757279 29.2093042 157.874919 29.1581458 157.992618 29.1070458 158.110317 29.0559458 158.227958 29.0049042 158.345657 28.9539208 158.463298 28.9029375 158.580997 28.8520125 158.698696 28.8010875 158.816337 28.7502792 158.934036 28.6994709 159.051735 28.6486625 159.169375 28.5979125 159.287074 28.5472209 159.404715 28.4965292 159.522414 28.4458959 159.640113 28.3953209 159.757754 28.3447459 159.875453 28.2942292 159.993093 28.2437709 160.110792 28.1933126 160.228491 28.1429126 160.346132 28.0925709 160.463831 28.0422292 160.581472 27.9919459 160.699171 27.9416626 160.81687 27.8914376 160.934511 27.8412709 161.05221 27.7911042 161.16985 27.7409959 161.287549 27.6909459 161.405248 27.6408959 161.522889 27.5909043 161.640588 27.5409126 161.758229 27.4909793 161.875928 27.4411043 161.993627 27.3912876 162.111267 27.3414126 162.228967 27.2916543 162.346607 27.2418959 162.464306 27.1921959 162.582005 27.1425543 162.699646 27.0929126 162.817345 27.043271 162.934986 26.993746 163.052685 26.9441626 163.170384 26.894696 163.288024 26.8452293 163.405723 26.795821 163.523364 26.7464126 163.641063 26.6970626 163.758762 26.647771 163.876403 26.5984793 163.994102 26.549246 164.111743 26.5000127 164.229442 26.4508377 164.347141 26.401721 164.464781 26.3526043 164.58248 26.303546 164.700121 26.2544877 164.81782 26.2054877 164.935519 26.156546 165.05316 26.1076043 165.170859 26.058721 165.288499 26.0098377 165.406198 25.9610127 165.523897 25.912246 165.641538 25.8634794 165.759237 25.814771 165.876878 25.7660627 165.994577 25.7174127 166.112276 25.668821 166.229917 25.6202294 166.347616 25.571696 166.465256 25.5231627 166.582955 25.4746877 166.700654 25.4262127 166.818295 25.3778544 166.935994 25.3294377 167.053635 25.2811377 167.171334 25.2327794 167.289033 25.1845377 167.406673 25.1362961 167.524372 25.0880544 167.642013 25.0399294 167.759712 24.9917461 167.877411 24.9436794 167.995052 24.8956127 168.112751 24.8475461 168.230392 24.7995378 168.348091 24.7515878 168.46579 24.7036378 168.58343 24.6557461 168.701129 24.6078544 168.81877 24.5600211 168.936469 24.5122461 169.054168 24.4644711 169.171809 24.4167544 169.289508 24.3690378 169.407148 24.3213794 169.524848 24.2737211 169.642547 24.2261211 169.760187 24.1785795 169.877886 24.1310378 169.995527 24.0834961 170.113226 24.0360711 170.230925 23.9885878 170.348566 23.9412211 170.466265 23.8938545 170.583905 23.8464878 170.701604 23.7991795 170.819303 23.7519295 170.936944 23.7046795 171.054643 23.6574878 171.172284 23.6102962 171.289983 23.5631628 171.407682 23.5160295 171.525323 23.4689545 171.643022 23.4218795 171.760662 23.3749212 171.878361 23.3279045 171.99606 23.2809462 172.113701 23.2340462 172.2314 23.1871462 172.349041 23.1403045 172.46674 23.0934628 172.584439 23.0466795 172.702079 22.9999545 172.819778 22.9532295 172.937419 22.9065045 173.055118 22.8598379 173.172817 22.8132295 173.290458 22.7666212 173.408157 22.7200712 173.525856 22.6735212 173.643497 22.6270295 173.761196 22.5805379 173.878836 22.5341045 173.996535 22.4877295 174.114234 22.4412962 174.231875 22.3949796 174.349574 22.3486629 174.467215 22.3024046 174.584914 22.2561462 174.702613 22.2098879 174.820253 22.1636879 174.937953 22.1175462 175.055593 22.0714046 175.173292 22.0253212 175.290991 21.9792962 175.408632 21.9332129 175.526331 21.8872463 175.643972 21.8412796 175.761671 21.7953129 175.87937 21.7494046 175.99701 21.7034963 176.114709 21.6576463 176.23235 21.6118546 176.350049 21.5660629 176.467748 21.5203296 176.585389 21.4745963 176.703088 21.4288629 176.820729 21.3832463 176.938428 21.3375713 177.056127 21.2919546 177.173767 21.2463963 177.291466 21.200838 177.409107 21.155338 177.526806 21.109838 177.644505 21.0643963 177.762146 21.0189546 177.879845 20.9735713 177.997485 20.9282463 178.115184 20.8829213 178.232883 20.8375963 178.350524 20.7923296 178.468223 20.747063 178.585864 20.7018547 178.703563 20.6566463 178.821262 20.6114963 178.938903 20.5664047 179.056602 20.521313 179.174242 20.4762213 179.291941 20.431188 179.40964 20.386213 179.527281 20.341238 179.64498 20.296263 179.762621 20.2513463 179.88032 20.206488 179.998019 20.1616297 180.115659 20.1167714 180.233358 20.0719714 180.350999 20.0272297 180.468698 19.982488 180.586397 19.9377464 180.704038 19.893063 180.821737 19.848438 180.939378 19.803813 181.057077 19.759188 181.174776 19.7146214 181.292416 19.670113 181.410115 19.6256047 181.527756 19.5810964 181.645455 19.5366464 181.763154 19.4922547 181.880795 19.4478631 181.998494 19.4034714 182.116134 19.3591381 182.233834 19.3148631 182.351533 19.2705297 182.469173 19.2263131 182.586872 19.1820964 182.704513 19.1378797 182.822212 19.0937214 182.939911 19.0496214 183.057552 19.0054631 183.175251 18.9614214 183.292891 18.9173798 183.41059 18.8733381 183.528289 18.8293548 183.64593 18.7853714 183.763629 18.7414464 183.88127 18.6975214 183.998969 18.6536548 184.116668 18.6097881 184.234309 18.5659798 184.352008 18.5221714 184.469648 18.4784214 184.587347 18.4346714 184.705046 18.3909798 184.822687 18.3472881 184.940386 18.3035965 185.058027 18.2599631 185.175726 18.2163881 185.293425 18.1728131 185.411065 18.1292381 185.528764 18.0857215 185.646405 18.0422631 185.764104 17.9988048 185.881803 17.9553465 185.999444 17.9119465 186.117143 17.8685465 186.234784 17.8252048 186.352483 17.7818632 186.470182 17.7385798 186.587822 17.6952965 186.705521 17.6520715 186.823162 17.6088465 186.940861 17.5656798 187.05856 17.5225132 187.176201 17.4793465 187.2939 17.4362382 187.41154 17.3931882 187.529239 17.3501382 187.646939 17.3070882 187.764579 17.2640965 187.882278 17.2211049 187.999919 17.1781715 188.117618 17.1352382 188.235317 17.0923632 188.352958 17.0494882 188.470657 17.0066715 188.588297 16.9638549 188.705996 16.9210965 188.823695 16.8783382 188.941336 16.8355799 189.059035 16.7928799 189.176734 16.7501799 189.294375 16.7075382 189.412074 16.6649549 189.529715 16.6223132 189.647414 16.5797882 189.765113 16.5372049 189.882753 16.4946799 190.000452 16.4522132 190.118093 16.4097466 190.235792 16.3672799 190.353491 16.3248716 190.471132 16.2825216 190.588831 16.2401132 190.706471 16.1978216 190.82417 16.1554716 190.941869 16.1132382 191.05951 16.0709466 191.177209 16.0287133 191.29485 15.9865383 191.412549 15.9443633 191.530248 15.9021883 191.647889 15.8600716 191.765588 15.8179549 191.883228 15.7758966 192.000927 15.7338383 192.118626 15.6918383 192.236267 15.6498383 192.353966 15.6078383 192.471607 15.5658966 192.589306 15.5239549 192.707005 15.4820716 192.824645 15.4402466 192.942344 15.3983633 193.059985 15.3565383 193.177684 15.3147716 193.295383 15.273005 193.413024 15.2312383 193.530723 15.18953 193.648364 15.14788 193.766063 15.1061716 193.883762 15.0645216 194.001402 15.02293 194.119101 14.9813383 194.236742 14.939805 194.354441 14.8982133 194.47214 14.8567383 194.589781 14.8152633 194.70748 14.7737883 194.82512 14.7323133 194.94282 14.690955 195.060519 14.6495383 195.178159 14.60818 195.295858 14.5668392 195.413499 14.5255275 195.531198 14.4842392 195.648897 14.4429742 195.766538 14.4017325 195.884237 14.36052 196.001877 14.3193308 196.119576 14.2781709 196.237275 14.2370284 196.354916 14.195915 196.472615 14.154825 196.590256 14.1137584 196.707955 14.0727209 196.825654 14.0317009 196.943295 13.99071 197.060994 13.9497425 197.178634 13.9088042 197.296333 13.8678834 197.414032 13.8269917 197.531673 13.7861234 197.649372 13.7452784 197.767013 13.7044567 197.884712 13.6636584 198.002411 13.6228892 198.120051 13.5821376 198.23775 13.5414151 198.355391 13.5007159 198.47309 13.4600401 198.590789 13.4193934 198.70843 13.3787642 198.826129 13.3381642 198.94377 13.2975817 199.061469 13.2570284 199.179168 13.2164984 199.296808 13.1759917 199.414507 13.1355084 199.532148 13.0950484 199.649847 13.0546176 199.767546 13.0142043 199.885187 12.9738201 200.002886 12.9334534 200.120526 12.8931159 200.238225 12.8528018 200.355925 12.8125051 200.473565 12.7722376 200.591264 12.7319934 200.708905 12.6917726 200.826604 12.6515751 200.944303 12.6114009 201.061944 12.5712501 201.179643 12.5311226 201.297283 12.4910243 201.414982 12.4509435 201.532681 12.410886 201.650322 12.3708518 201.768021 12.330841 201.885662 12.2908593 202.003361 12.2508951 202.12106 12.2109543 202.238701 12.1710368 202.3564 12.1311426 202.47404 12.0912776 202.591739 12.0514301 202.709438 12.011606 202.827079 11.9718052 202.944778 11.9320277 203.062419 11.8922735 203.180118 11.8525427 203.297817 11.8128352 203.415457 11.773151 203.533156 11.7334902 203.650855 11.6938468 203.768496 11.6542327 203.886195 11.6146418 204.003836 11.5750685 204.121535 11.5355243 204.239234 11.4959977 204.356875 11.4564943 204.474574 11.4170143 204.592214 11.3775635 204.709913 11.3381302 204.827612 11.2987144 204.945253 11.2593277 205.062952 11.2199644 205.180593 11.1806185 205.298292 11.1413019 205.415991 11.1020027 205.533631 11.0627269 205.65133 11.0234744 205.768971 10.9842452 205.88667 10.9450335 206.004369 10.905851 206.12201 10.866686 206.239709 10.8275444 206.35735 10.7884319 206.475049 10.7493311 206.592748 10.7102594 206.710388 10.6712111 206.828087 10.6321802 206.945728 10.5931727 207.063427 10.5541886 207.181126 10.5152277 207.298767 10.4762844 207.416466 10.4373702 207.534106 10.3984736 207.651806 10.3596002 207.769505 10.3207444 207.887145 10.2819177 208.004844 10.2431086 208.122485 10.2043228 208.240184 10.1655603 208.357883 10.1268153 208.475524 10.0880994 208.593223 10.0494011 208.710863 10.0107203 208.828562 9.9720686 208.946261 9.93343443 209.063902 9.8948236 209.181601 9.8562361 209.299242 9.81766611 209.416941 9.77912528 209.53464 9.74059611 209.652281 9.70209611 209.76998 9.66361362 209.88762 9.62515445 210.005319 9.58671862 210.123018 9.54830029 210.240659 9.50991112 210.358358 9.47153363 210.475999 9.4331853 210.593698 9.39485446 210.711397 9.35654697 210.829037 9.31825697 210.946736 9.27999614 211.064377 9.24174697 211.182076 9.20352698 211.299775 9.16532448 211.417416 9.12714531 211.535115 9.08898365 211.652756 9.05084532 211.770455 9.01273032 211.888154 8.97463865 212.005794 8.93656449 212.123493 8.89850783 212.241134 8.86047449 212.358833 8.8224645 212.476532 8.78447783 212.594173 8.74650867 212.711872 8.70856284 212.829512 8.67063451 212.947211 8.63272951 213.064911 8.59484201 213.182551 8.55697785 213.30025 8.51913701 213.417891 8.48131368 213.53559 8.44351369 213.653289 8.40573702 213.77093 8.36797786 213.888629 8.33023619 214.006269 8.29251786 214.123968 8.25482286 214.241667 8.21714536 214.359308 8.1794912 214.477007 8.14185454 214.594648 8.1042412 214.712347 8.06665121 214.830046 8.02907871 214.947687 7.99152371 215.065386 7.95399205 215.183026 7.91648372 215.300725 7.87899288 215.418424 7.84151955 215.536065 7.80406956 215.653764 7.76664289 215.771405 7.72923373 215.889104 7.69184789 216.006803 7.65447956 216.124443 7.61712873 216.242142 7.57980707 216.359783 7.54249707 216.477482 7.50521041 216.595181 7.46794707 216.712822 7.43070124 216.830521 7.39347291 216.948162 7.35626791 217.065861 7.31908625 217.18356 7.28191625 217.3012 7.24477542 217.418899 7.20765209 217.53654 7.17054626 217.654239 7.13345793 217.771938 7.09639876 217.889579 7.05935126 218.007278 7.0223271 218.124918 6.98532627 218.242617 6.9483371 218.360316 6.91137711 218.477957 6.87442877 218.595656 6.83750378 218.713297 6.80060211 218.830996 6.76371795 218.948695 6.72685128 219.066336 6.69000795 219.184035 6.65318212 219.301734 6.61637962 219.419374 6.57958879 219.537073 6.54282713 219.654714 6.50607713 219.772413 6.46935046 219.890112 6.43264713 220.007753 6.3959613 220.125452 6.35929297 220.243092 6.32264214 220.360792 6.28601464 220.478491 6.24940464 220.596131 6.21281798 220.71383 6.17624881 220.831471 6.13969715 220.94917 6.10316882 221.066869 6.06665799 221.18451 6.03016466 221.302209 5.99369466 221.419849 5.95724216 221.537548 5.92080716 221.655247 5.8843955 221.772888 5.84800133 221.890587 5.81162467 222.008228 5.7752655 222.125927 5.73892967 222.243626 5.70261718 222.361267 5.66631634 222.478966 5.63003885 222.596606 5.59377885 222.714305 5.55753635 222.832004 5.52131719 222.949645 5.48511552 223.067344 5.44893136 223.184985 5.41276469 223.302684 5.37662136 223.420383 5.34049553 223.538023 5.3043872 223.655722 5.2683022 223.773363 5.2322347 223.891062 5.1961847 224.008761 5.16015221 224.126402 5.12414304 224.244101 5.08815138 224.361742 5.05217721 224.479441 5.01622055 224.59714 4.98028138 224.71478 4.94436555 224.832479 4.90846722 224.95012 4.87258639 225.067819 4.83672889 225.185518 4.80088306 225.303159 4.76506056 225.420858 4.72925556 225.538498 4.6934739 225.656197 4.6577039 225.773897 4.62195724 225.891537 4.58622807 226.009236 4.55051641 226.126877 4.51482224 226.244576 4.47914558 226.362275 4.44349225 226.479916 4.40785642 226.597615 4.37223808 226.715255 4.33663725 226.832954 4.30105392 226.950653 4.26549392 227.068294 4.22994559 227.185993 4.19442059 227.303634 4.1589131 227.421333 4.1234231 227.539032 4.08795643 227.656673 4.05250144 227.774372 4.01706977 227.892012 3.98165561 228.009711 3.94625311 228.12741 3.91087394 228.245051 3.87551811 228.36275 3.84017395 228.480391 3.80484728 228.59809 3.76954395 228.715789 3.73425229 228.833429 3.69898396 228.951128 3.66373313 229.068769 3.62849979 229.186468 3.59328396 229.304167 3.55808563 229.421808 3.5229048 229.539507 3.4877473 229.657148 3.45260147 229.774847 3.41747897 229.892546 3.38236814 230.010186 3.34728064 230.127885 3.31221065 230.245526 3.27715815 230.363225 3.24212315 230.480924 3.20710565 230.598565 3.17210565 230.716264 3.13712316 230.833904 3.10215816 230.951603 3.06721649 231.069302 3.03228649 231.186943 2.997374 231.304642 2.96248483 231.422283 2.92760733 231.539982 2.89275317 231.657681 2.85791067 231.775322 2.82309151 231.893021 2.78828984 232.010661 2.75349984 232.12836 2.71873318 232.246059 2.68398401 232.3637 2.64925235 232.481399 2.61453235 232.59904 2.57983569 232.716739 2.54515652 232.834438 2.51049486 232.952078 2.47585069 233.069778 2.44121819 233.187418 2.40660903 233.305117 2.37201737 233.422816 2.3374432 233.540457 2.30288654 233.658156 2.26834154 233.775855 2.23381987 233.893496 2.19931571 234.011195 2.16482904 234.128835 2.13035405 234.246534 2.09590238 234.364233 2.06146822 234.481874 2.02704572 234.599573 1.99264655 234.717214 1.95825906 234.834913 1.92389489 234.952612 1.88954239 235.070253 1.85521323 235.187952 1.82089573 235.305592 1.78660157 235.423291 1.75231907 235.54099 1.71805407 235.658631 1.68380657 235.77633 1.64957657 235.893971 1.61536408 236.01167 1.58116908 236.129369 1.54699158 236.247009 1.51283158 236.364708 1.47868325 236.482349 1.44455825 236.600048 1.41045075 236.717747 1.37635492 236.835388 1.34227659 236.953087 1.30822159 237.070728 1.27417826 237.188427 1.24015243 237.306126 1.2061441 237.423766 1.17215327 237.541465 1.1381741 237.659106 1.10421827 237.776805 1.07027994 237.894504 1.03635328 238.012145 1.00244411 238.129844 0.968552446 238.247484 0.934678281 238.365183 0.900821616 238.482883 0.866982451 238.600523 0.833160787 238.718222 0.799350789 238.835863 0.765558291 238.953562 0.731789126 239.071261 0.698031628 239.188902 0.66429163 239.306601 0.630563298 239.424241 0.5968583 239.54194 0.563164969 239.659639 0.529494971 239.77728 0.495836639 239.894979 0.462195808 240.01262 0.428572477 240.130319 0.394960812 240.248018 0.36137248 240.365659 0.327795816 240.483358 0.294236651 240.600998 0.260694986 240.718697 0.227170821 240.836396 0.193658323 240.954037 0.160169159 241.071736 0.12669166 241.189377 0.0932316624 241.307076 0.0597891643"></polyline>
            </g>
            <g id="Group-25" transform="translate(0.000000, 0.038900)">
                <mask id="mask-6" fill="white">
                    <use xlink:href="#path-5"></use>
                </mask>
                <g id="Clip-21"></g>
                <polygon id="Fill-20" fill="#FFFFFF" mask="url(#mask-6)" points="0.3070831 308.268173 0.8906182 308.268173 0.8906182 0.2681732 0.3070831 0.2681732"></polygon>
                <polygon id="Fill-22" fill="#FFFFFF" mask="url(#mask-6)" points="481.7235 308.268173 482.307035 308.268173 482.307035 0.2681732 481.7235 0.2681732"></polygon>
                <polygon id="Fill-23" fill="#FFFFFF" mask="url(#mask-6)" points="0.3070831 0.8515 482.307083 0.8515 482.307083 0.2681667 0.3070831 0.2681667"></polygon>
                <polygon id="Fill-24" fill="#FFFFFF" mask="url(#mask-6)" points="0.3070831 308.268173 482.307083 308.268173 482.307083 307.68484 0.3070831 307.68484"></polygon>
            </g>
        </g>
    </g>
</svg>